code-new-roman_regular.sfdir
StartChar: exclam
Encoding: 33 33 352
Width: 1126
Flags: W
LayerCount: 2
Back
Fore
SplineSet
666 1413 m 1,0,-1
 639 383 l 1,1,-1
 485 383 l 1,2,-1
 455 1413 l 1,3,-1
 666 1413 l 1,0,-1
561 246 m 0,4,5
 588 246 588 246 612 235.5 c 128,-1,6
 636 225 636 225 653.5 207 c 128,-1,7
 671 189 671 189 681.5 164.5 c 128,-1,8
 692 140 692 140 692 113 c 256,9,10
 692 86 692 86 681.5 62 c 128,-1,11
 671 38 671 38 653.5 20.5 c 128,-1,12
 636 3 636 3 612 -7.5 c 128,-1,13
 588 -18 588 -18 561 -18 c 0,14,15
 533 -18 533 -18 509 -7.5 c 128,-1,16
 485 3 485 3 467 20.5 c 128,-1,17
 449 38 449 38 438.5 62 c 128,-1,18
 428 86 428 86 428 113 c 256,19,20
 428 140 428 140 438.5 164.5 c 128,-1,21
 449 189 449 189 467 207 c 128,-1,22
 485 225 485 225 509 235.5 c 128,-1,23
 533 246 533 246 561 246 c 0,4,5
EndSplineSet
EndChar
StartChar: quotedbl
Encoding: 34 34 593
Width: 1126
Flags: W
LayerCount: 2
Back
Fore
SplineSet
479 1413 m 1,0,-1
 451 944 l 1,1,-1
 287 944 l 1,2,-1
 258 1413 l 1,3,-1
 479 1413 l 1,0,-1
868 1413 m 1,4,-1
 840 944 l 1,5,-1
 676 944 l 1,6,-1
 647 1413 l 1,7,-1
 868 1413 l 1,4,-1
EndSplineSet
EndChar
StartChar: numbersign
Encoding: 35 35 612
Width: 1126
Flags: W
LayerCount: 2
Back
Fore
SplineSet
1030 367 m 1,0,-1
 807 367 l 1,1,-1
 770 0 l 1,2,-1
 622 0 l 1,3,-1
 659 367 l 1,4,-1
 404 367 l 1,5,-1
 367 0 l 1,6,-1
 219 0 l 1,7,-1
 256 367 l 1,8,-1
 43 367 l 1,9,-1
 43 497 l 1,10,-1
 269 497 l 1,11,-1
 305 847 l 1,12,-1
 94 847 l 1,13,-1
 94 977 l 1,14,-1
 318 977 l 1,15,-1
 352 1307 l 1,16,-1
 498 1307 l 1,17,-1
 465 977 l 1,18,-1
 721 977 l 1,19,-1
 755 1307 l 1,20,-1
 903 1307 l 1,21,-1
 868 977 l 1,22,-1
 1083 977 l 1,23,-1
 1083 847 l 1,24,-1
 855 847 l 1,25,-1
 820 497 l 1,26,-1
 1030 497 l 1,27,-1
 1030 367 l 1,0,-1
673 497 m 1,28,-1
 708 847 l 1,29,-1
 452 847 l 1,30,-1
 417 497 l 1,31,-1
 673 497 l 1,28,-1
EndSplineSet
EndChar
StartChar: dollar
Encoding: 36 36 603
Width: 1126
Flags: W
LayerCount: 2
Back
Fore
SplineSet
592 1495 m 1,0,-1
 737 1495 l 1,1,-1
 711 1300 l 1,2,3
 763 1295 763 1295 815.5 1287 c 128,-1,4
 868 1279 868 1279 913 1268 c 1,5,-1
 913 1114 l 1,6,7
 858 1128 858 1128 802 1138 c 128,-1,8
 746 1148 746 1148 692 1153 c 1,9,-1
 635 725 l 1,10,11
 702 699 702 699 768 668.5 c 128,-1,12
 834 638 834 638 886.5 596.5 c 128,-1,13
 939 555 939 555 971.5 498 c 128,-1,14
 1004 441 1004 441 1004 362 c 0,15,16
 1004 278 1004 278 970 213 c 128,-1,17
 936 148 936 148 875 103 c 128,-1,18
 814 58 814 58 728 32.5 c 128,-1,19
 642 7 642 7 539 2 c 1,20,-1
 506 -236 l 1,21,-1
 360 -236 l 1,22,-1
 393 2 l 1,23,24
 312 8 312 8 238.5 19.5 c 128,-1,25
 165 31 165 31 111 45 c 1,26,-1
 111 211 l 1,27,28
 174 189 174 189 248.5 175 c 128,-1,29
 323 161 323 161 414 156 c 1,30,-1
 473 606 l 1,31,32
 408 631 408 631 345 660 c 128,-1,33
 282 689 282 689 232.5 729.5 c 128,-1,34
 183 770 183 770 152 825 c 128,-1,35
 121 880 121 880 121 956 c 0,36,37
 121 1018 121 1018 147 1078.5 c 128,-1,38
 173 1139 173 1139 228 1187.5 c 128,-1,39
 283 1236 283 1236 367 1267.5 c 128,-1,40
 451 1299 451 1299 567 1305 c 1,41,-1
 592 1495 l 1,0,-1
547 1155 m 1,42,43
 422 1144 422 1144 364.5 1096.5 c 128,-1,44
 307 1049 307 1049 307 975 c 0,45,46
 307 906 307 906 354.5 861.5 c 128,-1,47
 402 817 402 817 496 780 c 1,48,-1
 547 1155 l 1,42,43
559 156 m 1,49,50
 694 166 694 166 755.5 216 c 128,-1,51
 817 266 817 266 817 352 c 0,52,53
 817 388 817 388 804 416.5 c 128,-1,54
 791 445 791 445 765 468 c 128,-1,55
 739 491 739 491 700.5 511 c 128,-1,56
 662 531 662 531 610 551 c 1,57,-1
 559 156 l 1,49,50
EndSplineSet
Substitution2: "'onum' Oldstyle Figures lookup 21 subtable" dollar.oldstyle
EndChar
StartChar: percent
Encoding: 37 37 681
Width: 1126
Flags: W
LayerCount: 2
Back
Fore
SplineSet
1106 1413 m 1,0,-1
 184 0 l 1,1,-1
 20 0 l 1,2,-1
 940 1413 l 1,3,-1
 1106 1413 l 1,0,-1
573 1133 m 0,4,5
 573 1068 573 1068 554 1012.5 c 128,-1,6
 535 957 535 957 499.5 916.5 c 128,-1,7
 464 876 464 876 413.5 852.5 c 128,-1,8
 363 829 363 829 301 829 c 0,9,10
 240 829 240 829 191.5 848 c 128,-1,11
 143 867 143 867 108.5 904.5 c 128,-1,12
 74 942 74 942 55.5 997 c 128,-1,13
 37 1052 37 1052 37 1124 c 0,14,15
 37 1188 37 1188 56 1243.5 c 128,-1,16
 75 1299 75 1299 110.5 1340 c 128,-1,17
 146 1381 146 1381 196.5 1404 c 128,-1,18
 247 1427 247 1427 309 1427 c 0,19,20
 370 1427 370 1427 418.5 1408 c 128,-1,21
 467 1389 467 1389 501.5 1352 c 128,-1,22
 536 1315 536 1315 554.5 1260 c 128,-1,23
 573 1205 573 1205 573 1133 c 0,4,5
426 1128 m 0,24,25
 426 1216 426 1216 394 1258 c 128,-1,26
 362 1300 362 1300 305 1300 c 0,27,28
 276 1300 276 1300 253.5 1287 c 128,-1,29
 231 1274 231 1274 215.5 1251 c 128,-1,30
 200 1228 200 1228 192 1196.5 c 128,-1,31
 184 1165 184 1165 184 1128 c 0,32,33
 184 1040 184 1040 216 998 c 128,-1,34
 248 956 248 956 305 956 c 0,35,36
 334 956 334 956 356.5 969 c 128,-1,37
 379 982 379 982 394.5 1005 c 128,-1,38
 410 1028 410 1028 418 1059.5 c 128,-1,39
 426 1091 426 1091 426 1128 c 0,24,25
1090 289 m 0,40,41
 1090 224 1090 224 1070.5 169 c 128,-1,42
 1051 114 1051 114 1015.5 73 c 128,-1,43
 980 32 980 32 929.5 9 c 128,-1,44
 879 -14 879 -14 817 -14 c 0,45,46
 756 -14 756 -14 707.5 5 c 128,-1,47
 659 24 659 24 624.5 61 c 128,-1,48
 590 98 590 98 571.5 153.5 c 128,-1,49
 553 209 553 209 553 281 c 0,50,51
 553 345 553 345 572 400.5 c 128,-1,52
 591 456 591 456 626.5 497 c 128,-1,53
 662 538 662 538 712.5 561 c 128,-1,54
 763 584 763 584 825 584 c 0,55,56
 886 584 886 584 935 565 c 128,-1,57
 984 546 984 546 1018.5 508.5 c 128,-1,58
 1053 471 1053 471 1071.5 416 c 128,-1,59
 1090 361 1090 361 1090 289 c 0,40,41
943 285 m 0,60,61
 943 373 943 373 910.5 415 c 128,-1,62
 878 457 878 457 821 457 c 0,63,64
 792 457 792 457 769.5 444 c 128,-1,65
 747 431 747 431 731.5 408 c 128,-1,66
 716 385 716 385 708 353.5 c 128,-1,67
 700 322 700 322 700 285 c 0,68,69
 700 197 700 197 732 155 c 128,-1,70
 764 113 764 113 821 113 c 0,71,72
 850 113 850 113 872.5 126 c 128,-1,73
 895 139 895 139 911 162 c 128,-1,74
 927 185 927 185 935 216.5 c 128,-1,75
 943 248 943 248 943 285 c 0,60,61
EndSplineSet
EndChar
StartChar: ampersand
Encoding: 38 38 314
Width: 1126
Flags: W
LayerCount: 2
Back
Fore
SplineSet
1024 682 m 1,0,1
 1024 551 1024 551 998 444 c 128,-1,2
 972 337 972 337 924 252 c 1,3,-1
 1126 0 l 1,4,-1
 895 0 l 1,5,-1
 807 109 l 1,6,7
 736 49 736 49 648.5 17.5 c 128,-1,8
 561 -14 561 -14 459 -14 c 0,9,10
 362 -14 362 -14 287 13 c 128,-1,11
 212 40 212 40 161 88.5 c 128,-1,12
 110 137 110 137 83.5 204 c 128,-1,13
 57 271 57 271 57 352 c 0,14,15
 57 428 57 428 77 487.5 c 128,-1,16
 97 547 97 547 131 593.5 c 128,-1,17
 165 640 165 640 209.5 675.5 c 128,-1,18
 254 711 254 711 303 741 c 1,19,-1
 281 772 l 1,20,21
 225 841 225 841 197.5 912 c 128,-1,22
 170 983 170 983 170 1051 c 0,23,24
 170 1123 170 1123 193 1184 c 128,-1,25
 216 1245 216 1245 260.5 1289.5 c 128,-1,26
 305 1334 305 1334 370.5 1359 c 128,-1,27
 436 1384 436 1384 520 1384 c 0,28,29
 601 1384 601 1384 662 1361 c 128,-1,30
 723 1338 723 1338 764 1298 c 128,-1,31
 805 1258 805 1258 825.5 1205.5 c 128,-1,32
 846 1153 846 1153 846 1094 c 0,33,34
 846 1019 846 1019 820.5 962.5 c 128,-1,35
 795 906 795 906 753.5 862.5 c 128,-1,36
 712 819 712 819 658.5 785 c 128,-1,37
 605 751 605 751 549 719 c 1,38,-1
 807 397 l 1,39,40
 851 515 851 515 848 682 c 1,41,-1
 1024 682 l 1,0,1
238 373 m 0,42,43
 238 320 238 320 255 276 c 128,-1,44
 272 232 272 232 303.5 200.5 c 128,-1,45
 335 169 335 169 380.5 152 c 128,-1,46
 426 135 426 135 483 135 c 0,47,48
 613 135 613 135 711 231 c 1,49,-1
 393 629 l 1,50,51
 359 606 359 606 330.5 580 c 128,-1,52
 302 554 302 554 281.5 523 c 128,-1,53
 261 492 261 492 249.5 455 c 128,-1,54
 238 418 238 418 238 373 c 0,42,43
670 1077 m 0,55,56
 670 1152 670 1152 628 1194.5 c 128,-1,57
 586 1237 586 1237 514 1237 c 0,58,59
 474 1237 474 1237 443.5 1224 c 128,-1,60
 413 1211 413 1211 392 1188 c 128,-1,61
 371 1165 371 1165 360.5 1134 c 128,-1,62
 350 1103 350 1103 350 1067 c 0,63,64
 350 1013 350 1013 370 966.5 c 128,-1,65
 390 920 390 920 434 864 c 2,66,-1
 461 829 l 1,67,68
 504 853 504 853 542 877.5 c 128,-1,69
 580 902 580 902 608.5 931.5 c 128,-1,70
 637 961 637 961 653.5 996.5 c 128,-1,71
 670 1032 670 1032 670 1077 c 0,55,56
EndSplineSet
AlternateSubs2: "'ss06' Style Set 6 lookup 31 subtable" ampersand.ss05
Substitution2: "'ss05' Style Set 5 lookup 30 subtable" ampersand.ss05
AlternateSubs2: "'salt' Stylistic Alternatives lookup 23 subtable" ampersand.ss05
EndChar
StartChar: quotesingle
Encoding: 39 39 592
Width: 1126
Flags: W
LayerCount: 2
Back
Fore
SplineSet
678 1413 m 1,0,-1
 649 944 l 1,1,-1
 477 944 l 1,2,-1
 449 1413 l 1,3,-1
 678 1413 l 1,0,-1
EndSplineSet
EndChar
StartChar: parenleft
Encoding: 40 40 383
Width: 1126
Flags: W
LayerCount: 2
Back
Fore
SplineSet
1036 -416 m 1,0,1
 774 -400 774 -400 594 -268 c 128,-1,2
 414 -136 414 -136 307 88 c 128,-1,3
 200 312 200 312 200 537 c 256,4,5
 200 762 200 762 307 986 c 128,-1,6
 414 1210 414 1210 594 1342 c 128,-1,7
 774 1474 774 1474 1036 1491 c 1,8,-1
 1036 1344 l 1,9,10
 838 1326 838 1326 695.5 1211 c 128,-1,11
 553 1096 553 1096 472 918 c 128,-1,12
 391 740 391 740 391 537 c 256,13,14
 391 334 391 334 472 156 c 128,-1,15
 553 -22 553 -22 695.5 -136.5 c 128,-1,16
 838 -251 838 -251 1036 -269 c 1,17,-1
 1036 -416 l 1,0,1
EndSplineSet
Substitution2: "'sups' Superscript lookup 34 subtable" uni207D
Substitution2: "'subs' Subscript lookup 22 subtable" uni208D
Substitution2: "'case' Case-Sensitive Forms lookup 0 subtable" parenleft.case
EndChar
StartChar: parenright
Encoding: 41 41 384
Width: 1126
Flags: W
LayerCount: 2
Back
Fore
SplineSet
90 -269 m 1,0,1
 287 -251 287 -251 429.5 -136.5 c 128,-1,2
 572 -22 572 -22 653.5 156 c 128,-1,3
 735 334 735 334 735 537 c 256,4,5
 735 740 735 740 653.5 918 c 128,-1,6
 572 1096 572 1096 429.5 1211 c 128,-1,7
 287 1326 287 1326 90 1344 c 1,8,-1
 90 1491 l 1,9,10
 352 1474 352 1474 531.5 1342 c 128,-1,11
 711 1210 711 1210 818.5 986 c 128,-1,12
 926 762 926 762 926 537 c 256,13,14
 926 312 926 312 818.5 88 c 128,-1,15
 711 -136 711 -136 531.5 -268 c 128,-1,16
 352 -400 352 -400 90 -416 c 1,17,-1
 90 -269 l 1,0,1
EndSplineSet
Substitution2: "'sups' Superscript lookup 34 subtable" uni207E
Substitution2: "'subs' Subscript lookup 22 subtable" uni208E
Substitution2: "'case' Case-Sensitive Forms lookup 0 subtable" parenright.case
EndChar
StartChar: asterisk
Encoding: 42 42 395
Width: 1126
Flags: W
LayerCount: 2
Back
Fore
SplineSet
961 840 m 1,0,-1
 893 721 l 1,1,-1
 612 907 l 1,2,-1
 635 565 l 1,3,-1
 492 565 l 1,4,-1
 514 907 l 1,5,-1
 227 721 l 1,6,-1
 164 838 l 1,7,-1
 471 989 l 1,8,-1
 164 1143 l 1,9,-1
 233 1260 l 1,10,-1
 516 1071 l 1,11,-1
 492 1413 l 1,12,-1
 635 1413 l 1,13,-1
 610 1071 l 1,14,-1
 893 1262 l 1,15,-1
 963 1139 l 1,16,-1
 655 987 l 1,17,-1
 961 840 l 1,0,-1
EndSplineSet
EndChar
StartChar: plus
Encoding: 43 43 683
Width: 1126
Flags: W
LayerCount: 2
Back
Fore
SplineSet
1042 469 m 1,0,-1
 649 469 l 1,1,-1
 649 61 l 1,2,-1
 477 61 l 1,3,-1
 477 469 l 1,4,-1
 84 469 l 1,5,-1
 84 621 l 1,6,-1
 477 621 l 1,7,-1
 477 1026 l 1,8,-1
 649 1026 l 1,9,-1
 649 621 l 1,10,-1
 1042 621 l 1,11,-1
 1042 469 l 1,0,-1
EndSplineSet
Substitution2: "'sups' Superscript lookup 34 subtable" uni207A
Substitution2: "'subs' Subscript lookup 22 subtable" uni208A
EndChar
StartChar: comma
Encoding: 44 44 345
Width: 1126
Flags: W
LayerCount: 2
Back
Fore
SplineSet
238 -205 m 1,0,1
 289 -207 289 -207 337 -196 c 128,-1,2
 385 -185 385 -185 421.5 -163.5 c 128,-1,3
 458 -142 458 -142 480 -110 c 128,-1,4
 502 -78 502 -78 502 -37 c 0,5,6
 502 5 502 5 487.5 31 c 128,-1,7
 473 57 473 57 455 79 c 128,-1,8
 437 101 437 101 422.5 126 c 128,-1,9
 408 151 408 151 408 193 c 0,10,11
 408 214 408 214 416 237 c 128,-1,12
 424 260 424 260 440.5 279 c 128,-1,13
 457 298 457 298 482.5 310 c 128,-1,14
 508 322 508 322 543 322 c 256,15,16
 578 322 578 322 610.5 307.5 c 128,-1,17
 643 293 643 293 667.5 263 c 128,-1,18
 692 233 692 233 706.5 188 c 128,-1,19
 721 143 721 143 721 82 c 0,20,21
 721 -1 721 -1 690.5 -77.5 c 128,-1,22
 660 -154 660 -154 599.5 -213 c 128,-1,23
 539 -272 539 -272 448.5 -307 c 128,-1,24
 358 -342 358 -342 238 -342 c 1,25,-1
 238 -205 l 1,0,1
EndSplineSet
EndChar
StartChar: hyphen
Encoding: 45 45 350
AltUni2: 0000ad.ffffffff.0 002010.ffffffff.0
Width: 1126
Flags: W
LayerCount: 2
Back
Fore
SplineSet
862 463 m 1,0,-1
 264 463 l 1,1,-1
 264 627 l 1,2,-1
 862 627 l 1,3,-1
 862 463 l 1,0,-1
EndSplineSet
Substitution2: "'case' Case-Sensitive Forms lookup 0 subtable" hyphen.case
EndChar
StartChar: period
Encoding: 46 46 348
Width: 1126
Flags: W
LayerCount: 2
Back
Fore
SplineSet
555 315 m 0,0,1
 589 315 589 315 619.5 302 c 128,-1,2
 650 289 650 289 672.5 266 c 128,-1,3
 695 243 695 243 708 212.5 c 128,-1,4
 721 182 721 182 721 147 c 0,5,6
 721 113 721 113 708 83 c 128,-1,7
 695 53 695 53 672.5 30.5 c 128,-1,8
 650 8 650 8 619.5 -5 c 128,-1,9
 589 -18 589 -18 555 -18 c 0,10,11
 520 -18 520 -18 490 -5 c 128,-1,12
 460 8 460 8 437.5 30.5 c 128,-1,13
 415 53 415 53 402 83 c 128,-1,14
 389 113 389 113 389 147 c 0,15,16
 389 182 389 182 402 212.5 c 128,-1,17
 415 243 415 243 437.5 266 c 128,-1,18
 460 289 460 289 490 302 c 128,-1,19
 520 315 520 315 555 315 c 0,0,1
EndSplineSet
EndChar
StartChar: slash
Encoding: 47 47 373
Width: 1126
Flags: W
LayerCount: 2
Back
Fore
SplineSet
967 1413 m 1,0,-1
 281 -215 l 1,1,-1
 115 -215 l 1,2,-1
 801 1413 l 1,3,-1
 967 1413 l 1,0,-1
EndSplineSet
Substitution2: "Single Substitution lookup 8 subtable" fraction
EndChar
StartChar: zero
Encoding: 48 48 613
Width: 1126
Flags: W
LayerCount: 2
Back
Fore
SplineSet
1038 653 m 0,0,1
 1038 503 1038 503 1008 379.5 c 128,-1,2
 978 256 978 256 917 167.5 c 128,-1,3
 856 79 856 79 765.5 30.5 c 128,-1,4
 675 -18 675 -18 553 -18 c 0,5,6
 448 -18 448 -18 362 21.5 c 128,-1,7
 276 61 276 61 215 143 c 128,-1,8
 154 225 154 225 121 352 c 128,-1,9
 88 479 88 479 88 653 c 0,10,11
 88 803 88 803 118.5 927 c 128,-1,12
 149 1051 149 1051 209.5 1139.5 c 128,-1,13
 270 1228 270 1228 361 1276.5 c 128,-1,14
 452 1325 452 1325 573 1325 c 0,15,16
 678 1325 678 1325 764 1285.5 c 128,-1,17
 850 1246 850 1246 911 1163.5 c 128,-1,18
 972 1081 972 1081 1005 954 c 128,-1,19
 1038 827 1038 827 1038 653 c 0,0,1
862 647 m 0,20,21
 862 681 862 681 859.5 714.5 c 128,-1,22
 857 748 857 748 854 780 c 1,23,-1
 301 369 l 1,24,25
 316 317 316 317 339 273 c 128,-1,26
 362 229 362 229 394.5 197.5 c 128,-1,27
 427 166 427 166 468.5 148.5 c 128,-1,28
 510 131 510 131 563 131 c 0,29,30
 631 131 631 131 686.5 164 c 128,-1,31
 742 197 742 197 781 262 c 128,-1,32
 820 327 820 327 841 423.5 c 128,-1,33
 862 520 862 520 862 647 c 0,20,21
264 659 m 0,34,35
 264 628 264 628 264.5 597 c 128,-1,36
 265 566 265 566 268 537 c 1,37,-1
 821 946 l 1,38,39
 806 997 806 997 783 1039 c 128,-1,40
 760 1081 760 1081 728 1111.5 c 128,-1,41
 696 1142 696 1142 655 1159 c 128,-1,42
 614 1176 614 1176 563 1176 c 0,43,44
 495 1176 495 1176 439.5 1143 c 128,-1,45
 384 1110 384 1110 345 1044.5 c 128,-1,46
 306 979 306 979 285 882.5 c 128,-1,47
 264 786 264 786 264 659 c 0,34,35
EndSplineSet
Substitution2: "'ss08' Style Set 8 lookup 33 subtable" zero.ss08
Substitution2: "'ss07' Style Set 7 lookup 32 subtable" zero.ss07
AlternateSubs2: "'salt' Stylistic Alternatives lookup 23 subtable" zero.ss07 zero.ss08
Substitution2: "'subs' Subscript lookup 22 subtable" uni2080
Substitution2: "'onum' Oldstyle Figures lookup 21 subtable" zero.oldstyle
Substitution2: "'numr' Numerators lookup 20 subtable" uni2070
Substitution2: "'dnom' Denominators lookup 6 subtable" zero.dnom
EndChar
StartChar: one
Encoding: 49 49 616
Width: 1126
Flags: W
LayerCount: 2
Back
Fore
SplineSet
997 0 m 1,0,-1
 176 0 l 1,1,-1
 176 162 l 1,2,-1
 512 162 l 1,3,-1
 512 1116 l 1,4,-1
 199 946 l 1,5,-1
 135 1094 l 1,6,-1
 551 1313 l 1,7,-1
 705 1313 l 1,8,-1
 705 162 l 1,9,-1
 997 162 l 1,10,-1
 997 0 l 1,0,-1
EndSplineSet
Substitution2: "'subs' Subscript lookup 22 subtable" uni2081
Substitution2: "'onum' Oldstyle Figures lookup 21 subtable" one.oldstyle
Substitution2: "'numr' Numerators lookup 20 subtable" uni00B9
Substitution2: "'dnom' Denominators lookup 6 subtable" one.dnom
EndChar
StartChar: two
Encoding: 50 50 617
Width: 1126
Flags: W
LayerCount: 2
Back
Fore
SplineSet
1008 0 m 1,0,-1
 147 0 l 1,1,-1
 147 156 l 1,2,-1
 485 492 l 2,3,4
 568 574 568 574 620 634 c 128,-1,5
 672 694 672 694 701 743.5 c 128,-1,6
 730 793 730 793 740 837 c 128,-1,7
 750 881 750 881 750 932 c 0,8,9
 750 980 750 980 737 1023.5 c 128,-1,10
 724 1067 724 1067 697 1100 c 128,-1,11
 670 1133 670 1133 627 1152 c 128,-1,12
 584 1171 584 1171 524 1171 c 0,13,14
 441 1171 441 1171 373 1134 c 128,-1,15
 305 1097 305 1097 248 1038 c 1,16,-1
 152 1153 l 1,17,18
 226 1231 226 1231 322.5 1278 c 128,-1,19
 419 1325 419 1325 547 1325 c 0,20,21
 634 1325 634 1325 705.5 1299 c 128,-1,22
 777 1273 777 1273 829 1224 c 128,-1,23
 881 1175 881 1175 909.5 1104 c 128,-1,24
 938 1033 938 1033 938 944 c 0,25,26
 938 869 938 869 918 805 c 128,-1,27
 898 741 898 741 857.5 677.5 c 128,-1,28
 817 614 817 614 755.5 546 c 128,-1,29
 694 478 694 478 610 397 c 2,30,-1
 373 166 l 1,31,-1
 1008 166 l 1,32,-1
 1008 0 l 1,0,-1
EndSplineSet
Substitution2: "'subs' Subscript lookup 22 subtable" uni2082
Substitution2: "'onum' Oldstyle Figures lookup 21 subtable" two.oldstyle
Substitution2: "'numr' Numerators lookup 20 subtable" uni00B2
Substitution2: "'dnom' Denominators lookup 6 subtable" two.dnom
EndChar
StartChar: three
Encoding: 51 51 618
Width: 1126
Flags: W
LayerCount: 2
Back
Fore
SplineSet
983 397 m 0,0,1
 983 311 983 311 948 235.5 c 128,-1,2
 913 160 913 160 843 103.5 c 128,-1,3
 773 47 773 47 667 14.5 c 128,-1,4
 561 -18 561 -18 420 -18 c 0,5,6
 342 -18 342 -18 280 -13 c 128,-1,7
 218 -8 218 -8 164 0 c 1,8,-1
 164 156 l 1,9,10
 226 145 226 145 295 139 c 128,-1,11
 364 133 364 133 436 133 c 0,12,13
 534 133 534 133 603.5 150.5 c 128,-1,14
 673 168 673 168 717 201 c 128,-1,15
 761 234 761 234 781 281 c 128,-1,16
 801 328 801 328 801 387 c 0,17,18
 801 441 801 441 777 481 c 128,-1,19
 753 521 753 521 709.5 548 c 128,-1,20
 666 575 666 575 605.5 588.5 c 128,-1,21
 545 602 545 602 473 602 c 2,22,-1
 324 602 l 1,23,-1
 324 745 l 1,24,-1
 475 745 l 2,25,26
 534 745 534 745 582.5 760.5 c 128,-1,27
 631 776 631 776 665.5 805 c 128,-1,28
 700 834 700 834 718.5 876.5 c 128,-1,29
 737 919 737 919 737 973 c 0,30,31
 737 1078 737 1078 673 1126 c 128,-1,32
 609 1174 609 1174 485 1174 c 0,33,34
 419 1174 419 1174 349 1161 c 128,-1,35
 279 1148 279 1148 199 1122 c 1,36,-1
 199 1274 l 1,37,38
 233 1286 233 1286 271.5 1295.5 c 128,-1,39
 310 1305 310 1305 348.5 1311.5 c 128,-1,40
 387 1318 387 1318 425 1321.5 c 128,-1,41
 463 1325 463 1325 498 1325 c 0,42,43
 602 1325 602 1325 681 1302.5 c 128,-1,44
 760 1280 760 1280 813 1238 c 128,-1,45
 866 1196 866 1196 893 1136 c 128,-1,46
 920 1076 920 1076 920 1001 c 0,47,48
 920 889 920 889 862.5 813 c 128,-1,49
 805 737 805 737 705 692 c 1,50,51
 756 684 756 684 805.5 660 c 128,-1,52
 855 636 855 636 894.5 598.5 c 128,-1,53
 934 561 934 561 958.5 510 c 128,-1,54
 983 459 983 459 983 397 c 0,0,1
EndSplineSet
Substitution2: "'subs' Subscript lookup 22 subtable" uni2083
Substitution2: "'onum' Oldstyle Figures lookup 21 subtable" three.oldstyle
Substitution2: "'numr' Numerators lookup 20 subtable" uni00B3
Substitution2: "'dnom' Denominators lookup 6 subtable" three.dnom
EndChar
StartChar: four
Encoding: 52 52 619
Width: 1126
Flags: W
LayerCount: 2
Back
Fore
SplineSet
1073 289 m 1,0,-1
 850 289 l 1,1,-1
 850 0 l 1,2,-1
 672 0 l 1,3,-1
 672 289 l 1,4,-1
 43 289 l 1,5,-1
 43 442 l 1,6,-1
 600 1307 l 1,7,-1
 850 1307 l 1,8,-1
 850 442 l 1,9,-1
 1073 442 l 1,10,-1
 1073 289 l 1,0,-1
672 1139 m 1,11,-1
 217 442 l 1,12,-1
 672 442 l 1,13,-1
 672 1139 l 1,11,-1
EndSplineSet
Substitution2: "'subs' Subscript lookup 22 subtable" uni2084
Substitution2: "'onum' Oldstyle Figures lookup 21 subtable" four.oldstyle
Substitution2: "'numr' Numerators lookup 20 subtable" uni2074
Substitution2: "'dnom' Denominators lookup 6 subtable" four.dnom
EndChar
StartChar: five
Encoding: 53 53 620
Width: 1126
Flags: W
LayerCount: 2
Back
Fore
SplineSet
975 418 m 0,0,1
 975 321 975 321 933 241 c 128,-1,2
 891 161 891 161 817.5 103.5 c 128,-1,3
 744 46 744 46 644 14 c 128,-1,4
 544 -18 544 -18 428 -18 c 0,5,6
 399 -18 399 -18 365.5 -16.5 c 128,-1,7
 332 -15 332 -15 299 -12.5 c 128,-1,8
 266 -10 266 -10 234.5 -7 c 128,-1,9
 203 -4 203 -4 178 0 c 1,10,-1
 178 158 l 1,11,12
 232 145 232 145 301.5 139 c 128,-1,13
 371 133 371 133 442 133 c 0,14,15
 522 133 522 133 586 152 c 128,-1,16
 650 171 650 171 695 206.5 c 128,-1,17
 740 242 740 242 764 292.5 c 128,-1,18
 788 343 788 343 788 406 c 0,19,20
 788 528 788 528 700.5 583.5 c 128,-1,21
 613 639 613 639 449 639 c 2,22,-1
 201 639 l 1,23,-1
 201 1307 l 1,24,-1
 905 1307 l 1,25,-1
 905 1155 l 1,26,-1
 365 1155 l 1,27,-1
 365 788 l 1,28,-1
 479 788 l 2,29,30
 573 788 573 788 662 771 c 128,-1,31
 751 754 751 754 820.5 711.5 c 128,-1,32
 890 669 890 669 932.5 597.5 c 128,-1,33
 975 526 975 526 975 418 c 0,0,1
EndSplineSet
Substitution2: "'subs' Subscript lookup 22 subtable" uni2085
Substitution2: "'onum' Oldstyle Figures lookup 21 subtable" five.oldstyle
Substitution2: "'numr' Numerators lookup 20 subtable" uni2075
Substitution2: "'dnom' Denominators lookup 6 subtable" five.dnom
EndChar
StartChar: six
Encoding: 54 54 621
Width: 1126
Flags: W
LayerCount: 2
Back
Fore
SplineSet
1024 414 m 0,0,1
 1024 324 1024 324 991.5 245 c 128,-1,2
 959 166 959 166 899 107.5 c 128,-1,3
 839 49 839 49 754.5 15.5 c 128,-1,4
 670 -18 670 -18 567 -18 c 0,5,6
 459 -18 459 -18 376 16.5 c 128,-1,7
 293 51 293 51 237 122.5 c 128,-1,8
 181 194 181 194 152 303 c 128,-1,9
 123 412 123 412 123 561 c 0,10,11
 123 661 123 661 136 755 c 128,-1,12
 149 849 149 849 179 932 c 128,-1,13
 209 1015 209 1015 259 1084 c 128,-1,14
 309 1153 309 1153 383.5 1202.5 c 128,-1,15
 458 1252 458 1252 559 1279.5 c 128,-1,16
 660 1307 660 1307 793 1307 c 2,17,-1
 922 1307 l 1,18,-1
 922 1155 l 1,19,-1
 782 1155 l 2,20,21
 665 1155 665 1155 579 1127 c 128,-1,22
 493 1099 493 1099 435 1048 c 128,-1,23
 377 997 377 997 346 925 c 128,-1,24
 315 853 315 853 307 764 c 2,25,-1
 303 723 l 1,26,27
 366 760 366 760 448.5 782.5 c 128,-1,28
 531 805 531 805 627 805 c 0,29,30
 726 805 726 805 800.5 776 c 128,-1,31
 875 747 875 747 924.5 695.5 c 128,-1,32
 974 644 974 644 999 572 c 128,-1,33
 1024 500 1024 500 1024 414 c 0,0,1
842 403 m 0,34,35
 842 463 842 463 827.5 511.5 c 128,-1,36
 813 560 813 560 782 593.5 c 128,-1,37
 751 627 751 627 703.5 645.5 c 128,-1,38
 656 664 656 664 590 664 c 0,39,40
 552 664 552 664 513 657 c 128,-1,41
 474 650 474 650 436.5 637.5 c 128,-1,42
 399 625 399 625 365 609 c 128,-1,43
 331 593 331 593 303 575 c 1,44,45
 303 446 303 446 321 359.5 c 128,-1,46
 339 273 339 273 374.5 221 c 128,-1,47
 410 169 410 169 462 147 c 128,-1,48
 514 125 514 125 582 125 c 0,49,50
 639 125 639 125 686.5 143.5 c 128,-1,51
 734 162 734 162 768.5 198 c 128,-1,52
 803 234 803 234 822.5 285.5 c 128,-1,53
 842 337 842 337 842 403 c 0,34,35
EndSplineSet
Substitution2: "'subs' Subscript lookup 22 subtable" uni2086
Substitution2: "'onum' Oldstyle Figures lookup 21 subtable" six.oldstyle
Substitution2: "'numr' Numerators lookup 20 subtable" uni2076
Substitution2: "'dnom' Denominators lookup 6 subtable" six.dnom
EndChar
StartChar: seven
Encoding: 55 55 622
Width: 1126
Flags: W
LayerCount: 2
Back
Fore
SplineSet
1001 1145 m 1,0,-1
 453 0 l 1,1,-1
 254 0 l 1,2,-1
 823 1145 l 1,3,-1
 117 1145 l 1,4,-1
 117 1307 l 1,5,-1
 1001 1307 l 1,6,-1
 1001 1145 l 1,0,-1
EndSplineSet
Substitution2: "'subs' Subscript lookup 22 subtable" uni2087
Substitution2: "'onum' Oldstyle Figures lookup 21 subtable" seven.oldstyle
Substitution2: "'numr' Numerators lookup 20 subtable" uni2077
Substitution2: "'dnom' Denominators lookup 6 subtable" seven.dnom
EndChar
StartChar: eight
Encoding: 56 56 623
Width: 1126
Flags: W
LayerCount: 2
Back
Fore
SplineSet
1008 328 m 0,0,1
 1008 245 1008 245 974 180.5 c 128,-1,2
 940 116 940 116 879 72 c 128,-1,3
 818 28 818 28 735 5 c 128,-1,4
 652 -18 652 -18 555 -18 c 0,5,6
 448 -18 448 -18 366.5 6 c 128,-1,7
 285 30 285 30 230 73 c 128,-1,8
 175 116 175 116 147 175 c 128,-1,9
 119 234 119 234 119 305 c 0,10,11
 119 425 119 425 186 512 c 128,-1,12
 253 599 253 599 393 670 c 1,13,14
 265 735 265 735 206 814.5 c 128,-1,15
 147 894 147 894 147 997 c 0,16,17
 147 1060 147 1060 173 1119 c 128,-1,18
 199 1178 199 1178 251.5 1224 c 128,-1,19
 304 1270 304 1270 383 1297.5 c 128,-1,20
 462 1325 462 1325 569 1325 c 0,21,22
 670 1325 670 1325 746.5 1303.5 c 128,-1,23
 823 1282 823 1282 875 1242 c 128,-1,24
 927 1202 927 1202 953 1145 c 128,-1,25
 979 1088 979 1088 979 1018 c 0,26,27
 979 904 979 904 915.5 824 c 128,-1,28
 852 744 852 744 735 684 c 1,29,30
 793 655 793 655 843 620 c 128,-1,31
 893 585 893 585 930 542 c 128,-1,32
 967 499 967 499 987.5 446 c 128,-1,33
 1008 393 1008 393 1008 328 c 0,0,1
801 1004 m 0,34,35
 801 1093 801 1093 738.5 1136.5 c 128,-1,36
 676 1180 676 1180 563 1180 c 0,37,38
 451 1180 451 1180 388.5 1137 c 128,-1,39
 326 1094 326 1094 326 1008 c 0,40,41
 326 969 326 969 341 936 c 128,-1,42
 356 903 356 903 387.5 874 c 128,-1,43
 419 845 419 845 466 817 c 128,-1,44
 513 789 513 789 578 760 c 1,45,46
 691 813 691 813 746 870.5 c 128,-1,47
 801 928 801 928 801 1004 c 0,34,35
819 315 m 0,48,49
 819 352 819 352 807 387 c 128,-1,50
 795 422 795 422 764 456 c 128,-1,51
 733 490 733 490 681 524 c 128,-1,52
 629 558 629 558 549 594 c 1,53,54
 481 561 481 561 434.5 528.5 c 128,-1,55
 388 496 388 496 359.5 462.5 c 128,-1,56
 331 429 331 429 319 393 c 128,-1,57
 307 357 307 357 307 317 c 0,58,59
 307 272 307 272 326.5 237.5 c 128,-1,60
 346 203 346 203 380 179 c 128,-1,61
 414 155 414 155 461 143 c 128,-1,62
 508 131 508 131 563 131 c 0,63,64
 616 131 616 131 663 142 c 128,-1,65
 710 153 710 153 744.5 175.5 c 128,-1,66
 779 198 779 198 799 232.5 c 128,-1,67
 819 267 819 267 819 315 c 0,48,49
EndSplineSet
Substitution2: "'subs' Subscript lookup 22 subtable" uni2088
Substitution2: "'onum' Oldstyle Figures lookup 21 subtable" eight.oldstyle
Substitution2: "'numr' Numerators lookup 20 subtable" uni2078
Substitution2: "'dnom' Denominators lookup 6 subtable" eight.dnom
EndChar
StartChar: nine
Encoding: 57 57 624
Width: 1126
Flags: W
LayerCount: 2
Back
Fore
SplineSet
1001 727 m 0,0,1
 1001 536 1001 536 955 398.5 c 128,-1,2
 909 261 909 261 819 172.5 c 128,-1,3
 729 84 729 84 596 42 c 128,-1,4
 463 0 463 0 289 0 c 2,5,-1
 180 0 l 1,6,-1
 180 152 l 1,7,-1
 301 152 l 2,8,9
 430 152 430 152 524 178 c 128,-1,10
 618 204 618 204 680.5 254.5 c 128,-1,11
 743 305 743 305 776 377.5 c 128,-1,12
 809 450 809 450 817 543 c 2,13,-1
 821 584 l 1,14,15
 758 547 758 547 676 524.5 c 128,-1,16
 594 502 594 502 498 502 c 0,17,18
 399 502 399 502 324 531 c 128,-1,19
 249 560 249 560 199.5 612 c 128,-1,20
 150 664 150 664 125 735.5 c 128,-1,21
 100 807 100 807 100 891 c 0,22,23
 100 982 100 982 133 1061 c 128,-1,24
 166 1140 166 1140 225.5 1198.5 c 128,-1,25
 285 1257 285 1257 368 1291 c 128,-1,26
 451 1325 451 1325 551 1325 c 0,27,28
 648 1325 648 1325 730.5 1293 c 128,-1,29
 813 1261 813 1261 873 1189.5 c 128,-1,30
 933 1118 933 1118 967 1004 c 128,-1,31
 1001 890 1001 890 1001 727 c 0,0,1
543 1182 m 0,32,33
 487 1182 487 1182 439.5 1163.5 c 128,-1,34
 392 1145 392 1145 357.5 1109.5 c 128,-1,35
 323 1074 323 1074 303 1022 c 128,-1,36
 283 970 283 970 283 903 c 0,37,38
 283 842 283 842 297.5 794 c 128,-1,39
 312 746 312 746 342.5 712.5 c 128,-1,40
 373 679 373 679 421 661 c 128,-1,41
 469 643 469 643 535 643 c 0,42,43
 572 643 572 643 611.5 650 c 128,-1,44
 651 657 651 657 688.5 669 c 128,-1,45
 726 681 726 681 760 697 c 128,-1,46
 794 713 794 713 821 731 c 1,47,48
 821 860 821 860 802 946.5 c 128,-1,49
 783 1033 783 1033 747 1085.5 c 128,-1,50
 711 1138 711 1138 659.5 1160 c 128,-1,51
 608 1182 608 1182 543 1182 c 0,32,33
EndSplineSet
Substitution2: "'subs' Subscript lookup 22 subtable" uni2089
Substitution2: "'onum' Oldstyle Figures lookup 21 subtable" nine.oldstyle
Substitution2: "'numr' Numerators lookup 20 subtable" uni2079
Substitution2: "'dnom' Denominators lookup 6 subtable" nine.dnom
EndChar
StartChar: colon
Encoding: 58 58 347
Width: 1126
Flags: W
LayerCount: 2
Back
Fore
SplineSet
563 1022 m 0,0,1
 594 1022 594 1022 622 1009.5 c 128,-1,2
 650 997 650 997 671 976 c 128,-1,3
 692 955 692 955 704.5 927 c 128,-1,4
 717 899 717 899 717 868 c 0,5,6
 717 836 717 836 704.5 808.5 c 128,-1,7
 692 781 692 781 671 760 c 128,-1,8
 650 739 650 739 622 727 c 128,-1,9
 594 715 594 715 563 715 c 0,10,11
 531 715 531 715 503.5 727 c 128,-1,12
 476 739 476 739 455 760 c 128,-1,13
 434 781 434 781 422 808.5 c 128,-1,14
 410 836 410 836 410 868 c 0,15,16
 410 899 410 899 422 927 c 128,-1,17
 434 955 434 955 455 976 c 128,-1,18
 476 997 476 997 503.5 1009.5 c 128,-1,19
 531 1022 531 1022 563 1022 c 0,0,1
563 289 m 0,20,21
 594 289 594 289 622 276.5 c 128,-1,22
 650 264 650 264 671 243 c 128,-1,23
 692 222 692 222 704.5 194 c 128,-1,24
 717 166 717 166 717 135 c 0,25,26
 717 103 717 103 704.5 75.5 c 128,-1,27
 692 48 692 48 671 27 c 128,-1,28
 650 6 650 6 622 -6 c 128,-1,29
 594 -18 594 -18 563 -18 c 0,30,31
 531 -18 531 -18 503.5 -6 c 128,-1,32
 476 6 476 6 455 27 c 128,-1,33
 434 48 434 48 422 75.5 c 128,-1,34
 410 103 410 103 410 135 c 0,35,36
 410 166 410 166 422 194 c 128,-1,37
 434 222 434 222 455 243 c 128,-1,38
 476 264 476 264 503.5 276.5 c 128,-1,39
 531 289 531 289 563 289 c 0,20,21
EndSplineSet
EndChar
StartChar: semicolon
Encoding: 59 59 346
Width: 1126
Flags: W
LayerCount: 2
Back
Fore
SplineSet
250 -205 m 1,0,1
 301 -207 301 -207 349 -196 c 128,-1,2
 397 -185 397 -185 433.5 -163.5 c 128,-1,3
 470 -142 470 -142 492 -110 c 128,-1,4
 514 -78 514 -78 514 -37 c 0,5,6
 514 5 514 5 499.5 31 c 128,-1,7
 485 57 485 57 467 79 c 128,-1,8
 449 101 449 101 434.5 126 c 128,-1,9
 420 151 420 151 420 193 c 0,10,11
 420 214 420 214 428 237 c 128,-1,12
 436 260 436 260 452.5 279 c 128,-1,13
 469 298 469 298 494.5 310 c 128,-1,14
 520 322 520 322 555 322 c 256,15,16
 590 322 590 322 622.5 307.5 c 128,-1,17
 655 293 655 293 679.5 263 c 128,-1,18
 704 233 704 233 718.5 188 c 128,-1,19
 733 143 733 143 733 82 c 0,20,21
 733 -1 733 -1 702.5 -77.5 c 128,-1,22
 672 -154 672 -154 611.5 -213 c 128,-1,23
 551 -272 551 -272 460.5 -307 c 128,-1,24
 370 -342 370 -342 250 -342 c 1,25,-1
 250 -205 l 1,0,1
563 1022 m 0,26,27
 594 1022 594 1022 622 1009.5 c 128,-1,28
 650 997 650 997 671 976 c 128,-1,29
 692 955 692 955 704.5 927 c 128,-1,30
 717 899 717 899 717 868 c 0,31,32
 717 836 717 836 704.5 808.5 c 128,-1,33
 692 781 692 781 671 760 c 128,-1,34
 650 739 650 739 622 727 c 128,-1,35
 594 715 594 715 563 715 c 0,36,37
 531 715 531 715 503.5 727 c 128,-1,38
 476 739 476 739 455 760 c 128,-1,39
 434 781 434 781 422 808.5 c 128,-1,40
 410 836 410 836 410 868 c 0,41,42
 410 899 410 899 422 927 c 128,-1,43
 434 955 434 955 455 976 c 128,-1,44
 476 997 476 997 503.5 1009.5 c 128,-1,45
 531 1022 531 1022 563 1022 c 0,26,27
EndSplineSet
EndChar
StartChar: less
Encoding: 60 60 691
Width: 1126
Flags: W
LayerCount: 2
Back
Fore
SplineSet
918 94 m 1,0,-1
 809 -16 l 1,1,-1
 137 545 l 1,2,-1
 809 1106 l 1,3,-1
 918 995 l 1,4,-1
 373 547 l 1,5,-1
 918 94 l 1,0,-1
EndSplineSet
EndChar
StartChar: equal
Encoding: 61 61 688
Width: 1126
Flags: W
LayerCount: 2
Back
Fore
SplineSet
993 646 m 1,0,-1
 133 646 l 1,1,-1
 133 793 l 1,2,-1
 993 793 l 1,3,-1
 993 646 l 1,0,-1
993 298 m 1,4,-1
 133 298 l 1,5,-1
 133 445 l 1,6,-1
 993 445 l 1,7,-1
 993 298 l 1,4,-1
EndSplineSet
Substitution2: "'sups' Superscript lookup 34 subtable" uni207C
Substitution2: "'subs' Subscript lookup 22 subtable" uni208C
EndChar
StartChar: greater
Encoding: 62 62 692
Width: 1126
Flags: W
LayerCount: 2
Back
Fore
SplineSet
209 995 m 1,0,-1
 317 1106 l 1,1,-1
 989 545 l 1,2,-1
 317 -16 l 1,3,-1
 209 94 l 1,4,-1
 754 543 l 1,5,-1
 209 995 l 1,0,-1
EndSplineSet
EndChar
StartChar: question
Encoding: 63 63 355
Width: 1126
Flags: W
LayerCount: 2
Back
Fore
SplineSet
922 969 m 0,0,1
 922 807 922 807 832 723.5 c 128,-1,2
 742 640 742 640 571 629 c 1,3,-1
 563 383 l 1,4,-1
 414 383 l 1,5,-1
 401 766 l 1,6,-1
 518 766 l 2,7,8
 579 766 579 766 620 779 c 128,-1,9
 661 792 661 792 686 816 c 128,-1,10
 711 840 711 840 722 874.5 c 128,-1,11
 733 909 733 909 733 952 c 0,12,13
 733 1025 733 1025 703 1082 c 128,-1,14
 673 1139 673 1139 619 1178 c 128,-1,15
 565 1217 565 1217 490.5 1237 c 128,-1,16
 416 1257 416 1257 328 1257 c 2,17,-1
 303 1257 l 1,18,-1
 303 1413 l 1,19,-1
 330 1413 l 2,20,21
 431 1413 431 1413 514.5 1394 c 128,-1,22
 598 1375 598 1375 663.5 1342.5 c 128,-1,23
 729 1310 729 1310 777.5 1266 c 128,-1,24
 826 1222 826 1222 858.5 1173 c 128,-1,25
 891 1124 891 1124 906.5 1071.5 c 128,-1,26
 922 1019 922 1019 922 969 c 0,0,1
487 246 m 0,27,28
 515 246 515 246 539 235.5 c 128,-1,29
 563 225 563 225 580.5 207 c 128,-1,30
 598 189 598 189 608 164.5 c 128,-1,31
 618 140 618 140 618 113 c 256,32,33
 618 86 618 86 608 62 c 128,-1,34
 598 38 598 38 580.5 20.5 c 128,-1,35
 563 3 563 3 539 -7.5 c 128,-1,36
 515 -18 515 -18 487 -18 c 0,37,38
 460 -18 460 -18 436 -7.5 c 128,-1,39
 412 3 412 3 394 20.5 c 128,-1,40
 376 38 376 38 366 62 c 128,-1,41
 356 86 356 86 356 113 c 256,42,43
 356 140 356 140 366 164.5 c 128,-1,44
 376 189 376 189 394 207 c 128,-1,45
 412 225 412 225 436 235.5 c 128,-1,46
 460 246 460 246 487 246 c 0,27,28
EndSplineSet
EndChar
StartChar: at
Encoding: 64 64 594
Width: 1126
Flags: W
LayerCount: 2
Back
Fore
SplineSet
780 408 m 2,0,1
 771 344 771 344 770 302 c 128,-1,2
 769 260 769 260 775.5 236 c 128,-1,3
 782 212 782 212 796 202.5 c 128,-1,4
 810 193 810 193 831 193 c 0,5,6
 859 193 859 193 884 222.5 c 128,-1,7
 909 252 909 252 928.5 313.5 c 128,-1,8
 948 375 948 375 959.5 469 c 128,-1,9
 971 563 971 563 971 692 c 0,10,11
 971 836 971 836 953 949 c 128,-1,12
 935 1062 935 1062 896 1141 c 128,-1,13
 857 1220 857 1220 794.5 1261.5 c 128,-1,14
 732 1303 732 1303 643 1303 c 0,15,16
 575 1303 575 1303 511.5 1268.5 c 128,-1,17
 448 1234 448 1234 393.5 1171.5 c 128,-1,18
 339 1109 339 1109 294.5 1021.5 c 128,-1,19
 250 934 250 934 218.5 828 c 128,-1,20
 187 722 187 722 169.5 600 c 128,-1,21
 152 478 152 478 152 346 c 0,22,23
 152 24 152 24 249 -134.5 c 128,-1,24
 346 -293 346 -293 522 -293 c 0,25,26
 611 -293 611 -293 688 -272.5 c 128,-1,27
 765 -252 765 -252 848 -211 c 1,28,-1
 848 -340 l 1,29,30
 766 -378 766 -378 684 -397 c 128,-1,31
 602 -416 602 -416 512 -416 c 0,32,33
 257 -416 257 -416 134.5 -225 c 128,-1,34
 12 -34 12 -34 10 344 c 0,35,36
 9 495 9 495 30 633.5 c 128,-1,37
 51 772 51 772 90.5 892 c 128,-1,38
 130 1012 130 1012 186.5 1110.5 c 128,-1,39
 243 1209 243 1209 314.5 1278.5 c 128,-1,40
 386 1348 386 1348 470 1386.5 c 128,-1,41
 554 1425 554 1425 649 1425 c 0,42,43
 768 1425 768 1425 855.5 1376.5 c 128,-1,44
 943 1328 943 1328 1000 1236.5 c 128,-1,45
 1057 1145 1057 1145 1084.5 1012 c 128,-1,46
 1112 879 1112 879 1112 709 c 0,47,48
 1111 537 1111 537 1089.5 414.5 c 128,-1,49
 1068 292 1068 292 1029 214 c 128,-1,50
 990 136 990 136 934.5 99.5 c 128,-1,51
 879 63 879 63 811 63 c 0,52,53
 733 63 733 63 695 103 c 128,-1,54
 657 143 657 143 657 211 c 1,55,56
 619 134 619 134 575 98.5 c 128,-1,57
 531 63 531 63 469 63 c 0,58,59
 375 63 375 63 328 133.5 c 128,-1,60
 281 204 281 204 281 356 c 0,61,62
 281 411 281 411 287.5 474 c 128,-1,63
 294 537 294 537 309.5 600.5 c 128,-1,64
 325 664 325 664 350 722.5 c 128,-1,65
 375 781 375 781 411.5 825.5 c 128,-1,66
 448 870 448 870 498 897 c 128,-1,67
 548 924 548 924 612 924 c 0,68,69
 650 924 650 924 683 915 c 128,-1,70
 716 906 716 906 731 897 c 1,71,-1
 860 928 l 1,72,-1
 780 408 l 2,0,1
678 764 m 1,73,74
 669 776 669 776 650.5 785.5 c 128,-1,75
 632 795 632 795 604 795 c 0,76,77
 574 795 574 795 550 774 c 128,-1,78
 526 753 526 753 507.5 718 c 128,-1,79
 489 683 489 683 476.5 638.5 c 128,-1,80
 464 594 464 594 455.5 547 c 128,-1,81
 447 500 447 500 443.5 454.5 c 128,-1,82
 440 409 440 409 440 373 c 0,83,84
 440 277 440 277 452 235 c 128,-1,85
 464 193 464 193 498 193 c 0,86,87
 510 193 510 193 522 198 c 128,-1,88
 534 203 534 203 547.5 217.5 c 128,-1,89
 561 232 561 232 577 258 c 128,-1,90
 593 284 593 284 612 326 c 1,91,-1
 678 764 l 1,73,74
EndSplineSet
Substitution2: "'case' Case-Sensitive Forms lookup 0 subtable" at.case
EndChar
StartChar: A
Encoding: 65 65 4
Width: 1126
GlyphClass: 2
Flags: W
AnchorPoint: "Anchor-11" 0 1700 basechar 0
AnchorPoint: "Anchor-10" 1126 1700 basechar 0
AnchorPoint: "Anchor-9" 1045 0 basechar 0
AnchorPoint: "Anchor-8" 563 -50 basechar 0
AnchorPoint: "Anchor-7" 600 1300 basechar 0
AnchorPoint: "Anchor-6" 1126 -350 basechar 0
AnchorPoint: "Anchor-5" 1126 1700 basechar 0
AnchorPoint: "Anchor-4" 640 1300 basechar 0
AnchorPoint: "Anchor-2" 563 -180 basechar 0
AnchorPoint: "Anchor-1" 916 1390 basechar 0
AnchorPoint: "Anchor-0" 563 1430 basechar 0
LayerCount: 2
Back
Fore
SplineSet
1116 0 m 1,0,-1
 922 0 l 1,1,-1
 831 285 l 1,2,-1
 287 285 l 1,3,-1
 195 0 l 1,4,-1
 10 0 l 1,5,-1
 444 1307 l 1,6,-1
 688 1307 l 1,7,-1
 1116 0 l 1,0,-1
780 444 m 1,8,-1
 559 1143 l 1,9,-1
 338 444 l 1,10,-1
 780 444 l 1,8,-1
EndSplineSet
Substitution2: "'sups' Superscript lookup 34 subtable" A.superior
EndChar
StartChar: B
Encoding: 66 66 5
Width: 1126
GlyphClass: 2
Flags: W
AnchorPoint: "Anchor-11" 0 1700 basechar 0
AnchorPoint: "Anchor-10" 1126 1700 basechar 0
AnchorPoint: "Anchor-9" 660 25 basechar 0
AnchorPoint: "Anchor-7" 770 1250 basechar 0
AnchorPoint: "Anchor-6" 1126 -350 basechar 0
AnchorPoint: "Anchor-5" 1126 1700 basechar 0
AnchorPoint: "Anchor-4" 850 1230 basechar 0
AnchorPoint: "Anchor-2" 563 -180 basechar 0
AnchorPoint: "Anchor-1" 996 1390 basechar 0
AnchorPoint: "Anchor-0" 563 1430 basechar 0
LayerCount: 2
Back
Fore
SplineSet
1016 391 m 0,0,1
 1016 297 1016 297 979.5 224.5 c 128,-1,2
 943 152 943 152 875.5 102 c 128,-1,3
 808 52 808 52 712.5 26 c 128,-1,4
 617 0 617 0 500 0 c 2,5,-1
 158 0 l 1,6,-1
 158 1307 l 1,7,-1
 532 1307 l 2,8,9
 969 1307 969 1307 969 989 c 0,10,11
 969 883 969 883 918.5 807 c 128,-1,12
 868 731 868 731 754 694 c 1,13,14
 807 684 807 684 854.5 660 c 128,-1,15
 902 636 902 636 938 598 c 128,-1,16
 974 560 974 560 995 508 c 128,-1,17
 1016 456 1016 456 1016 391 c 0,0,1
784 965 m 0,18,19
 784 1005 784 1005 772 1040.5 c 128,-1,20
 760 1076 760 1076 730 1101.5 c 128,-1,21
 700 1127 700 1127 649 1142 c 128,-1,22
 598 1157 598 1157 520 1157 c 2,23,-1
 336 1157 l 1,24,-1
 336 748 l 1,25,-1
 514 748 l 2,26,27
 575 748 575 748 624.5 761 c 128,-1,28
 674 774 674 774 709.5 801 c 128,-1,29
 745 828 745 828 764.5 868.5 c 128,-1,30
 784 909 784 909 784 965 c 0,18,19
827 385 m 0,31,32
 827 435 827 435 806 475 c 128,-1,33
 785 515 785 515 745 542.5 c 128,-1,34
 705 570 705 570 647.5 585 c 128,-1,35
 590 600 590 600 518 600 c 2,36,-1
 336 600 l 1,37,-1
 336 150 l 1,38,-1
 524 150 l 2,39,40
 677 150 677 150 752 207 c 128,-1,41
 827 264 827 264 827 385 c 0,31,32
EndSplineSet
Substitution2: "'sups' Superscript lookup 34 subtable" B.superior
EndChar
StartChar: C
Encoding: 67 67 6
Width: 1126
GlyphClass: 2
Flags: W
AnchorPoint: "Anchor-11" 0 1700 basechar 0
AnchorPoint: "Anchor-10" 1126 1700 basechar 0
AnchorPoint: "Anchor-9" 730 0 basechar 0
AnchorPoint: "Anchor-8" 640 0 basechar 0
AnchorPoint: "Anchor-7" 900 1250 basechar 0
AnchorPoint: "Anchor-6" 1126 -350 basechar 0
AnchorPoint: "Anchor-5" 1126 1700 basechar 0
AnchorPoint: "Anchor-4" 900 1270 basechar 0
AnchorPoint: "Anchor-2" 623 -180 basechar 0
AnchorPoint: "Anchor-1" 1045 1390 basechar 0
AnchorPoint: "Anchor-0" 623 1430 basechar 0
LayerCount: 2
Back
Fore
SplineSet
995 49 m 1,0,1
 838 -16 838 -16 666 -16 c 0,2,3
 389 -16 389 -16 240.5 149.5 c 128,-1,4
 92 315 92 315 92 639 c 0,5,6
 92 796 92 796 133 923 c 128,-1,7
 174 1050 174 1050 250 1138.5 c 128,-1,8
 326 1227 326 1227 434 1275 c 128,-1,9
 542 1323 542 1323 676 1323 c 0,10,11
 767 1323 767 1323 845 1307.5 c 128,-1,12
 923 1292 923 1292 995 1260 c 1,13,-1
 995 1085 l 1,14,15
 924 1124 924 1124 848 1144.5 c 128,-1,16
 772 1165 772 1165 682 1165 c 0,17,18
 590 1165 590 1165 515.5 1130.5 c 128,-1,19
 441 1096 441 1096 389 1030.5 c 128,-1,20
 337 965 337 965 309 870.5 c 128,-1,21
 281 776 281 776 281 655 c 0,22,23
 281 401 281 401 384 272 c 128,-1,24
 487 143 487 143 686 143 c 0,25,26
 770 143 770 143 847 162.5 c 128,-1,27
 924 182 924 182 995 217 c 1,28,-1
 995 49 l 1,0,1
EndSplineSet
Substitution2: "'sups' Superscript lookup 34 subtable" C.superior
EndChar
StartChar: D
Encoding: 68 68 7
Width: 1126
GlyphClass: 2
Flags: W
AnchorPoint: "Anchor-11" 0 1700 basechar 0
AnchorPoint: "Anchor-10" 1126 1700 basechar 0
AnchorPoint: "Anchor-9" 570 25 basechar 0
AnchorPoint: "Anchor-7" 770 1230 basechar 0
AnchorPoint: "Anchor-6" 1126 -350 basechar 0
AnchorPoint: "Anchor-5" 1126 1700 basechar 0
AnchorPoint: "Anchor-4" 880 1170 basechar 0
AnchorPoint: "Anchor-2" 523 -180 basechar 0
AnchorPoint: "Anchor-1" 1003 1390 basechar 0
AnchorPoint: "Anchor-0" 523 1430 basechar 0
LayerCount: 2
Back
Fore
SplineSet
1053 668 m 0,0,1
 1053 574 1053 574 1038.5 488 c 128,-1,2
 1024 402 1024 402 992 328 c 128,-1,3
 960 254 960 254 909 193.5 c 128,-1,4
 858 133 858 133 784 90 c 128,-1,5
 710 47 710 47 612 23.5 c 128,-1,6
 514 0 514 0 389 0 c 2,7,-1
 109 0 l 1,8,-1
 109 1307 l 1,9,-1
 446 1307 l 2,10,11
 752 1307 752 1307 902.5 1149.5 c 128,-1,12
 1053 992 1053 992 1053 668 c 0,0,1
866 655 m 0,13,14
 866 794 866 794 840 890 c 128,-1,15
 814 986 814 986 761 1045 c 128,-1,16
 708 1104 708 1104 628 1130.5 c 128,-1,17
 548 1157 548 1157 440 1157 c 2,18,-1
 287 1157 l 1,19,-1
 287 154 l 1,20,-1
 420 154 l 2,21,22
 866 154 866 154 866 655 c 0,13,14
EndSplineSet
Substitution2: "'sups' Superscript lookup 34 subtable" D.superior
EndChar
StartChar: E
Encoding: 69 69 8
Width: 1126
GlyphClass: 2
Flags: W
AnchorPoint: "Anchor-11" 0 1700 basechar 0
AnchorPoint: "Anchor-10" 1126 1700 basechar 0
AnchorPoint: "Anchor-9" 870 0 basechar 0
AnchorPoint: "Anchor-8" 563 0 basechar 0
AnchorPoint: "Anchor-7" 840 1300 basechar 0
AnchorPoint: "Anchor-6" 1126 -350 basechar 0
AnchorPoint: "Anchor-5" 1126 1700 basechar 0
AnchorPoint: "Anchor-4" 850 1300 basechar 0
AnchorPoint: "Anchor-2" 563 -180 basechar 0
AnchorPoint: "Anchor-1" 994 1390 basechar 0
AnchorPoint: "Anchor-0" 563 1430 basechar 0
LayerCount: 2
Back
Fore
SplineSet
944 0 m 1,0,-1
 201 0 l 1,1,-1
 201 1307 l 1,2,-1
 944 1307 l 1,3,-1
 944 1157 l 1,4,-1
 379 1157 l 1,5,-1
 379 752 l 1,6,-1
 922 752 l 1,7,-1
 922 602 l 1,8,-1
 379 602 l 1,9,-1
 379 152 l 1,10,-1
 944 152 l 1,11,-1
 944 0 l 1,0,-1
EndSplineSet
Substitution2: "'sups' Superscript lookup 34 subtable" E.superior
EndChar
StartChar: F
Encoding: 70 70 9
Width: 1126
GlyphClass: 2
Flags: W
AnchorPoint: "Anchor-11" 0 1700 basechar 0
AnchorPoint: "Anchor-10" 1126 1700 basechar 0
AnchorPoint: "Anchor-9" 320 0 basechar 0
AnchorPoint: "Anchor-7" 840 1300 basechar 0
AnchorPoint: "Anchor-6" 1126 -350 basechar 0
AnchorPoint: "Anchor-5" 1126 1700 basechar 0
AnchorPoint: "Anchor-4" 850 1300 basechar 0
AnchorPoint: "Anchor-2" 563 -180 basechar 0
AnchorPoint: "Anchor-1" 992 1390 basechar 0
AnchorPoint: "Anchor-0" 563 1430 basechar 0
LayerCount: 2
Back
Fore
SplineSet
942 1155 m 1,0,-1
 387 1155 l 1,1,-1
 387 731 l 1,2,-1
 913 731 l 1,3,-1
 913 582 l 1,4,-1
 387 582 l 1,5,-1
 387 0 l 1,6,-1
 205 0 l 1,7,-1
 205 1307 l 1,8,-1
 942 1307 l 1,9,-1
 942 1155 l 1,0,-1
EndSplineSet
Substitution2: "'sups' Superscript lookup 34 subtable" F.superior
EndChar
StartChar: G
Encoding: 71 71 10
Width: 1126
GlyphClass: 2
Flags: W
AnchorPoint: "Anchor-11" 0 1700 basechar 0
AnchorPoint: "Anchor-10" 1126 1700 basechar 0
AnchorPoint: "Anchor-9" 750 0 basechar 0
AnchorPoint: "Anchor-8" 640 0 basechar 0
AnchorPoint: "Anchor-7" 900 1250 basechar 0
AnchorPoint: "Anchor-6" 1126 -350 basechar 0
AnchorPoint: "Anchor-5" 1126 1700 basechar 0
AnchorPoint: "Anchor-4" 900 1270 basechar 0
AnchorPoint: "Anchor-2" 623 -180 basechar 0
AnchorPoint: "Anchor-1" 1062 1390 basechar 0
AnchorPoint: "Anchor-0" 623 1430 basechar 0
LayerCount: 2
Back
Fore
SplineSet
1006 1083 m 1,0,1
 933 1122 933 1122 856 1143.5 c 128,-1,2
 779 1165 779 1165 688 1165 c 0,3,4
 584 1165 584 1165 503 1128 c 128,-1,5
 422 1091 422 1091 366.5 1023.5 c 128,-1,6
 311 956 311 956 281.5 861 c 128,-1,7
 252 766 252 766 252 651 c 0,8,9
 252 531 252 531 276 436 c 128,-1,10
 300 341 300 341 351 275 c 128,-1,11
 402 209 402 209 481.5 174 c 128,-1,12
 561 139 561 139 672 139 c 0,13,14
 691 139 691 139 713 141 c 128,-1,15
 735 143 735 143 757 146.5 c 128,-1,16
 779 150 779 150 799.5 155 c 128,-1,17
 820 160 820 160 836 166 c 1,18,-1
 836 582 l 1,19,-1
 569 582 l 1,20,-1
 569 729 l 1,21,-1
 1012 729 l 1,22,-1
 1012 61 l 1,23,24
 971 42 971 42 925.5 27 c 128,-1,25
 880 12 880 12 832.5 2 c 128,-1,26
 785 -8 785 -8 738 -13 c 128,-1,27
 691 -18 691 -18 647 -18 c 0,28,29
 513 -18 513 -18 405.5 24 c 128,-1,30
 298 66 298 66 222.5 148.5 c 128,-1,31
 147 231 147 231 106.5 354 c 128,-1,32
 66 477 66 477 66 639 c 0,33,34
 66 800 66 800 111 927.5 c 128,-1,35
 156 1055 156 1055 237.5 1143.5 c 128,-1,36
 319 1232 319 1232 433.5 1278.5 c 128,-1,37
 548 1325 548 1325 686 1325 c 0,38,39
 774 1325 774 1325 853.5 1309.5 c 128,-1,40
 933 1294 933 1294 1006 1260 c 1,41,-1
 1006 1083 l 1,0,1
EndSplineSet
Substitution2: "'sups' Superscript lookup 34 subtable" G.superior
EndChar
StartChar: H
Encoding: 72 72 11
Width: 1126
GlyphClass: 2
Flags: W
AnchorPoint: "Anchor-11" 0 1700 basechar 0
AnchorPoint: "Anchor-10" 1126 1700 basechar 0
AnchorPoint: "Anchor-9" 950 0 basechar 0
AnchorPoint: "Anchor-7" 940 1300 basechar 0
AnchorPoint: "Anchor-6" 1126 -350 basechar 0
AnchorPoint: "Anchor-5" 1126 1700 basechar 0
AnchorPoint: "Anchor-4" 920 1300 basechar 0
AnchorPoint: "Anchor-2" 563 -180 basechar 0
AnchorPoint: "Anchor-1" 1066 1390 basechar 0
AnchorPoint: "Anchor-0" 563 1430 basechar 0
LayerCount: 2
Back
Fore
SplineSet
1016 0 m 1,0,-1
 838 0 l 1,1,-1
 838 600 l 1,2,-1
 289 600 l 1,3,-1
 289 0 l 1,4,-1
 111 0 l 1,5,-1
 111 1307 l 1,6,-1
 289 1307 l 1,7,-1
 289 754 l 1,8,-1
 838 754 l 1,9,-1
 838 1307 l 1,10,-1
 1016 1307 l 1,11,-1
 1016 0 l 1,0,-1
EndSplineSet
Substitution2: "'sups' Superscript lookup 34 subtable" H.superior
EndChar
StartChar: I
Encoding: 73 73 12
Width: 1126
GlyphClass: 2
Flags: W
AnchorPoint: "Anchor-11" 0 1700 basechar 0
AnchorPoint: "Anchor-10" 1126 1700 basechar 0
AnchorPoint: "Anchor-9" 890 0 basechar 0
AnchorPoint: "Anchor-8" 563 0 basechar 0
AnchorPoint: "Anchor-7" 840 1300 basechar 0
AnchorPoint: "Anchor-6" 1126 -350 basechar 0
AnchorPoint: "Anchor-5" 1126 1700 basechar 0
AnchorPoint: "Anchor-4" 860 1300 basechar 0
AnchorPoint: "Anchor-2" 563 -180 basechar 0
AnchorPoint: "Anchor-1" 1004 1390 basechar 0
AnchorPoint: "Anchor-0" 563 1430 basechar 0
LayerCount: 2
Back
Fore
SplineSet
473 1157 m 1,0,-1
 172 1157 l 1,1,-1
 172 1307 l 1,2,-1
 954 1307 l 1,3,-1
 954 1157 l 1,4,-1
 653 1157 l 1,5,-1
 653 152 l 1,6,-1
 954 152 l 1,7,-1
 954 0 l 1,8,-1
 172 0 l 1,9,-1
 172 152 l 1,10,-1
 473 152 l 1,11,-1
 473 1157 l 1,0,-1
EndSplineSet
Substitution2: "'sups' Superscript lookup 34 subtable" I.superior
EndChar
StartChar: J
Encoding: 74 74 13
Width: 1126
GlyphClass: 2
Flags: W
AnchorPoint: "Anchor-11" 0 1700 basechar 0
AnchorPoint: "Anchor-10" 1126 1700 basechar 0
AnchorPoint: "Anchor-9" 550 0 basechar 0
AnchorPoint: "Anchor-7" 790 1300 basechar 0
AnchorPoint: "Anchor-6" 1126 -350 basechar 0
AnchorPoint: "Anchor-5" 1126 1700 basechar 0
AnchorPoint: "Anchor-4" 780 1300 basechar 0
AnchorPoint: "Anchor-2" 563 -180 basechar 0
AnchorPoint: "Anchor-1" 927 1390 basechar 0
AnchorPoint: "Anchor-0" 563 1430 basechar 0
LayerCount: 2
Back
Fore
SplineSet
190 77 m 1,0,-1
 190 280 l 1,1,2
 268 210 268 210 351.5 175.5 c 128,-1,3
 435 141 435 141 524 141 c 0,4,5
 647 141 647 141 695.5 205 c 128,-1,6
 744 269 744 269 744 443 c 2,7,-1
 744 1161 l 1,8,-1
 417 1161 l 1,9,-1
 417 1307 l 1,10,-1
 917 1307 l 1,11,-1
 917 443 l 2,12,13
 917 201 917 201 826.5 100.5 c 128,-1,14
 736 0 736 0 524 0 c 0,15,16
 442 0 442 0 360 19 c 128,-1,17
 278 38 278 38 190 77 c 1,0,-1
EndSplineSet
Substitution2: "'sups' Superscript lookup 34 subtable" J.superior
EndChar
StartChar: K
Encoding: 75 75 14
Width: 1126
GlyphClass: 2
Flags: W
AnchorPoint: "Anchor-11" 0 1700 basechar 0
AnchorPoint: "Anchor-10" 1126 1700 basechar 0
AnchorPoint: "Anchor-9" 980 0 basechar 0
AnchorPoint: "Anchor-8" 563 -50 basechar 0
AnchorPoint: "Anchor-7" 840 1300 basechar 0
AnchorPoint: "Anchor-6" 1126 -350 basechar 0
AnchorPoint: "Anchor-5" 1126 1700 basechar 0
AnchorPoint: "Anchor-4" 830 1300 basechar 0
AnchorPoint: "Anchor-2" 563 -180 basechar 0
AnchorPoint: "Anchor-1" 1077 1390 basechar 0
AnchorPoint: "Anchor-0" 563 1430 basechar 0
LayerCount: 2
Back
Fore
SplineSet
1047 0 m 1,0,-1
 823 0 l 1,1,-1
 334 641 l 1,2,-1
 334 0 l 1,3,-1
 156 0 l 1,4,-1
 156 1307 l 1,5,-1
 334 1307 l 1,6,-1
 334 700 l 1,7,-1
 813 1307 l 1,8,-1
 1024 1307 l 1,9,-1
 508 686 l 1,10,-1
 1047 0 l 1,0,-1
EndSplineSet
Substitution2: "'sups' Superscript lookup 34 subtable" K.superior
EndChar
StartChar: L
Encoding: 76 76 15
Width: 1126
GlyphClass: 2
Flags: W
AnchorPoint: "Anchor-11" 0 1700 basechar 0
AnchorPoint: "Anchor-10" 1126 1700 basechar 0
AnchorPoint: "Anchor-9" 920 0 basechar 0
AnchorPoint: "Anchor-8" 640 0 basechar 0
AnchorPoint: "Anchor-7" 320 1300 basechar 0
AnchorPoint: "Anchor-6" 1126 -350 basechar 0
AnchorPoint: "Anchor-5" 1126 1700 basechar 0
AnchorPoint: "Anchor-4" 320 1300 basechar 0
AnchorPoint: "Anchor-2" 563 -180 basechar 0
AnchorPoint: "Anchor-1" 985 1390 basechar 0
AnchorPoint: "Anchor-0" 563 1430 basechar 0
LayerCount: 2
Back
Fore
SplineSet
985 0 m 1,0,-1
 233 0 l 1,1,-1
 233 1307 l 1,2,-1
 414 1307 l 1,3,-1
 414 152 l 1,4,-1
 985 152 l 1,5,-1
 985 0 l 1,0,-1
EndSplineSet
Substitution2: "'sups' Superscript lookup 34 subtable" L.superior
EndChar
StartChar: M
Encoding: 77 77 16
Width: 1126
GlyphClass: 2
Flags: W
AnchorPoint: "Anchor-11" 0 1700 basechar 0
AnchorPoint: "Anchor-10" 1126 1700 basechar 0
AnchorPoint: "Anchor-9" 1010 0 basechar 0
AnchorPoint: "Anchor-7" 940 1300 basechar 0
AnchorPoint: "Anchor-6" 1126 -350 basechar 0
AnchorPoint: "Anchor-5" 1126 1700 basechar 0
AnchorPoint: "Anchor-4" 925 1300 basechar 0
AnchorPoint: "Anchor-2" 563 -180 basechar 0
AnchorPoint: "Anchor-1" 1077 1390 basechar 0
AnchorPoint: "Anchor-0" 563 1430 basechar 0
LayerCount: 2
Back
Fore
SplineSet
1077 0 m 1,0,-1
 903 0 l 1,1,-1
 877 815 l 1,2,-1
 866 1128 l 1,3,-1
 805 946 l 1,4,-1
 612 426 l 1,5,-1
 489 426 l 1,6,-1
 305 926 l 1,7,-1
 244 1128 l 1,8,-1
 240 801 l 1,9,-1
 217 0 l 1,10,-1
 49 0 l 1,11,-1
 113 1307 l 1,12,-1
 324 1307 l 1,13,-1
 500 815 l 1,14,-1
 557 649 l 1,15,-1
 612 815 l 1,16,-1
 797 1307 l 1,17,-1
 1014 1307 l 1,18,-1
 1077 0 l 1,0,-1
EndSplineSet
Substitution2: "'sups' Superscript lookup 34 subtable" M.superior
EndChar
StartChar: N
Encoding: 78 78 17
Width: 1126
GlyphClass: 2
Flags: W
AnchorPoint: "Anchor-11" 0 1700 basechar 0
AnchorPoint: "Anchor-10" 1126 1700 basechar 0
AnchorPoint: "Anchor-9" 940 0 basechar 0
AnchorPoint: "Anchor-8" 563 -50 basechar 0
AnchorPoint: "Anchor-7" 930 1300 basechar 0
AnchorPoint: "Anchor-6" 1126 -350 basechar 0
AnchorPoint: "Anchor-5" 1126 1700 basechar 0
AnchorPoint: "Anchor-4" 910 1300 basechar 0
AnchorPoint: "Anchor-2" 563 -180 basechar 0
AnchorPoint: "Anchor-1" 1058 1390 basechar 0
AnchorPoint: "Anchor-0" 563 1430 basechar 0
LayerCount: 2
Back
Fore
SplineSet
1008 0 m 1,0,-1
 776 0 l 1,1,-1
 395 815 l 1,2,-1
 285 1077 l 1,3,-1
 285 418 l 1,4,-1
 285 0 l 1,5,-1
 119 0 l 1,6,-1
 119 1307 l 1,7,-1
 348 1307 l 1,8,-1
 711 535 l 1,9,-1
 842 236 l 1,10,-1
 842 936 l 1,11,-1
 842 1307 l 1,12,-1
 1008 1307 l 1,13,-1
 1008 0 l 1,0,-1
EndSplineSet
Substitution2: "'sups' Superscript lookup 34 subtable" N.superior
EndChar
StartChar: O
Encoding: 79 79 18
Width: 1126
GlyphClass: 2
Flags: W
AnchorPoint: "Anchor-11" 0 1700 basechar 0
AnchorPoint: "Anchor-10" 1126 1700 basechar 0
AnchorPoint: "Anchor-9" 650 0 basechar 0
AnchorPoint: "Anchor-8" 563 0 basechar 0
AnchorPoint: "Anchor-7" 880 1170 basechar 0
AnchorPoint: "Anchor-6" 1126 -350 basechar 0
AnchorPoint: "Anchor-5" 1126 1700 basechar 0
AnchorPoint: "Anchor-4" 905 1170 basechar 0
AnchorPoint: "Anchor-2" 563 -180 basechar 0
AnchorPoint: "Anchor-1" 1026 1390 basechar 0
AnchorPoint: "Anchor-0" 563 1430 basechar 0
LayerCount: 2
Back
Fore
SplineSet
1071 662 m 0,0,1
 1071 486 1071 486 1029.5 358 c 128,-1,2
 988 230 988 230 917.5 146.5 c 128,-1,3
 847 63 847 63 752.5 22.5 c 128,-1,4
 658 -18 658 -18 553 -18 c 0,5,6
 427 -18 427 -18 333.5 27.5 c 128,-1,7
 240 73 240 73 178.5 159 c 128,-1,8
 117 245 117 245 87 368.5 c 128,-1,9
 57 492 57 492 57 647 c 0,10,11
 57 821 57 821 98 949 c 128,-1,12
 139 1077 139 1077 209.5 1160.5 c 128,-1,13
 280 1244 280 1244 374 1284.5 c 128,-1,14
 468 1325 468 1325 573 1325 c 0,15,16
 699 1325 699 1325 792.5 1279 c 128,-1,17
 886 1233 886 1233 948 1147.5 c 128,-1,18
 1010 1062 1010 1062 1040.5 939 c 128,-1,19
 1071 816 1071 816 1071 662 c 0,0,1
886 649 m 0,20,21
 886 764 886 764 868.5 859.5 c 128,-1,22
 851 955 851 955 812 1024 c 128,-1,23
 773 1093 773 1093 711.5 1131 c 128,-1,24
 650 1169 650 1169 563 1169 c 0,25,26
 479 1169 479 1169 418.5 1128.5 c 128,-1,27
 358 1088 358 1088 319 1018.5 c 128,-1,28
 280 949 280 949 261 855.5 c 128,-1,29
 242 762 242 762 242 657 c 0,30,31
 242 541 242 541 260 445.5 c 128,-1,32
 278 350 278 350 316.5 281.5 c 128,-1,33
 355 213 355 213 416 175 c 128,-1,34
 477 137 477 137 563 137 c 0,35,36
 647 137 647 137 708 177.5 c 128,-1,37
 769 218 769 218 808.5 287.5 c 128,-1,38
 848 357 848 357 867 450 c 128,-1,39
 886 543 886 543 886 649 c 0,20,21
EndSplineSet
Substitution2: "'sups' Superscript lookup 34 subtable" O.superior
EndChar
StartChar: P
Encoding: 80 80 19
Width: 1126
GlyphClass: 2
Flags: W
AnchorPoint: "Anchor-11" 0 1700 basechar 0
AnchorPoint: "Anchor-10" 1126 1700 basechar 0
AnchorPoint: "Anchor-9" 270 0 basechar 0
AnchorPoint: "Anchor-7" 770 1250 basechar 0
AnchorPoint: "Anchor-6" 1126 -350 basechar 0
AnchorPoint: "Anchor-5" 1126 1700 basechar 0
AnchorPoint: "Anchor-4" 880 1210 basechar 0
AnchorPoint: "Anchor-2" 563 -180 basechar 0
AnchorPoint: "Anchor-1" 1016 1390 basechar 0
AnchorPoint: "Anchor-0" 563 1430 basechar 0
LayerCount: 2
Back
Fore
SplineSet
1016 907 m 0,0,1
 1016 827 1016 827 986 748.5 c 128,-1,2
 956 670 956 670 893 608 c 128,-1,3
 830 546 830 546 732 507.5 c 128,-1,4
 634 469 634 469 498 469 c 2,5,-1
 336 469 l 1,6,-1
 336 0 l 1,7,-1
 158 0 l 1,8,-1
 158 1307 l 1,9,-1
 526 1307 l 2,10,11
 623 1307 623 1307 712 1285.5 c 128,-1,12
 801 1264 801 1264 868.5 1216 c 128,-1,13
 936 1168 936 1168 976 1092 c 128,-1,14
 1016 1016 1016 1016 1016 907 c 0,0,1
831 899 m 0,15,16
 831 1025 831 1025 748.5 1092 c 128,-1,17
 666 1159 666 1159 518 1159 c 2,18,-1
 336 1159 l 1,19,-1
 336 621 l 1,20,-1
 502 621 l 2,21,22
 660 621 660 621 745.5 690 c 128,-1,23
 831 759 831 759 831 899 c 0,15,16
EndSplineSet
Substitution2: "'sups' Superscript lookup 34 subtable" P.superior
EndChar
StartChar: Q
Encoding: 81 81 20
Width: 1126
GlyphClass: 2
Flags: W
AnchorPoint: "Anchor-11" 0 1700 basechar 0
AnchorPoint: "Anchor-10" 1126 1700 basechar 0
AnchorPoint: "Anchor-9" 700 -300 basechar 0
AnchorPoint: "Anchor-7" 880 1170 basechar 0
AnchorPoint: "Anchor-6" 1126 -350 basechar 0
AnchorPoint: "Anchor-5" 1126 1700 basechar 0
AnchorPoint: "Anchor-4" 905 1170 basechar 0
AnchorPoint: "Anchor-2" 563 -500 basechar 0
AnchorPoint: "Anchor-1" 1026 1390 basechar 0
AnchorPoint: "Anchor-0" 563 1430 basechar 0
LayerCount: 2
Back
Fore
SplineSet
467 -12 m 1,0,1
 363 3 363 3 286 54 c 128,-1,2
 209 105 209 105 158 188.5 c 128,-1,3
 107 272 107 272 82 385.5 c 128,-1,4
 57 499 57 499 57 637 c 0,5,6
 57 815 57 815 98 945 c 128,-1,7
 139 1075 139 1075 209.5 1159.5 c 128,-1,8
 280 1244 280 1244 374 1284.5 c 128,-1,9
 468 1325 468 1325 573 1325 c 0,10,11
 699 1325 699 1325 792.5 1279.5 c 128,-1,12
 886 1234 886 1234 948 1148.5 c 128,-1,13
 1010 1063 1010 1063 1040.5 941.5 c 128,-1,14
 1071 820 1071 820 1071 668 c 0,15,16
 1071 508 1071 508 1037 387.5 c 128,-1,17
 1003 267 1003 267 944 183 c 128,-1,18
 885 99 885 99 805 51 c 128,-1,19
 725 3 725 3 633 -12 c 1,20,21
 648 -100 648 -100 703 -153.5 c 128,-1,22
 758 -207 758 -207 858 -207 c 0,23,24
 906 -207 906 -207 952.5 -191 c 128,-1,25
 999 -175 999 -175 1047 -137 c 1,26,-1
 1126 -260 l 1,27,28
 1060 -314 1060 -314 990 -337 c 128,-1,29
 920 -360 920 -360 846 -360 c 0,30,31
 766 -360 766 -360 699 -338 c 128,-1,32
 632 -316 632 -316 582.5 -272.5 c 128,-1,33
 533 -229 533 -229 503 -163.5 c 128,-1,34
 473 -98 473 -98 467 -12 c 1,0,1
886 647 m 0,35,36
 886 763 886 763 868.5 858.5 c 128,-1,37
 851 954 851 954 812 1022.5 c 128,-1,38
 773 1091 773 1091 711.5 1129 c 128,-1,39
 650 1167 650 1167 563 1167 c 0,40,41
 479 1167 479 1167 418.5 1127 c 128,-1,42
 358 1087 358 1087 319 1018.5 c 128,-1,43
 280 950 280 950 261 858.5 c 128,-1,44
 242 767 242 767 242 664 c 0,45,46
 242 545 242 545 260 448.5 c 128,-1,47
 278 352 278 352 316.5 283 c 128,-1,48
 355 214 355 214 416 176.5 c 128,-1,49
 477 139 477 139 563 139 c 0,50,51
 647 139 647 139 708 179 c 128,-1,52
 769 219 769 219 808.5 288 c 128,-1,53
 848 357 848 357 867 449.5 c 128,-1,54
 886 542 886 542 886 647 c 0,35,36
EndSplineSet
Substitution2: "'sups' Superscript lookup 34 subtable" Q.superior
EndChar
StartChar: R
Encoding: 82 82 21
Width: 1126
GlyphClass: 2
Flags: W
AnchorPoint: "Anchor-11" 0 1700 basechar 0
AnchorPoint: "Anchor-10" 1126 1700 basechar 0
AnchorPoint: "Anchor-9" 990 0 basechar 0
AnchorPoint: "Anchor-8" 563 -50 basechar 0
AnchorPoint: "Anchor-7" 770 1250 basechar 0
AnchorPoint: "Anchor-6" 1126 -350 basechar 0
AnchorPoint: "Anchor-5" 1126 1700 basechar 0
AnchorPoint: "Anchor-4" 830 1210 basechar 0
AnchorPoint: "Anchor-2" 563 -180 basechar 0
AnchorPoint: "Anchor-1" 951 1390 basechar 0
AnchorPoint: "Anchor-0" 523 1430 basechar 0
LayerCount: 2
Back
Fore
SplineSet
1051 0 m 1,0,-1
 850 0 l 1,1,-1
 655 418 l 2,2,3
 633 466 633 466 610 497.5 c 128,-1,4
 587 529 587 529 560.5 547.5 c 128,-1,5
 534 566 534 566 502.5 574 c 128,-1,6
 471 582 471 582 432 582 c 2,7,-1
 348 582 l 1,8,-1
 348 0 l 1,9,-1
 170 0 l 1,10,-1
 170 1307 l 1,11,-1
 520 1307 l 2,12,13
 634 1307 634 1307 716 1282 c 128,-1,14
 798 1257 798 1257 850.5 1212 c 128,-1,15
 903 1167 903 1167 927.5 1103.5 c 128,-1,16
 952 1040 952 1040 952 963 c 0,17,18
 952 902 952 902 934 847.5 c 128,-1,19
 916 793 916 793 880.5 748.5 c 128,-1,20
 845 704 845 704 792.5 671.5 c 128,-1,21
 740 639 740 639 672 623 c 1,22,23
 727 604 727 604 765.5 556.5 c 128,-1,24
 804 509 804 509 844 430 c 2,25,-1
 1051 0 l 1,0,-1
766 948 m 0,26,27
 766 1053 766 1053 700.5 1105 c 128,-1,28
 635 1157 635 1157 516 1157 c 2,29,-1
 348 1157 l 1,30,-1
 348 725 l 1,31,-1
 492 725 l 2,32,33
 555 725 555 725 605.5 739.5 c 128,-1,34
 656 754 656 754 691.5 782.5 c 128,-1,35
 727 811 727 811 746.5 852.5 c 128,-1,36
 766 894 766 894 766 948 c 0,26,27
EndSplineSet
Substitution2: "'sups' Superscript lookup 34 subtable" R.superior
EndChar
StartChar: S
Encoding: 83 83 22
Width: 1126
GlyphClass: 2
Flags: W
AnchorPoint: "Anchor-11" 0 1700 basechar 0
AnchorPoint: "Anchor-10" 1126 1700 basechar 0
AnchorPoint: "Anchor-9" 630 0 basechar 0
AnchorPoint: "Anchor-8" 563 0 basechar 0
AnchorPoint: "Anchor-7" 840 1275 basechar 0
AnchorPoint: "Anchor-6" 1126 -350 basechar 0
AnchorPoint: "Anchor-5" 1126 1700 basechar 0
AnchorPoint: "Anchor-4" 820 1280 basechar 0
AnchorPoint: "Anchor-2" 563 -180 basechar 0
AnchorPoint: "Anchor-1" 967 1390 basechar 0
AnchorPoint: "Anchor-0" 563 1430 basechar 0
LayerCount: 2
Back
Fore
SplineSet
997 354 m 0,0,1
 997 261 997 261 959 191 c 128,-1,2
 921 121 921 121 853 74.5 c 128,-1,3
 785 28 785 28 689.5 5 c 128,-1,4
 594 -18 594 -18 479 -18 c 0,5,6
 427 -18 427 -18 375.5 -14 c 128,-1,7
 324 -10 324 -10 276.5 -4 c 128,-1,8
 229 2 229 2 187 10 c 128,-1,9
 145 18 145 18 111 27 c 1,10,-1
 111 199 l 1,11,12
 186 171 186 171 279.5 155 c 128,-1,13
 373 139 373 139 492 139 c 0,14,15
 578 139 578 139 638.5 152.5 c 128,-1,16
 699 166 699 166 737.5 192.5 c 128,-1,17
 776 219 776 219 793.5 257 c 128,-1,18
 811 295 811 295 811 344 c 0,19,20
 811 397 811 397 781.5 434.5 c 128,-1,21
 752 472 752 472 704 501.5 c 128,-1,22
 656 531 656 531 594.5 555.5 c 128,-1,23
 533 580 533 580 469 606 c 128,-1,24
 405 632 405 632 343.5 662.5 c 128,-1,25
 282 693 282 693 234 734.5 c 128,-1,26
 186 776 186 776 156.5 832 c 128,-1,27
 127 888 127 888 127 965 c 0,28,29
 127 1032 127 1032 155 1097 c 128,-1,30
 183 1162 183 1162 242 1212.5 c 128,-1,31
 301 1263 301 1263 393.5 1294 c 128,-1,32
 486 1325 486 1325 614 1325 c 0,33,34
 647 1325 647 1325 685.5 1322 c 128,-1,35
 724 1319 724 1319 763.5 1313.5 c 128,-1,36
 803 1308 803 1308 841.5 1301 c 128,-1,37
 880 1294 880 1294 913 1286 c 1,38,-1
 913 1126 l 1,39,40
 836 1148 836 1148 759 1159.5 c 128,-1,41
 682 1171 682 1171 610 1171 c 0,42,43
 457 1171 457 1171 385 1120 c 128,-1,44
 313 1069 313 1069 313 983 c 0,45,46
 313 930 313 930 342.5 892 c 128,-1,47
 372 854 372 854 420 824 c 128,-1,48
 468 794 468 794 529.5 769.5 c 128,-1,49
 591 745 591 745 655 719 c 128,-1,50
 719 693 719 693 780.5 662 c 128,-1,51
 842 631 842 631 890 588.5 c 128,-1,52
 938 546 938 546 967.5 489 c 128,-1,53
 997 432 997 432 997 354 c 0,0,1
EndSplineSet
Substitution2: "'sups' Superscript lookup 34 subtable" S.superior
EndChar
StartChar: T
Encoding: 84 84 23
Width: 1126
GlyphClass: 2
Flags: W
AnchorPoint: "Anchor-11" 0 1700 basechar 0
AnchorPoint: "Anchor-10" 1126 1700 basechar 0
AnchorPoint: "Anchor-9" 580 0 basechar 0
AnchorPoint: "Anchor-8" 563 0 basechar 0
AnchorPoint: "Anchor-7" 900 1300 basechar 0
AnchorPoint: "Anchor-6" 1126 -350 basechar 0
AnchorPoint: "Anchor-5" 1126 1700 basechar 0
AnchorPoint: "Anchor-4" 945 1300 basechar 0
AnchorPoint: "Anchor-2" 563 -180 basechar 0
AnchorPoint: "Anchor-1" 1090 1390 basechar 0
AnchorPoint: "Anchor-0" 563 1430 basechar 0
LayerCount: 2
Back
Fore
SplineSet
1040 1155 m 1,0,-1
 653 1155 l 1,1,-1
 653 0 l 1,2,-1
 473 0 l 1,3,-1
 473 1155 l 1,4,-1
 86 1155 l 1,5,-1
 86 1307 l 1,6,-1
 1040 1307 l 1,7,-1
 1040 1155 l 1,0,-1
EndSplineSet
Substitution2: "'sups' Superscript lookup 34 subtable" T.superior
EndChar
StartChar: U
Encoding: 85 85 24
Width: 1126
GlyphClass: 2
Flags: W
AnchorPoint: "Anchor-11" 0 1700 basechar 0
AnchorPoint: "Anchor-10" 1126 1700 basechar 0
AnchorPoint: "Anchor-9" 670 0 basechar 0
AnchorPoint: "Anchor-8" 563 0 basechar 0
AnchorPoint: "Anchor-7" 930 1300 basechar 0
AnchorPoint: "Anchor-6" 1126 -350 basechar 0
AnchorPoint: "Anchor-5" 1126 1700 basechar 0
AnchorPoint: "Anchor-4" 920 1300 basechar 0
AnchorPoint: "Anchor-2" 563 -180 basechar 0
AnchorPoint: "Anchor-1" 1068 1390 basechar 0
AnchorPoint: "Anchor-0" 563 1430 basechar 0
LayerCount: 2
Back
Fore
SplineSet
1018 455 m 2,0,1
 1018 347 1018 347 987.5 259.5 c 128,-1,2
 957 172 957 172 898 110.5 c 128,-1,3
 839 49 839 49 753.5 15.5 c 128,-1,4
 668 -18 668 -18 557 -18 c 0,5,6
 435 -18 435 -18 350 14 c 128,-1,7
 265 46 265 46 211.5 104.5 c 128,-1,8
 158 163 158 163 133.5 245 c 128,-1,9
 109 327 109 327 109 428 c 2,10,-1
 109 1307 l 1,11,-1
 287 1307 l 1,12,-1
 287 442 l 2,13,14
 287 365 287 365 301.5 307 c 128,-1,15
 316 249 316 249 349 210 c 128,-1,16
 382 171 382 171 434.5 151 c 128,-1,17
 487 131 487 131 563 131 c 0,18,19
 705 131 705 131 772.5 213 c 128,-1,20
 840 295 840 295 840 444 c 2,21,-1
 840 1307 l 1,22,-1
 1018 1307 l 1,23,-1
 1018 455 l 2,0,1
EndSplineSet
Substitution2: "'sups' Superscript lookup 34 subtable" U.superior
EndChar
StartChar: V
Encoding: 86 86 25
Width: 1126
GlyphClass: 2
Flags: W
AnchorPoint: "Anchor-11" 0 1700 basechar 0
AnchorPoint: "Anchor-10" 1126 1700 basechar 0
AnchorPoint: "Anchor-9" 610 0 basechar 0
AnchorPoint: "Anchor-7" 990 1300 basechar 0
AnchorPoint: "Anchor-6" 1126 -350 basechar 0
AnchorPoint: "Anchor-5" 1126 1700 basechar 0
AnchorPoint: "Anchor-4" 985 1300 basechar 0
AnchorPoint: "Anchor-2" 563 -180 basechar 0
AnchorPoint: "Anchor-1" 1172 1390 basechar 0
AnchorPoint: "Anchor-0" 563 1430 basechar 0
LayerCount: 2
Back
Fore
SplineSet
1122 1307 m 1,0,-1
 678 0 l 1,1,-1
 438 0 l 1,2,-1
 4 1307 l 1,3,-1
 205 1307 l 1,4,-1
 487 426 l 1,5,-1
 567 168 l 1,6,-1
 649 426 l 1,7,-1
 932 1307 l 1,8,-1
 1122 1307 l 1,0,-1
EndSplineSet
Substitution2: "'sups' Superscript lookup 34 subtable" V.superior
EndChar
StartChar: W
Encoding: 87 87 26
Width: 1126
GlyphClass: 2
Flags: W
AnchorPoint: "Anchor-11" 0 1700 basechar 0
AnchorPoint: "Anchor-10" 1126 1700 basechar 0
AnchorPoint: "Anchor-9" 920 0 basechar 0
AnchorPoint: "Anchor-7" 990 1300 basechar 0
AnchorPoint: "Anchor-6" 1126 -350 basechar 0
AnchorPoint: "Anchor-5" 1126 1700 basechar 0
AnchorPoint: "Anchor-4" 970 1300 basechar 0
AnchorPoint: "Anchor-2" 563 -180 basechar 0
AnchorPoint: "Anchor-1" 1131 1390 basechar 0
AnchorPoint: "Anchor-0" 563 1430 basechar 0
LayerCount: 2
Back
Fore
SplineSet
1081 1307 m 1,0,-1
 993 0 l 1,1,-1
 762 0 l 1,2,-1
 600 465 l 1,3,-1
 555 614 l 1,4,-1
 508 453 l 1,5,-1
 358 0 l 1,6,-1
 135 0 l 1,7,-1
 45 1307 l 1,8,-1
 213 1307 l 1,9,-1
 264 418 l 1,10,-1
 279 174 l 1,11,-1
 342 381 l 1,12,-1
 500 866 l 1,13,-1
 623 866 l 1,14,-1
 805 346 l 1,15,-1
 866 174 l 1,16,-1
 870 354 l 1,17,-1
 922 1307 l 1,18,-1
 1081 1307 l 1,0,-1
EndSplineSet
Substitution2: "'sups' Superscript lookup 34 subtable" W.superior
EndChar
StartChar: X
Encoding: 88 88 27
Width: 1126
GlyphClass: 2
Flags: W
AnchorPoint: "Anchor-11" 0 1700 basechar 0
AnchorPoint: "Anchor-10" 1126 1700 basechar 0
AnchorPoint: "Anchor-9" 1030 0 basechar 0
AnchorPoint: "Anchor-7" 900 1300 basechar 0
AnchorPoint: "Anchor-6" 1126 -350 basechar 0
AnchorPoint: "Anchor-5" 1126 1700 basechar 0
AnchorPoint: "Anchor-4" 900 1300 basechar 0
AnchorPoint: "Anchor-2" 563 -180 basechar 0
AnchorPoint: "Anchor-1" 1122 1390 basechar 0
AnchorPoint: "Anchor-0" 563 1430 basechar 0
LayerCount: 2
Back
Fore
SplineSet
1102 0 m 1,0,-1
 877 0 l 1,1,-1
 559 528 l 1,2,-1
 240 0 l 1,3,-1
 18 0 l 1,4,-1
 453 668 l 1,5,-1
 53 1307 l 1,6,-1
 264 1307 l 1,7,-1
 563 815 l 1,8,-1
 864 1307 l 1,9,-1
 1069 1307 l 1,10,-1
 668 676 l 1,11,-1
 1102 0 l 1,0,-1
EndSplineSet
Substitution2: "'sups' Superscript lookup 34 subtable" X.superior
EndChar
StartChar: Y
Encoding: 89 89 28
Width: 1126
GlyphClass: 2
Flags: W
AnchorPoint: "Anchor-11" 0 1700 basechar 0
AnchorPoint: "Anchor-10" 1126 1700 basechar 0
AnchorPoint: "Anchor-9" 580 0 basechar 0
AnchorPoint: "Anchor-7" 960 1300 basechar 0
AnchorPoint: "Anchor-6" 1126 -350 basechar 0
AnchorPoint: "Anchor-5" 1126 1700 basechar 0
AnchorPoint: "Anchor-4" 970 1300 basechar 0
AnchorPoint: "Anchor-2" 563 -180 basechar 0
AnchorPoint: "Anchor-1" 1176 1390 basechar 0
AnchorPoint: "Anchor-0" 563 1430 basechar 0
LayerCount: 2
Back
Fore
SplineSet
1126 1307 m 1,0,-1
 653 467 l 1,1,-1
 653 0 l 1,2,-1
 473 0 l 1,3,-1
 473 471 l 1,4,-1
 0 1307 l 1,5,-1
 215 1307 l 1,6,-1
 475 829 l 1,7,-1
 571 637 l 1,8,-1
 659 811 l 1,9,-1
 922 1307 l 1,10,-1
 1126 1307 l 1,0,-1
EndSplineSet
Substitution2: "'sups' Superscript lookup 34 subtable" Y.superior
EndChar
StartChar: Z
Encoding: 90 90 29
Width: 1126
GlyphClass: 2
Flags: W
AnchorPoint: "Anchor-11" 0 1700 basechar 0
AnchorPoint: "Anchor-10" 1126 1700 basechar 0
AnchorPoint: "Anchor-9" 950 0 basechar 0
AnchorPoint: "Anchor-7" 900 1300 basechar 0
AnchorPoint: "Anchor-6" 1126 -350 basechar 0
AnchorPoint: "Anchor-5" 1126 1700 basechar 0
AnchorPoint: "Anchor-4" 910 1300 basechar 0
AnchorPoint: "Anchor-2" 563 -180 basechar 0
AnchorPoint: "Anchor-1" 1064 1390 basechar 0
AnchorPoint: "Anchor-0" 563 1430 basechar 0
LayerCount: 2
Back
Fore
SplineSet
1001 1167 m 1,0,-1
 334 166 l 1,1,-1
 1014 166 l 1,2,-1
 1014 0 l 1,3,-1
 111 0 l 1,4,-1
 111 133 l 1,5,-1
 782 1145 l 1,6,-1
 129 1145 l 1,7,-1
 129 1307 l 1,8,-1
 1001 1307 l 1,9,-1
 1001 1167 l 1,0,-1
EndSplineSet
Substitution2: "'sups' Superscript lookup 34 subtable" Z.superior
EndChar
StartChar: bracketleft
Encoding: 91 91 387
Width: 1126
Flags: W
LayerCount: 2
Back
Fore
SplineSet
838 -410 m 1,0,-1
 345 -410 l 1,1,-1
 345 1448 l 1,2,-1
 838 1448 l 1,3,-1
 838 1308 l 1,4,-1
 511 1308 l 1,5,-1
 511 -270 l 1,6,-1
 838 -270 l 1,7,-1
 838 -410 l 1,0,-1
EndSplineSet
Substitution2: "'case' Case-Sensitive Forms lookup 0 subtable" bracketleft.case
EndChar
StartChar: backslash
Encoding: 92 92 590
Width: 1126
Flags: W
LayerCount: 2
Back
Fore
SplineSet
1012 -215 m 1,0,-1
 846 -215 l 1,1,-1
 160 1413 l 1,2,-1
 326 1413 l 1,3,-1
 1012 -215 l 1,0,-1
EndSplineSet
EndChar
StartChar: bracketright
Encoding: 93 93 388
Width: 1126
Flags: W
LayerCount: 2
Back
Fore
SplineSet
781 -410 m 1,0,-1
 288 -410 l 1,1,-1
 288 -270 l 1,2,-1
 613 -270 l 1,3,-1
 613 1308 l 1,4,-1
 288 1308 l 1,5,-1
 288 1448 l 1,6,-1
 781 1448 l 1,7,-1
 781 -410 l 1,0,-1
EndSplineSet
Substitution2: "'case' Case-Sensitive Forms lookup 0 subtable" bracketright.case
EndChar
StartChar: asciicircum
Encoding: 94 94 587
Width: 1126
Flags: W
LayerCount: 2
Back
Fore
SplineSet
1014 668 m 1,0,-1
 840 668 l 1,1,-1
 551 1169 l 1,2,-1
 279 668 l 1,3,-1
 121 668 l 1,4,-1
 487 1307 l 1,5,-1
 629 1307 l 1,6,-1
 1014 668 l 1,0,-1
EndSplineSet
EndChar
StartChar: underscore
Encoding: 95 95 591
Width: 1126
Flags: W
LayerCount: 2
Back
Fore
SplineSet
1126 -410 m 1,0,-1
 0 -410 l 1,1,-1
 0 -266 l 1,2,-1
 1126 -266 l 1,3,-1
 1126 -410 l 1,0,-1
EndSplineSet
EndChar
StartChar: grave
Encoding: 96 96 316
Width: 1126
Flags: W
LayerCount: 2
Back
Fore
SplineSet
668 1171 m 1,0,-1
 494 1171 l 1,1,-1
 174 1413 l 1,2,-1
 426 1413 l 1,3,-1
 668 1171 l 1,0,-1
0 1004 m 1024,4,-1
EndSplineSet
Substitution2: "'locl' Localized Forms in Greek lookup 36 subtable" uni1FEF
EndChar
StartChar: a
Encoding: 97 97 131
Width: 1126
GlyphClass: 2
Flags: W
AnchorPoint: "Anchor-11" -3 1650 basechar 0
AnchorPoint: "Anchor-10" 1126 1700 basechar 0
AnchorPoint: "Anchor-9" 900 0 basechar 0
AnchorPoint: "Anchor-8" 500 0 basechar 0
AnchorPoint: "Anchor-7" 800 970 basechar 0
AnchorPoint: "Anchor-6" 1126 -350 basechar 0
AnchorPoint: "Anchor-5" 1126 1700 basechar 0
AnchorPoint: "Anchor-4" 840 950 basechar 0
AnchorPoint: "Anchor-2" 563 -180 basechar 0
AnchorPoint: "Anchor-1" 961 1160 basechar 0
AnchorPoint: "Anchor-0" 563 1200 basechar 0
LayerCount: 2
Back
Fore
SplineSet
296 477 m 0,0,1
 281 384 281 384 296.5 329 c 128,-1,2
 312 274 312 274 337.5 227.5 c 128,-1,3
 363 181 363 181 401.5 156 c 128,-1,4
 440 131 440 131 492 131 c 0,5,6
 558 131 558 131 631.5 190 c 128,-1,7
 705 249 705 249 786 365 c 1,8,-1
 786 831 l 1,9,10
 746 850 746 850 697 865 c 128,-1,11
 648 880 648 880 569 866 c 1,12,13
 463 826 463 826 393 736.5 c 128,-1,14
 323 647 323 647 296 477 c 0,0,1
798 184 m 1,15,16
 778 148 778 148 724 83 c 1,17,18
 653 -18 653 -18 457 -18 c 0,19,20
 369 -18 369 -18 304 18 c 128,-1,21
 239 54 239 54 195.5 120 c 128,-1,22
 152 186 152 186 136 262.5 c 128,-1,23
 120 339 120 339 118 412 c 1,24,25
 126 553 126 553 170 659 c 128,-1,26
 214 765 214 765 265.5 827.5 c 128,-1,27
 317 890 317 890 395.5 950 c 128,-1,28
 474 1010 474 1010 614 1024 c 1,29,30
 681 1022 681 1022 716 1011 c 128,-1,31
 751 1000 751 1000 807 983 c 1,32,-1
 961 1022 l 1,33,-1
 961 0 l 1,34,-1
 805 0 l 1,35,-1
 801 135 l 1,36,-1
 798 184 l 1,15,16
EndSplineSet
Substitution2: "'ordn' Ordinals in Latin lookup 38 subtable" uni1D43
Substitution2: "'sups' Superscript lookup 34 subtable" uni1D43
EndChar
StartChar: b
Encoding: 98 98 132
Width: 1126
GlyphClass: 2
Flags: W
AnchorPoint: "Anchor-11" 0 1700 basechar 0
AnchorPoint: "Anchor-10" 1126 1700 basechar 0
AnchorPoint: "Anchor-9" 620 0 basechar 0
AnchorPoint: "Anchor-7" 800 970 basechar 0
AnchorPoint: "Anchor-6" 1126 -350 basechar 0
AnchorPoint: "Anchor-5" 1126 1700 basechar 0
AnchorPoint: "Anchor-4" 860 950 basechar 0
AnchorPoint: "Anchor-2" 563 -180 basechar 0
AnchorPoint: "Anchor-1" 938 1400 basechar 0
AnchorPoint: "Anchor-0" 563 1500 basechar 0
LayerCount: 2
Back
Fore
SplineSet
160 1413 m 1,0,-1
 334 1413 l 1,1,-1
 334 844 l 1,2,3
 356 876 356 876 395 923 c 1,4,5
 466 1024 466 1024 662 1024 c 0,6,7
 750 1024 750 1024 815 988 c 128,-1,8
 880 952 880 952 923.5 886 c 128,-1,9
 967 820 967 820 983 743.5 c 128,-1,10
 999 667 999 667 1001 594 c 1,11,12
 993 453 993 453 949 347 c 128,-1,13
 905 241 905 241 853.5 178.5 c 128,-1,14
 802 116 802 116 723.5 56 c 128,-1,15
 645 -4 645 -4 505 -18 c 1,16,17
 437 -18 437 -18 403 -17 c 128,-1,18
 369 -16 369 -16 330 -6 c 0,19,20
 240 26 240 26 160 59 c 1,21,-1
 160 1413 l 1,0,-1
334 642 m 1,22,-1
 334 143 l 1,23,24
 471 126 471 126 550 140 c 1,25,26
 656 180 656 180 726 269.5 c 128,-1,27
 796 359 796 359 823 529 c 0,28,29
 838 622 838 622 822.5 677 c 128,-1,30
 807 732 807 732 781.5 778.5 c 128,-1,31
 756 825 756 825 717.5 850 c 128,-1,32
 679 875 679 875 627 875 c 0,33,34
 561 875 561 875 488 816 c 0,35,36
 414 757 414 757 334 642 c 1,22,-1
EndSplineSet
Substitution2: "'ordn' Ordinals in Latin lookup 38 subtable" uni1D47
Substitution2: "'sups' Superscript lookup 34 subtable" uni1D47
EndChar
StartChar: c
Encoding: 99 99 133
Width: 1126
GlyphClass: 2
Flags: W
AnchorPoint: "Anchor-11" 0 1700 basechar 0
AnchorPoint: "Anchor-10" 1126 1700 basechar 0
AnchorPoint: "Anchor-9" 780 0 basechar 0
AnchorPoint: "Anchor-8" 640 0 basechar 0
AnchorPoint: "Anchor-7" 840 970 basechar 0
AnchorPoint: "Anchor-6" 1126 -350 basechar 0
AnchorPoint: "Anchor-5" 1126 1700 basechar 0
AnchorPoint: "Anchor-4" 850 970 basechar 0
AnchorPoint: "Anchor-2" 623 -180 basechar 0
AnchorPoint: "Anchor-1" 990 1160 basechar 0
AnchorPoint: "Anchor-0" 623 1200 basechar 0
LayerCount: 2
Back
Fore
SplineSet
940 37 m 1,0,1
 872 11 872 11 800.5 -1.5 c 128,-1,2
 729 -14 729 -14 653 -14 c 0,3,4
 415 -14 415 -14 286.5 115.5 c 128,-1,5
 158 245 158 245 158 493 c 0,6,7
 158 613 158 613 195 710 c 128,-1,8
 232 807 232 807 299 876.5 c 128,-1,9
 366 946 366 946 459 983.5 c 128,-1,10
 552 1021 552 1021 664 1021 c 0,11,12
 742 1021 742 1021 810 1010 c 128,-1,13
 878 999 878 999 940 974 c 1,14,-1
 940 807 l 1,15,16
 875 841 875 841 807.5 857 c 128,-1,17
 740 873 740 873 668 873 c 0,18,19
 601 873 601 873 541.5 847 c 128,-1,20
 482 821 482 821 437 773 c 128,-1,21
 392 725 392 725 366 656 c 128,-1,22
 340 587 340 587 340 499 c 0,23,24
 340 317 340 317 428.5 226 c 128,-1,25
 517 135 517 135 674 135 c 0,26,27
 745 135 745 135 811.5 151.5 c 128,-1,28
 878 168 878 168 940 200 c 1,29,-1
 940 37 l 1,0,1
EndSplineSet
Substitution2: "'ordn' Ordinals in Latin lookup 38 subtable" uni1D9C
Substitution2: "'sups' Superscript lookup 34 subtable" uni1D9C
EndChar
StartChar: d
Encoding: 100 100 134
Width: 1126
GlyphClass: 2
Flags: W
AnchorPoint: "Anchor-11" 0 1700 basechar 0
AnchorPoint: "Anchor-10" 1126 1700 basechar 0
AnchorPoint: "Anchor-9" 900 0 basechar 0
AnchorPoint: "Anchor-7" 880 1413 basechar 0
AnchorPoint: "Anchor-6" 1126 -350 basechar 0
AnchorPoint: "Anchor-5" 1126 1700 basechar 0
AnchorPoint: "Anchor-4" 860 1413 basechar 0
AnchorPoint: "Anchor-2" 563 -180 basechar 0
AnchorPoint: "Anchor-1" 1011 1500 basechar 0
AnchorPoint: "Anchor-0" 563 1500 basechar 0
LayerCount: 2
Back
Fore
SplineSet
961 0 m 1,0,-1
 805 0 l 1,1,-1
 799 185 l 1,2,3
 779 149 779 149 724 83 c 1,4,5
 653 -18 653 -18 457 -18 c 0,6,7
 369 -18 369 -18 304 18 c 128,-1,8
 239 54 239 54 195.5 120 c 128,-1,9
 152 186 152 186 136 262.5 c 128,-1,10
 120 339 120 339 118 412 c 1,11,12
 126 553 126 553 170 659 c 128,-1,13
 214 765 214 765 265.5 827.5 c 128,-1,14
 317 890 317 890 395.5 950 c 128,-1,15
 474 1010 474 1010 614 1024 c 1,16,17
 681 1022 681 1022 716 1011 c 0,18,19
 744 1002 744 1002 786 989 c 1,20,-1
 786 1413 l 1,21,-1
 961 1413 l 1,22,-1
 961 0 l 1,0,-1
786 831 m 1,23,24
 746 850 746 850 697 865 c 128,-1,25
 648 880 648 880 569 866 c 1,26,27
 463 826 463 826 393 736.5 c 128,-1,28
 323 647 323 647 296 477 c 0,29,30
 281 384 281 384 296.5 329 c 128,-1,31
 312 274 312 274 337.5 227.5 c 128,-1,32
 363 181 363 181 401.5 156 c 128,-1,33
 440 131 440 131 492 131 c 0,34,35
 558 131 558 131 631.5 190 c 128,-1,36
 705 249 705 249 786 365 c 1,37,-1
 786 831 l 1,23,24
EndSplineSet
Substitution2: "'ordn' Ordinals in Latin lookup 38 subtable" uni1D48
Substitution2: "'sups' Superscript lookup 34 subtable" uni1D48
EndChar
StartChar: e
Encoding: 101 101 135
Width: 1126
GlyphClass: 2
Flags: W
AnchorPoint: "Anchor-11" 0 1700 basechar 0
AnchorPoint: "Anchor-10" 1126 1700 basechar 0
AnchorPoint: "Anchor-9" 780 0 basechar 0
AnchorPoint: "Anchor-8" 640 0 basechar 0
AnchorPoint: "Anchor-7" 780 970 basechar 0
AnchorPoint: "Anchor-6" 1126 -350 basechar 0
AnchorPoint: "Anchor-5" 1126 1700 basechar 0
AnchorPoint: "Anchor-4" 855 930 basechar 0
AnchorPoint: "Anchor-2" 563 -180 basechar 0
AnchorPoint: "Anchor-1" 1008 1160 basechar 0
AnchorPoint: "Anchor-0" 563 1200 basechar 0
LayerCount: 2
Back
Fore
SplineSet
1008 555 m 0,0,1
 1008 518 1008 518 1007 493 c 128,-1,2
 1006 468 1006 468 1004 446 c 1,3,-1
 299 446 l 1,4,5
 299 292 299 292 385 209.5 c 128,-1,6
 471 127 471 127 633 127 c 0,7,8
 677 127 677 127 721 130.5 c 128,-1,9
 765 134 765 134 806 140 c 128,-1,10
 847 146 847 146 884.5 153.5 c 128,-1,11
 922 161 922 161 954 170 c 1,12,-1
 954 27 l 1,13,14
 883 7 883 7 793.5 -5.5 c 128,-1,15
 704 -18 704 -18 608 -18 c 0,16,17
 479 -18 479 -18 386 17 c 128,-1,18
 293 52 293 52 233.5 118.5 c 128,-1,19
 174 185 174 185 145.5 281.5 c 128,-1,20
 117 378 117 378 117 500 c 0,21,22
 117 606 117 606 147.5 700.5 c 128,-1,23
 178 795 178 795 236.5 866.5 c 128,-1,24
 295 938 295 938 380 980 c 128,-1,25
 465 1022 465 1022 573 1022 c 0,26,27
 678 1022 678 1022 759 989 c 128,-1,28
 840 956 840 956 895.5 895.5 c 128,-1,29
 951 835 951 835 979.5 748.5 c 128,-1,30
 1008 662 1008 662 1008 555 c 0,0,1
827 580 m 1,31,32
 830 647 830 647 814 702.5 c 128,-1,33
 798 758 798 758 764.5 798 c 128,-1,34
 731 838 731 838 681 860.5 c 128,-1,35
 631 883 631 883 565 883 c 0,36,37
 508 883 508 883 461 861 c 128,-1,38
 414 839 414 839 380 799 c 128,-1,39
 346 759 346 759 325 703 c 128,-1,40
 304 647 304 647 299 580 c 1,41,-1
 827 580 l 1,31,32
EndSplineSet
Substitution2: "'ordn' Ordinals in Latin lookup 38 subtable" uni1D49
Substitution2: "'sups' Superscript lookup 34 subtable" uni1D49
EndChar
StartChar: f
Encoding: 102 102 136
Width: 1126
GlyphClass: 2
Flags: W
AnchorPoint: "Anchor-11" 0 1700 basechar 0
AnchorPoint: "Anchor-10" 1126 1700 basechar 0
AnchorPoint: "Anchor-9" 510 0 basechar 0
AnchorPoint: "Anchor-7" 950 1413 basechar 0
AnchorPoint: "Anchor-6" 1126 -350 basechar 0
AnchorPoint: "Anchor-5" 1126 1700 basechar 0
AnchorPoint: "Anchor-4" 950 1413 basechar 0
AnchorPoint: "Anchor-2" 493 -180 basechar 0
AnchorPoint: "Anchor-1" 1101 1500 basechar 0
AnchorPoint: "Anchor-0" 663 1500 basechar 0
LayerCount: 2
Back
Fore
SplineSet
1051 1251 m 1,0,1
 914 1280 914 1280 815 1280 c 0,2,3
 580 1280 580 1280 580 1034 c 2,4,-1
 580 858 l 1,5,-1
 1020 858 l 1,6,-1
 1020 713 l 1,7,-1
 580 713 l 1,8,-1
 580 0 l 1,9,-1
 403 0 l 1,10,-1
 403 713 l 1,11,-1
 80 713 l 1,12,-1
 80 858 l 1,13,-1
 403 858 l 1,14,-1
 403 1024 l 2,15,16
 403 1425 403 1425 821 1425 c 0,17,18
 925 1425 925 1425 1051 1401 c 1,19,-1
 1051 1251 l 1,0,1
0 1004 m 1024,20,-1
EndSplineSet
Substitution2: "'ordn' Ordinals in Latin lookup 38 subtable" uni1DA0
Substitution2: "'sups' Superscript lookup 34 subtable" uni1DA0
AlternateSubs2: "'ss06' Style Set 6 lookup 31 subtable" f.ss05
Substitution2: "'ss05' Style Set 5 lookup 30 subtable" f.ss05
Substitution2: "'ss04' Style Set 4 lookup 29 subtable" f.ss04
AlternateSubs2: "'salt' Stylistic Alternatives lookup 23 subtable" f.ss04 f.ss05
EndChar
StartChar: g
Encoding: 103 103 137
Width: 1126
GlyphClass: 2
Flags: W
AnchorPoint: "Anchor-11" 0 1700 basechar 0
AnchorPoint: "Anchor-10" 1126 1700 basechar 0
AnchorPoint: "Anchor-9" 750 -385 basechar 0
AnchorPoint: "Anchor-8" 563 -400 basechar 0
AnchorPoint: "Anchor-7" 900 980 basechar 0
AnchorPoint: "Anchor-6" 1126 -350 basechar 0
AnchorPoint: "Anchor-5" 1126 1700 basechar 0
AnchorPoint: "Anchor-4" 950 1000 basechar 0
AnchorPoint: "Anchor-2" 563 -550 basechar 0
AnchorPoint: "Anchor-1" 1094 1160 basechar 0
AnchorPoint: "Anchor-0" 563 1200 basechar 0
LayerCount: 2
Back
Fore
SplineSet
296 477 m 0,0,1
 281 384 281 384 296.5 329 c 128,-1,2
 312 274 312 274 337.5 227.5 c 128,-1,3
 363 181 363 181 401.5 156 c 128,-1,4
 440 131 440 131 492 131 c 0,5,6
 558 131 558 131 631.5 190 c 128,-1,7
 705 249 705 249 786 365 c 1,8,-1
 786 831 l 1,9,10
 746 850 746 850 697 865 c 128,-1,11
 648 880 648 880 569 866 c 1,12,13
 463 826 463 826 393 736.5 c 128,-1,14
 323 647 323 647 296 477 c 0,0,1
961 7 m 2,15,16
 961 5 961 5 959 3 c 0,17,18
 953 -114 953 -114 912 -200 c 0,19,20
 878 -269 878 -269 815.5 -324 c 128,-1,21
 753 -379 753 -379 689 -398.5 c 128,-1,22
 625 -418 625 -418 529 -418 c 0,23,24
 445 -418 445 -418 354.5 -390 c 128,-1,25
 264 -362 264 -362 123 -256 c 1,26,-1
 199 -102 l 1,27,28
 342 -187 342 -187 398 -217 c 128,-1,29
 454 -247 454 -247 539 -240 c 1,30,31
 646 -246 646 -246 711.5 -191.5 c 128,-1,32
 777 -137 777 -137 782 0 c 2,33,-1
 785 136 l 1,34,35
 767 117 767 117 748 94 c 0,36,37
 653 -18 653 -18 457 -18 c 0,38,39
 369 -18 369 -18 304 18 c 128,-1,40
 239 54 239 54 195.5 120 c 128,-1,41
 152 186 152 186 136 262.5 c 128,-1,42
 120 339 120 339 118 412 c 1,43,44
 126 553 126 553 170 659 c 128,-1,45
 214 765 214 765 265.5 827.5 c 128,-1,46
 317 890 317 890 395.5 950 c 128,-1,47
 474 1010 474 1010 614 1024 c 1,48,49
 681 1022 681 1022 716 1011 c 128,-1,50
 751 1000 751 1000 807 983 c 1,51,-1
 961 1022 l 1,52,-1
 961 7 l 2,15,16
EndSplineSet
Substitution2: "'ordn' Ordinals in Latin lookup 38 subtable" uni1D4D
Substitution2: "'sups' Superscript lookup 34 subtable" uni1D4D
EndChar
StartChar: h
Encoding: 104 104 138
Width: 1126
GlyphClass: 2
Flags: W
AnchorPoint: "Anchor-11" 0 1700 basechar 0
AnchorPoint: "Anchor-10" 1126 1700 basechar 0
AnchorPoint: "Anchor-9" 900 0 basechar 0
AnchorPoint: "Anchor-7" 800 970 basechar 0
AnchorPoint: "Anchor-6" 1126 -350 basechar 0
AnchorPoint: "Anchor-5" 1126 1700 basechar 0
AnchorPoint: "Anchor-4" 860 950 basechar 0
AnchorPoint: "Anchor-2" 563 -180 basechar 0
AnchorPoint: "Anchor-1" 938 1400 basechar 0
AnchorPoint: "Anchor-0" 563 1500 basechar 0
LayerCount: 2
Back
Fore
SplineSet
967 0 m 1,0,-1
 793 0 l 1,1,-1
 793 641 l 2,2,3
 793 757 793 757 749.5 814.5 c 128,-1,4
 706 872 706 872 625 872 c 0,5,6
 590 872 590 872 559.5 862.5 c 128,-1,7
 529 853 529 853 496 829.5 c 128,-1,8
 463 806 463 806 424 766 c 128,-1,9
 385 726 385 726 334 666 c 1,10,-1
 334 0 l 1,11,-1
 160 0 l 1,12,-1
 160 1413 l 1,13,-1
 334 1413 l 1,14,-1
 334 1004 l 1,15,-1
 328 846 l 1,16,17
 369 895 369 895 408.5 928.5 c 128,-1,18
 448 962 448 962 487.5 983 c 128,-1,19
 527 1004 527 1004 568 1013 c 128,-1,20
 609 1022 609 1022 653 1022 c 0,21,22
 803 1022 803 1022 885 930.5 c 128,-1,23
 967 839 967 839 967 655 c 2,24,-1
 967 0 l 1,0,-1
EndSplineSet
Substitution2: "'ordn' Ordinals in Latin lookup 38 subtable" uni02B0
Substitution2: "'sups' Superscript lookup 34 subtable" uni02B0
EndChar
StartChar: i
Encoding: 105 105 139
Width: 1126
GlyphClass: 2
Flags: W
AnchorPoint: "Anchor-11" 0 1700 basechar 0
AnchorPoint: "Anchor-10" 1126 1700 basechar 0
AnchorPoint: "Anchor-9" 910 0 basechar 0
AnchorPoint: "Anchor-8" 563 0 basechar 0
AnchorPoint: "Anchor-7" 680 1000 basechar 0
AnchorPoint: "Anchor-6" 1126 -350 basechar 0
AnchorPoint: "Anchor-5" 1126 1700 basechar 0
AnchorPoint: "Anchor-4" 580 1000 basechar 0
AnchorPoint: "Anchor-2" 563 -180 basechar 0
AnchorPoint: "Anchor-1" 777 1500 basechar 0
AnchorPoint: "Anchor-0" 563 1500 basechar 0
LayerCount: 2
Back
Fore
SplineSet
576 1425 m 256,0,1
 602 1425 602 1425 625 1415.5 c 128,-1,2
 648 1406 648 1406 664.5 1389 c 128,-1,3
 681 1372 681 1372 690.5 1349.5 c 128,-1,4
 700 1327 700 1327 700 1301 c 0,5,6
 700 1276 700 1276 690.5 1253 c 128,-1,7
 681 1230 681 1230 664.5 1213 c 128,-1,8
 648 1196 648 1196 625 1186.5 c 128,-1,9
 602 1177 602 1177 576 1177 c 256,10,11
 550 1177 550 1177 527 1186.5 c 128,-1,12
 504 1196 504 1196 487.5 1213 c 128,-1,13
 471 1230 471 1230 461.5 1253 c 128,-1,14
 452 1276 452 1276 452 1301 c 0,15,16
 452 1327 452 1327 461.5 1349.5 c 128,-1,17
 471 1372 471 1372 487.5 1389 c 128,-1,18
 504 1406 504 1406 527 1415.5 c 128,-1,19
 550 1425 550 1425 576 1425 c 256,0,1
712 201 m 0,21,22
 754 140 754 140 839 140 c 2,23,-1
 1036 140 l 1,24,-1
 1036 -6 l 1,25,-1
 822 -6 l 2,26,27
 666 -6 666 -6 582 94 c 0,28,29
 506 182 506 182 497 334 c 1,30,-1
 497 858 l 1,31,-1
 216 858 l 1,32,-1
 216 1004 l 1,33,-1
 671 1004 l 1,34,-1
 671 348 l 1,35,20
 675 252 675 252 712 201 c 0,21,22
EndSplineSet
AlternateSubs2: "'ss06' Style Set 6 lookup 31 subtable" glyph277
Substitution2: "'ss05' Style Set 5 lookup 30 subtable" i.ss05
AlternateSubs2: "'salt' Stylistic Alternatives lookup 23 subtable" i.ss05 glyph277
Substitution2: "Single Substitution lookup 15 subtable" dotlessi
EndChar
StartChar: j
Encoding: 106 106 140
Width: 1126
GlyphClass: 2
Flags: W
AnchorPoint: "Anchor-11" 0 1700 basechar 0
AnchorPoint: "Anchor-10" 1126 1700 basechar 0
AnchorPoint: "Anchor-9" 620 -350 basechar 0
AnchorPoint: "Anchor-7" 840 1000 basechar 0
AnchorPoint: "Anchor-6" 1126 -350 basechar 0
AnchorPoint: "Anchor-5" 1126 1700 basechar 0
AnchorPoint: "Anchor-4" 740 1000 basechar 0
AnchorPoint: "Anchor-2" 563 -550 basechar 0
AnchorPoint: "Anchor-1" 937 1500 basechar 0
AnchorPoint: "Anchor-0" 733 1500 basechar 0
LayerCount: 2
Back
Fore
SplineSet
744 1426 m 256,0,1
 770 1426 770 1426 793 1416.5 c 128,-1,2
 816 1407 816 1407 832.5 1390 c 128,-1,3
 849 1373 849 1373 858.5 1350.5 c 128,-1,4
 868 1328 868 1328 868 1302 c 0,5,6
 868 1277 868 1277 858.5 1254 c 128,-1,7
 849 1231 849 1231 832.5 1214 c 128,-1,8
 816 1197 816 1197 793 1187.5 c 128,-1,9
 770 1178 770 1178 744 1178 c 256,10,11
 718 1178 718 1178 695 1187.5 c 128,-1,12
 672 1197 672 1197 655.5 1214 c 128,-1,13
 639 1231 639 1231 629.5 1254 c 128,-1,14
 620 1277 620 1277 620 1302 c 0,15,16
 620 1328 620 1328 629.5 1350.5 c 128,-1,17
 639 1373 639 1373 655.5 1390 c 128,-1,18
 672 1407 672 1407 695 1416.5 c 128,-1,19
 718 1426 718 1426 744 1426 c 256,0,1
844 -20 m 2,20,21
 844 -215 844 -215 759 -320.5 c 128,-1,22
 674 -426 674 -426 518 -426 c 2,23,-1
 277 -426 l 1,24,-1
 277 -270 l 1,25,-1
 499 -270 l 2,26,27
 584 -270 584 -270 627 -207.5 c 128,-1,28
 670 -145 670 -145 670 -20 c 2,29,-1
 670 858 l 1,30,-1
 389 858 l 1,31,-1
 389 1004 l 1,32,-1
 844 1004 l 1,33,-1
 844 -20 l 2,20,21
EndSplineSet
Substitution2: "'ordn' Ordinals in Latin lookup 38 subtable" uni02B2
Substitution2: "'sups' Superscript lookup 34 subtable" uni02B2
AlternateSubs2: "'ss06' Style Set 6 lookup 31 subtable" glyph287
AlternateSubs2: "'salt' Stylistic Alternatives lookup 23 subtable" glyph287
Substitution2: "Single Substitution lookup 17 subtable" uni0237
EndChar
StartChar: k
Encoding: 107 107 141
Width: 1126
GlyphClass: 2
Flags: W
AnchorPoint: "Anchor-11" 0 1700 basechar 0
AnchorPoint: "Anchor-10" 1126 1700 basechar 0
AnchorPoint: "Anchor-9" 980 0 basechar 0
AnchorPoint: "Anchor-8" 563 -50 basechar 0
AnchorPoint: "Anchor-7" 850 1000 basechar 0
AnchorPoint: "Anchor-6" 1126 -350 basechar 0
AnchorPoint: "Anchor-5" 1126 1700 basechar 0
AnchorPoint: "Anchor-4" 830 1000 basechar 0
AnchorPoint: "Anchor-2" 563 -180 basechar 0
AnchorPoint: "Anchor-1" 1063 1400 basechar 0
AnchorPoint: "Anchor-0" 563 1500 basechar 0
LayerCount: 2
Back
Fore
SplineSet
1063 0 m 1,0,-1
 824 0 l 1,1,-1
 356 538 l 1,2,-1
 356 0 l 1,3,-1
 182 0 l 1,4,-1
 182 1413 l 1,5,-1
 356 1413 l 1,6,-1
 356 545 l 1,7,-1
 807 1004 l 1,8,-1
 1037 1004 l 1,9,-1
 566 541 l 1,10,-1
 1063 0 l 1,0,-1
EndSplineSet
Substitution2: "'ordn' Ordinals in Latin lookup 38 subtable" uni1D4F
Substitution2: "'sups' Superscript lookup 34 subtable" uni1D4F
EndChar
StartChar: l
Encoding: 108 108 142
Width: 1126
GlyphClass: 2
Flags: W
AnchorPoint: "Anchor-11" 0 1700 basechar 0
AnchorPoint: "Anchor-10" 1126 1700 basechar 0
AnchorPoint: "Anchor-9" 910 0 basechar 0
AnchorPoint: "Anchor-8" 563 0 basechar 0
AnchorPoint: "Anchor-7" 600 1413 basechar 0
AnchorPoint: "Anchor-6" 1126 -350 basechar 0
AnchorPoint: "Anchor-5" 1126 1700 basechar 0
AnchorPoint: "Anchor-4" 580 1413 basechar 0
AnchorPoint: "Anchor-2" 563 -180 basechar 0
AnchorPoint: "Anchor-1" 733 1500 basechar 0
AnchorPoint: "Anchor-0" 563 1500 basechar 0
LayerCount: 2
Back
Fore
SplineSet
496 1268 m 1,0,-1
 215 1268 l 1,1,-1
 215 1414 l 1,2,-1
 670 1414 l 1,3,-1
 671 348 l 2,4,5
 675 252 675 252 712 201 c 0,6,7
 754 140 754 140 839 140 c 2,8,-1
 1036 140 l 1,9,-1
 1036 -6 l 1,10,-1
 822 -6 l 2,11,12
 666 -6 666 -6 582 94 c 0,13,14
 506 182 506 182 497 334 c 1,15,-1
 496 1268 l 1,0,-1
EndSplineSet
AlternateSubs2: "'ss06' Style Set 6 lookup 31 subtable" glyph296
Substitution2: "'ss05' Style Set 5 lookup 30 subtable" l.ss05
AlternateSubs2: "'salt' Stylistic Alternatives lookup 23 subtable" l.ss05 glyph296
EndChar
StartChar: m
Encoding: 109 109 143
Width: 1126
GlyphClass: 2
Flags: W
AnchorPoint: "Anchor-11" 0 1700 basechar 0
AnchorPoint: "Anchor-10" 1126 1700 basechar 0
AnchorPoint: "Anchor-9" 970 0 basechar 0
AnchorPoint: "Anchor-7" 940 970 basechar 0
AnchorPoint: "Anchor-6" 1126 -350 basechar 0
AnchorPoint: "Anchor-5" 1126 1700 basechar 0
AnchorPoint: "Anchor-4" 930 970 basechar 0
AnchorPoint: "Anchor-2" 563 -180 basechar 0
AnchorPoint: "Anchor-1" 1086 1160 basechar 0
AnchorPoint: "Anchor-0" 563 1200 basechar 0
LayerCount: 2
Back
Fore
SplineSet
876 0 m 1,0,-1
 876 721 l 2,1,2
 876 768 876 768 872.5 798 c 128,-1,3
 869 828 869 828 861.5 845.5 c 128,-1,4
 854 863 854 863 842.5 870 c 128,-1,5
 831 877 831 877 814 877 c 0,6,7
 794 877 794 877 777 865 c 128,-1,8
 760 853 760 853 740.5 826 c 128,-1,9
 721 799 721 799 697.5 754.5 c 128,-1,10
 674 710 674 710 642 645 c 1,11,-1
 642 0 l 1,12,-1
 483 0 l 1,13,-1
 483 702 l 2,14,15
 483 757 483 757 479.5 791 c 128,-1,16
 476 825 476 825 468.5 844 c 128,-1,17
 461 863 461 863 449 870 c 128,-1,18
 437 877 437 877 420 877 c 0,19,20
 402 877 402 877 386 867 c 128,-1,21
 370 857 370 857 350.5 831 c 128,-1,22
 331 805 331 805 307 760 c 128,-1,23
 283 715 283 715 250 645 c 1,24,-1
 250 0 l 1,25,-1
 90 0 l 1,26,-1
 90 1004 l 1,27,-1
 223 1004 l 1,28,-1
 231 813 l 1,29,30
 257 870 257 870 281.5 910 c 128,-1,31
 306 950 306 950 332 974.5 c 128,-1,32
 358 999 358 999 387.5 1010.5 c 128,-1,33
 417 1022 417 1022 453 1022 c 0,34,35
 534 1022 534 1022 576 969 c 128,-1,36
 618 916 618 916 618 805 c 1,37,38
 642 857 642 857 665 897.5 c 128,-1,39
 688 938 688 938 714.5 965.5 c 128,-1,40
 741 993 741 993 773 1007.5 c 128,-1,41
 805 1022 805 1022 847 1022 c 0,42,43
 1036 1022 1036 1022 1036 731 c 2,44,-1
 1036 0 l 1,45,-1
 876 0 l 1,0,-1
EndSplineSet
Substitution2: "'ordn' Ordinals in Latin lookup 38 subtable" uni1D50
Substitution2: "'sups' Superscript lookup 34 subtable" uni1D50
EndChar
StartChar: n
Encoding: 110 110 144
Width: 1126
GlyphClass: 2
Flags: W
AnchorPoint: "Anchor-11" 0 1700 basechar 0
AnchorPoint: "Anchor-10" 1126 1700 basechar 0
AnchorPoint: "Anchor-9" 900 0 basechar 0
AnchorPoint: "Anchor-8" 563 -50 basechar 0
AnchorPoint: "Anchor-7" 800 970 basechar 0
AnchorPoint: "Anchor-6" 1126 -350 basechar 0
AnchorPoint: "Anchor-5" 1126 1700 basechar 0
AnchorPoint: "Anchor-4" 840 970 basechar 0
AnchorPoint: "Anchor-2" 563 -180 basechar 0
AnchorPoint: "Anchor-1" 1017 1160 basechar 0
AnchorPoint: "Anchor-0" 563 1200 basechar 0
LayerCount: 2
Back
Fore
SplineSet
160 1004 m 1,0,-1
 315 1004 l 1,1,-1
 322 842 l 1,2,3
 366 894 366 894 407 928.5 c 128,-1,4
 448 963 448 963 487.5 984 c 128,-1,5
 527 1005 527 1005 568 1013.5 c 128,-1,6
 609 1022 609 1022 653 1022 c 0,7,8
 808 1022 808 1022 887.5 930.5 c 128,-1,9
 967 839 967 839 967 655 c 2,10,-1
 967 0 l 1,11,-1
 793 0 l 1,12,-1
 793 641 l 2,13,14
 793 759 793 759 749 815.5 c 128,-1,15
 705 872 705 872 618 872 c 0,16,17
 586 872 586 872 555.5 862.5 c 128,-1,18
 525 853 525 853 492 829.5 c 128,-1,19
 459 806 459 806 420.5 766 c 128,-1,20
 382 726 382 726 334 666 c 1,21,-1
 334 0 l 1,22,-1
 160 0 l 1,23,-1
 160 1004 l 1,0,-1
EndSplineSet
Substitution2: "'ordn' Ordinals in Latin lookup 38 subtable" uni207F
Substitution2: "'sups' Superscript lookup 34 subtable" uni207F
EndChar
StartChar: o
Encoding: 111 111 145
Width: 1126
GlyphClass: 2
Flags: W
AnchorPoint: "Anchor-11" 0 1700 basechar 0
AnchorPoint: "Anchor-10" 1126 1700 basechar 0
AnchorPoint: "Anchor-9" 660 0 basechar 0
AnchorPoint: "Anchor-8" 563 0 basechar 0
AnchorPoint: "Anchor-7" 800 950 basechar 0
AnchorPoint: "Anchor-6" 1126 -350 basechar 0
AnchorPoint: "Anchor-5" 1126 1700 basechar 0
AnchorPoint: "Anchor-4" 870 930 basechar 0
AnchorPoint: "Anchor-2" 563 -180 basechar 0
AnchorPoint: "Anchor-1" 994 1160 basechar 0
AnchorPoint: "Anchor-0" 563 1200 basechar 0
LayerCount: 2
Back
Fore
SplineSet
1034 510 m 0,0,1
 1034 393 1034 393 1001 295.5 c 128,-1,2
 968 198 968 198 906 128.5 c 128,-1,3
 844 59 844 59 755 20.5 c 128,-1,4
 666 -18 666 -18 553 -18 c 0,5,6
 445 -18 445 -18 359.5 15.5 c 128,-1,7
 274 49 274 49 214.5 114 c 128,-1,8
 155 179 155 179 123.5 275 c 128,-1,9
 92 371 92 371 92 496 c 0,10,11
 92 613 92 613 125 709.5 c 128,-1,12
 158 806 158 806 220 875.5 c 128,-1,13
 282 945 282 945 371 983.5 c 128,-1,14
 460 1022 460 1022 573 1022 c 0,15,16
 681 1022 681 1022 766.5 988.5 c 128,-1,17
 852 955 852 955 911.5 890.5 c 128,-1,18
 971 826 971 826 1002.5 730 c 128,-1,19
 1034 634 1034 634 1034 510 c 0,0,1
856 502 m 0,20,21
 856 595 856 595 835.5 664.5 c 128,-1,22
 815 734 815 734 777 780.5 c 128,-1,23
 739 827 739 827 684.5 850.5 c 128,-1,24
 630 874 630 874 563 874 c 0,25,26
 485 874 485 874 429.5 843.5 c 128,-1,27
 374 813 374 813 338.5 762 c 128,-1,28
 303 711 303 711 286.5 643.5 c 128,-1,29
 270 576 270 576 270 502 c 0,30,31
 270 409 270 409 290.5 339 c 128,-1,32
 311 269 311 269 349 222.5 c 128,-1,33
 387 176 387 176 441 152.5 c 128,-1,34
 495 129 495 129 563 129 c 0,35,36
 641 129 641 129 696.5 159.5 c 128,-1,37
 752 190 752 190 787.5 241 c 128,-1,38
 823 292 823 292 839.5 359.5 c 128,-1,39
 856 427 856 427 856 502 c 0,20,21
EndSplineSet
Substitution2: "'ordn' Ordinals in Latin lookup 38 subtable" uni1D52
Substitution2: "'sups' Superscript lookup 34 subtable" uni1D52
EndChar
StartChar: p
Encoding: 112 112 146
Width: 1126
GlyphClass: 2
Flags: W
AnchorPoint: "Anchor-11" 0 1700 basechar 0
AnchorPoint: "Anchor-10" 1126 1700 basechar 0
AnchorPoint: "Anchor-9" 265 -400 basechar 0
AnchorPoint: "Anchor-7" 840 970 basechar 0
AnchorPoint: "Anchor-6" 1126 -350 basechar 0
AnchorPoint: "Anchor-5" 1126 1700 basechar 0
AnchorPoint: "Anchor-4" 870 930 basechar 0
AnchorPoint: "Anchor-2" 563 -500 basechar 0
AnchorPoint: "Anchor-1" 988 1160 basechar 0
AnchorPoint: "Anchor-0" 563 1200 basechar 0
LayerCount: 2
Back
Fore
SplineSet
334 -8 m 1,0,-1
 334 -410 l 1,1,-1
 160 -410 l 1,2,-1
 160 1004 l 1,3,-1
 315 1004 l 1,4,-1
 326 836 l 1,5,-1
 327 813 l 1,6,-1
 333 819 l 1,7,8
 474 1010 474 1010 654 1010 c 0,9,10
 876 1010 876 1010 961 757 c 1,11,12
 982 676 982 676 982 607 c 2,13,-1
 982 573 l 2,14,15
 982 172 982 172 654 13 c 1,16,17
 531 -21 531 -21 435 -21 c 2,18,-1
 428 -21 l 1,19,20
 355 -11 355 -11 334 -8 c 1,0,-1
334 639 m 1,21,-1
 334 139 l 1,22,23
 354 127 354 127 422 122 c 1,24,-1
 504 122 l 2,25,26
 757 122 757 122 824 491 c 0,27,28
 831 521 831 521 831 600 c 2,29,-1
 831 607 l 1,30,31
 799 853 799 853 654 853 c 2,32,-1
 592 853 l 2,33,34
 490 853 490 853 334 639 c 1,21,-1
EndSplineSet
Substitution2: "'ordn' Ordinals in Latin lookup 38 subtable" uni1D56
Substitution2: "'sups' Superscript lookup 34 subtable" uni1D56
EndChar
StartChar: q
Encoding: 113 113 147
Width: 1126
GlyphClass: 2
Flags: W
AnchorPoint: "Anchor-11" 0 1700 basechar 0
AnchorPoint: "Anchor-10" 1126 1700 basechar 0
AnchorPoint: "Anchor-9" 900 -400 basechar 0
AnchorPoint: "Anchor-7" 880 990 basechar 0
AnchorPoint: "Anchor-6" 1126 -350 basechar 0
AnchorPoint: "Anchor-5" 1126 1700 basechar 0
AnchorPoint: "Anchor-4" 860 990 basechar 0
AnchorPoint: "Anchor-2" 563 -500 basechar 0
AnchorPoint: "Anchor-1" 1011 1160 basechar 0
AnchorPoint: "Anchor-0" 563 1200 basechar 0
LayerCount: 2
Back
Fore
SplineSet
109 481 m 0,0,1
 109 589 109 589 137.5 686 c 128,-1,2
 166 783 166 783 225.5 856.5 c 128,-1,3
 285 930 285 930 378 973 c 128,-1,4
 471 1016 471 1016 600 1016 c 0,5,6
 651 1016 651 1016 701 1008 c 128,-1,7
 751 1000 751 1000 807 983 c 1,8,-1
 961 1022 l 1,9,-1
 961 -410 l 1,10,-1
 786 -410 l 1,11,-1
 786 -31 l 1,12,-1
 795 184 l 1,13,14
 653 -18 653 -18 457 -18 c 0,15,16
 369 -18 369 -18 304 18 c 128,-1,17
 239 54 239 54 195.5 120 c 128,-1,18
 152 186 152 186 130.5 278 c 128,-1,19
 109 370 109 370 109 481 c 0,0,1
287 492 m 0,20,21
 287 408 287 408 299.5 341 c 128,-1,22
 312 274 312 274 337.5 227.5 c 128,-1,23
 363 181 363 181 401.5 156 c 128,-1,24
 440 131 440 131 492 131 c 0,25,26
 558 131 558 131 631.5 190 c 128,-1,27
 705 249 705 249 786 365 c 1,28,-1
 786 831 l 1,29,30
 746 850 746 850 695.5 862 c 128,-1,31
 645 874 645 874 588 874 c 0,32,33
 441 874 441 874 364 777 c 128,-1,34
 287 680 287 680 287 492 c 0,20,21
EndSplineSet
EndChar
StartChar: r
Encoding: 114 114 148
Width: 1126
GlyphClass: 2
Flags: W
AnchorPoint: "Anchor-11" 0 1700 basechar 0
AnchorPoint: "Anchor-10" 1126 1700 basechar 0
AnchorPoint: "Anchor-9" 310 0 basechar 0
AnchorPoint: "Anchor-8" 290 0 basechar 0
AnchorPoint: "Anchor-7" 840 970 basechar 0
AnchorPoint: "Anchor-6" 1126 -350 basechar 0
AnchorPoint: "Anchor-5" 1126 1700 basechar 0
AnchorPoint: "Anchor-4" 900 950 basechar 0
AnchorPoint: "Anchor-2" 563 -180 basechar 0
AnchorPoint: "Anchor-1" 1052 1160 basechar 0
AnchorPoint: "Anchor-0" 563 1200 basechar 0
LayerCount: 2
Back
Fore
SplineSet
201 1004 m 1,0,-1
 360 1004 l 1,1,-1
 365 819 l 1,2,3
 454 926 454 926 540.5 974 c 128,-1,4
 627 1022 627 1022 715 1022 c 0,5,6
 871 1022 871 1022 951.5 921 c 128,-1,7
 1032 820 1032 820 1026 621 c 1,8,-1
 850 621 l 1,9,10
 853 753 853 753 811.5 812.5 c 128,-1,11
 770 872 770 872 690 872 c 0,12,13
 655 872 655 872 619.5 859.5 c 128,-1,14
 584 847 584 847 546.5 819.5 c 128,-1,15
 509 792 509 792 467 749 c 128,-1,16
 425 706 425 706 377 645 c 1,17,-1
 377 0 l 1,18,-1
 201 0 l 1,19,-1
 201 1004 l 1,0,-1
EndSplineSet
Substitution2: "'ordn' Ordinals in Latin lookup 38 subtable" uni02B3
Substitution2: "'sups' Superscript lookup 34 subtable" uni02B3
AlternateSubs2: "'ss06' Style Set 6 lookup 31 subtable" glyph310
Substitution2: "'ss05' Style Set 5 lookup 30 subtable" r.ss05
Substitution2: "'ss04' Style Set 4 lookup 29 subtable" r.ss04
AlternateSubs2: "'salt' Stylistic Alternatives lookup 23 subtable" r.ss04 r.ss05 glyph310
EndChar
StartChar: s
Encoding: 115 115 149
Width: 1126
GlyphClass: 2
Flags: W
AnchorPoint: "Anchor-11" 0 1700 basechar 0
AnchorPoint: "Anchor-10" 1126 1700 basechar 0
AnchorPoint: "Anchor-9" 640 0 basechar 0
AnchorPoint: "Anchor-8" 563 0 basechar 0
AnchorPoint: "Anchor-7" 800 970 basechar 0
AnchorPoint: "Anchor-6" 1126 -350 basechar 0
AnchorPoint: "Anchor-5" 1126 1700 basechar 0
AnchorPoint: "Anchor-4" 800 980 basechar 0
AnchorPoint: "Anchor-2" 563 -180 basechar 0
AnchorPoint: "Anchor-1" 935 1160 basechar 0
AnchorPoint: "Anchor-0" 563 1200 basechar 0
LayerCount: 2
Back
Fore
SplineSet
955 274 m 0,0,1
 955 221 955 221 937 179 c 128,-1,2
 919 137 919 137 888 104.5 c 128,-1,3
 857 72 857 72 816 49 c 128,-1,4
 775 26 775 26 728.5 11 c 128,-1,5
 682 -4 682 -4 633 -11 c 128,-1,6
 584 -18 584 -18 537 -18 c 0,7,8
 435 -18 435 -18 349.5 -9 c 128,-1,9
 264 0 264 0 182 20 c 1,10,-1
 182 180 l 1,11,12
 270 155 270 155 357 142 c 128,-1,13
 444 129 444 129 530 129 c 0,14,15
 655 129 655 129 715 163 c 128,-1,16
 775 197 775 197 775 260 c 0,17,18
 775 287 775 287 765.5 308.5 c 128,-1,19
 756 330 756 330 731 349.5 c 128,-1,20
 706 369 706 369 653.5 390 c 128,-1,21
 601 411 601 411 510 438 c 0,22,23
 442 458 442 458 384.5 483.5 c 128,-1,24
 327 509 327 509 285 544 c 128,-1,25
 243 579 243 579 219 626 c 128,-1,26
 195 673 195 673 195 737 c 0,27,28
 195 779 195 779 214.5 829 c 128,-1,29
 234 879 234 879 281 922 c 128,-1,30
 328 965 328 965 408 993.5 c 128,-1,31
 488 1022 488 1022 608 1022 c 0,32,33
 667 1022 667 1022 739 1015.5 c 128,-1,34
 811 1009 811 1009 889 993 c 1,35,-1
 889 838 l 1,36,37
 807 858 807 858 733.5 867.5 c 128,-1,38
 660 877 660 877 606 877 c 0,39,40
 541 877 541 877 496.5 867 c 128,-1,41
 452 857 452 857 424.5 839.5 c 128,-1,42
 397 822 397 822 385 798.5 c 128,-1,43
 373 775 373 775 373 748 c 256,44,45
 373 721 373 721 383.5 699 c 128,-1,46
 394 677 394 677 422.5 656.5 c 128,-1,47
 451 636 451 636 502 615.5 c 128,-1,48
 553 595 553 595 635 571 c 0,49,50
 724 545 724 545 785 516.5 c 128,-1,51
 846 488 846 488 884 453 c 128,-1,52
 922 418 922 418 938.5 374 c 128,-1,53
 955 330 955 330 955 274 c 0,0,1
EndSplineSet
EndChar
StartChar: t
Encoding: 116 116 150
Width: 1126
GlyphClass: 2
Flags: W
AnchorPoint: "Anchor-11" 0 1700 basechar 0
AnchorPoint: "Anchor-10" 1126 1700 basechar 0
AnchorPoint: "Anchor-9" 780 0 basechar 0
AnchorPoint: "Anchor-8" 680 0 basechar 0
AnchorPoint: "Anchor-7" 880 1000 basechar 0
AnchorPoint: "Anchor-6" 1126 -350 basechar 0
AnchorPoint: "Anchor-5" 1126 1700 basechar 0
AnchorPoint: "Anchor-4" 880 1000 basechar 0
AnchorPoint: "Anchor-2" 563 -180 basechar 0
AnchorPoint: "Anchor-1" 969 1400 basechar 0
AnchorPoint: "Anchor-0" 433 1450 basechar 0
LayerCount: 2
Back
Fore
SplineSet
969 14 m 1,0,1
 910 -1 910 -1 847 -7.5 c 128,-1,2
 784 -14 784 -14 719 -14 c 0,3,4
 530 -14 530 -14 437 71.5 c 128,-1,5
 344 157 344 157 344 334 c 2,6,-1
 344 858 l 1,7,-1
 63 858 l 1,8,-1
 63 1004 l 1,9,-1
 344 1004 l 1,10,-1
 344 1280 l 1,11,-1
 518 1325 l 1,12,-1
 518 1004 l 1,13,-1
 969 1004 l 1,14,-1
 969 858 l 1,15,-1
 518 858 l 1,16,-1
 518 348 l 2,17,18
 518 240 518 240 575.5 186.5 c 128,-1,19
 633 133 633 133 745 133 c 0,20,21
 793 133 793 133 850 140.5 c 128,-1,22
 907 148 907 148 969 164 c 1,23,-1
 969 14 l 1,0,1
EndSplineSet
Substitution2: "'ordn' Ordinals in Latin lookup 38 subtable" uni1D57
Substitution2: "'sups' Superscript lookup 34 subtable" uni1D57
EndChar
StartChar: u
Encoding: 117 117 151
Width: 1126
GlyphClass: 2
Flags: W
AnchorPoint: "Anchor-11" 0 1700 basechar 0
AnchorPoint: "Anchor-10" 1126 1700 basechar 0
AnchorPoint: "Anchor-9" 900 0 basechar 0
AnchorPoint: "Anchor-8" 500 0 basechar 0
AnchorPoint: "Anchor-7" 890 1000 basechar 0
AnchorPoint: "Anchor-6" 1126 -350 basechar 0
AnchorPoint: "Anchor-5" 1126 1700 basechar 0
AnchorPoint: "Anchor-4" 870 1000 basechar 0
AnchorPoint: "Anchor-2" 563 -180 basechar 0
AnchorPoint: "Anchor-1" 1017 1160 basechar 0
AnchorPoint: "Anchor-0" 563 1200 basechar 0
LayerCount: 2
Back
Fore
SplineSet
967 0 m 1,0,-1
 811 0 l 1,1,-1
 805 162 l 1,2,3
 760 110 760 110 719.5 75.5 c 128,-1,4
 679 41 679 41 639 20 c 128,-1,5
 599 -1 599 -1 558.5 -9.5 c 128,-1,6
 518 -18 518 -18 473 -18 c 0,7,8
 318 -18 318 -18 239 73 c 128,-1,9
 160 164 160 164 160 348 c 2,10,-1
 160 1004 l 1,11,-1
 334 1004 l 1,12,-1
 334 362 l 2,13,14
 334 131 334 131 508 131 c 0,15,16
 540 131 540 131 570.5 140.5 c 128,-1,17
 601 150 601 150 634.5 173.5 c 128,-1,18
 668 197 668 197 706.5 237 c 128,-1,19
 745 277 745 277 793 338 c 1,20,-1
 793 1004 l 1,21,-1
 967 1004 l 1,22,-1
 967 0 l 1,0,-1
EndSplineSet
Substitution2: "'ordn' Ordinals in Latin lookup 38 subtable" uni1D58
Substitution2: "'sups' Superscript lookup 34 subtable" uni1D58
EndChar
StartChar: v
Encoding: 118 118 152
Width: 1126
GlyphClass: 2
Flags: W
AnchorPoint: "Anchor-11" 0 1700 basechar 0
AnchorPoint: "Anchor-10" 1126 1700 basechar 0
AnchorPoint: "Anchor-9" 590 0 basechar 0
AnchorPoint: "Anchor-7" 920 1000 basechar 0
AnchorPoint: "Anchor-6" 1126 -350 basechar 0
AnchorPoint: "Anchor-5" 1126 1700 basechar 0
AnchorPoint: "Anchor-4" 910 1000 basechar 0
AnchorPoint: "Anchor-2" 563 -180 basechar 0
AnchorPoint: "Anchor-1" 1103 1160 basechar 0
AnchorPoint: "Anchor-0" 563 1200 basechar 0
LayerCount: 2
Back
Fore
SplineSet
66 1004 m 1,0,-1
 264 1004 l 1,1,-1
 510 340 l 1,2,-1
 563 178 l 1,3,-1
 618 344 l 1,4,-1
 862 1004 l 1,5,-1
 1053 1004 l 1,6,-1
 659 0 l 1,7,-1
 459 0 l 1,8,-1
 66 1004 l 1,0,-1
EndSplineSet
Substitution2: "'ordn' Ordinals in Latin lookup 38 subtable" uni1D5B
Substitution2: "'sups' Superscript lookup 34 subtable" uni1D5B
EndChar
StartChar: w
Encoding: 119 119 153
Width: 1126
GlyphClass: 2
Flags: W
AnchorPoint: "Anchor-11" 0 1700 basechar 0
AnchorPoint: "Anchor-10" 1126 1700 basechar 0
AnchorPoint: "Anchor-9" 880 0 basechar 0
AnchorPoint: "Anchor-7" 980 1000 basechar 0
AnchorPoint: "Anchor-6" 1126 -350 basechar 0
AnchorPoint: "Anchor-5" 1126 1700 basechar 0
AnchorPoint: "Anchor-4" 980 1000 basechar 0
AnchorPoint: "Anchor-2" 563 -180 basechar 0
AnchorPoint: "Anchor-1" 1140 1160 basechar 0
AnchorPoint: "Anchor-0" 563 1200 basechar 0
LayerCount: 2
Back
Fore
SplineSet
1090 1004 m 1,0,-1
 944 0 l 1,1,-1
 733 0 l 1,2,-1
 588 420 l 1,3,-1
 559 522 l 1,4,-1
 526 414 l 1,5,-1
 387 0 l 1,6,-1
 182 0 l 1,7,-1
 37 1004 l 1,8,-1
 207 1004 l 1,9,-1
 291 322 l 1,10,-1
 309 170 l 1,11,-1
 352 303 l 1,12,-1
 498 754 l 1,13,-1
 623 754 l 1,14,-1
 780 309 l 1,15,-1
 825 176 l 1,16,-1
 840 317 l 1,17,-1
 918 1004 l 1,18,-1
 1090 1004 l 1,0,-1
EndSplineSet
Substitution2: "'ordn' Ordinals in Latin lookup 38 subtable" uni02B7
Substitution2: "'sups' Superscript lookup 34 subtable" uni02B7
EndChar
StartChar: x
Encoding: 120 120 154
Width: 1126
GlyphClass: 2
Flags: W
AnchorPoint: "Anchor-11" 0 1700 basechar 0
AnchorPoint: "Anchor-10" 1126 1700 basechar 0
AnchorPoint: "Anchor-9" 990 0 basechar 0
AnchorPoint: "Anchor-7" 880 1000 basechar 0
AnchorPoint: "Anchor-6" 1126 -350 basechar 0
AnchorPoint: "Anchor-5" 1126 1700 basechar 0
AnchorPoint: "Anchor-4" 870 1000 basechar 0
AnchorPoint: "Anchor-2" 563 -180 basechar 0
AnchorPoint: "Anchor-1" 1085 1160 basechar 0
AnchorPoint: "Anchor-0" 563 1200 basechar 0
LayerCount: 2
Back
Fore
SplineSet
1065 0 m 1,0,-1
 834 0 l 1,1,-1
 563 383 l 1,2,-1
 295 0 l 1,3,-1
 70 0 l 1,4,-1
 459 504 l 1,5,-1
 88 1004 l 1,6,-1
 311 1004 l 1,7,-1
 575 618 l 1,8,-1
 834 1004 l 1,9,-1
 1049 1004 l 1,10,-1
 672 500 l 1,11,-1
 1065 0 l 1,0,-1
EndSplineSet
EndChar
StartChar: y
Encoding: 121 121 155
Width: 1126
GlyphClass: 2
Flags: W
AnchorPoint: "Anchor-11" 0 1700 basechar 0
AnchorPoint: "Anchor-10" 1126 1700 basechar 0
AnchorPoint: "Anchor-9" 350 -350 basechar 0
AnchorPoint: "Anchor-7" 920 1000 basechar 0
AnchorPoint: "Anchor-6" 1126 -350 basechar 0
AnchorPoint: "Anchor-5" 1126 1700 basechar 0
AnchorPoint: "Anchor-4" 920 1000 basechar 0
AnchorPoint: "Anchor-2" 563 -500 basechar 0
AnchorPoint: "Anchor-1" 1103 1160 basechar 0
AnchorPoint: "Anchor-0" 563 1200 basechar 0
LayerCount: 2
Back
Fore
SplineSet
1053 1004 m 1,0,-1
 711 106 l 2,1,2
 658 -31 658 -31 601.5 -130 c 128,-1,3
 545 -229 545 -229 478 -292.5 c 128,-1,4
 411 -356 411 -356 331 -386 c 128,-1,5
 251 -416 251 -416 152 -416 c 0,6,7
 126 -416 126 -416 105 -415 c 128,-1,8
 84 -414 84 -414 59 -412 c 1,9,-1
 59 -254 l 1,10,11
 81 -257 81 -257 107 -259.5 c 128,-1,12
 133 -262 133 -262 162 -262 c 0,13,14
 210 -262 210 -262 251.5 -248 c 128,-1,15
 293 -234 293 -234 330 -202.5 c 128,-1,16
 367 -171 367 -171 401 -121 c 128,-1,17
 435 -71 435 -71 467 0 c 1,18,-1
 66 1004 l 1,19,-1
 264 1004 l 1,20,-1
 518 340 l 1,21,-1
 569 184 l 1,22,-1
 627 344 l 1,23,-1
 862 1004 l 1,24,-1
 1053 1004 l 1,0,-1
EndSplineSet
Substitution2: "'ordn' Ordinals in Latin lookup 38 subtable" uni02B8
Substitution2: "'sups' Superscript lookup 34 subtable" uni02B8
EndChar
StartChar: z
Encoding: 122 122 156
Width: 1126
GlyphClass: 2
Flags: W
AnchorPoint: "Anchor-11" 0 1700 basechar 0
AnchorPoint: "Anchor-10" 1126 1700 basechar 0
AnchorPoint: "Anchor-9" 910 0 basechar 0
AnchorPoint: "Anchor-7" 840 1000 basechar 0
AnchorPoint: "Anchor-6" 1126 -350 basechar 0
AnchorPoint: "Anchor-5" 1126 1700 basechar 0
AnchorPoint: "Anchor-4" 850 1000 basechar 0
AnchorPoint: "Anchor-2" 563 -180 basechar 0
AnchorPoint: "Anchor-1" 983 1160 basechar 0
AnchorPoint: "Anchor-0" 563 1200 basechar 0
LayerCount: 2
Back
Fore
SplineSet
973 0 m 1,0,-1
 164 0 l 1,1,-1
 164 125 l 1,2,-1
 731 858 l 1,3,-1
 178 858 l 1,4,-1
 178 1004 l 1,5,-1
 940 1004 l 1,6,-1
 940 868 l 1,7,-1
 383 147 l 1,8,-1
 973 147 l 1,9,-1
 973 0 l 1,0,-1
EndSplineSet
Substitution2: "'ordn' Ordinals in Latin lookup 38 subtable" uni1DBB
Substitution2: "'sups' Superscript lookup 34 subtable" uni1DBB
EndChar
StartChar: braceleft
Encoding: 123 123 391
Width: 1126
Flags: W
LayerCount: 2
Back
Fore
SplineSet
897 -410 m 1,0,-1
 823 -410 l 2,1,2
 630 -410 630 -410 536 -319.5 c 128,-1,3
 442 -229 442 -229 442 -45 c 2,4,-1
 442 299 l 2,5,6
 442 348 442 348 431 386.5 c 128,-1,7
 420 425 420 425 392.5 451.5 c 128,-1,8
 365 478 365 478 319.5 492 c 128,-1,9
 274 506 274 506 205 506 c 2,10,-1
 162 506 l 1,11,-1
 162 645 l 1,12,-1
 205 645 l 2,13,14
 278 645 278 645 324 657 c 128,-1,15
 370 669 370 669 396 693.5 c 128,-1,16
 422 718 422 718 432 756 c 128,-1,17
 442 794 442 794 442 846 c 2,18,-1
 442 1083 l 2,19,20
 442 1167 442 1167 462 1234.5 c 128,-1,21
 482 1302 482 1302 527.5 1349.5 c 128,-1,22
 573 1397 573 1397 645.5 1422.5 c 128,-1,23
 718 1448 718 1448 823 1448 c 2,24,-1
 897 1448 l 1,25,-1
 897 1308 l 1,26,-1
 838 1308 l 2,27,28
 606 1308 606 1308 606 1083 c 2,29,-1
 606 850 l 2,30,31
 606 606 606 606 395 575 c 1,32,33
 608 554 608 554 608 301 c 2,34,-1
 608 -41 l 2,35,36
 608 -270 608 -270 838 -270 c 2,37,-1
 897 -270 l 1,38,-1
 897 -410 l 1,0,-1
EndSplineSet
Substitution2: "'case' Case-Sensitive Forms lookup 0 subtable" braceleft.case
EndChar
StartChar: bar
Encoding: 124 124 374
Width: 1126
Flags: W
LayerCount: 2
Back
Fore
SplineSet
645 -410 m 1,0,-1
 481 -410 l 1,1,-1
 481 1638 l 1,2,-1
 645 1638 l 1,3,-1
 645 -410 l 1,0,-1
EndSplineSet
EndChar
StartChar: braceright
Encoding: 125 125 392
Width: 1126
Flags: W
LayerCount: 2
Back
Fore
SplineSet
229 1448 m 1,0,-1
 303 1448 l 2,1,2
 496 1448 496 1448 590 1357.5 c 128,-1,3
 684 1267 684 1267 684 1083 c 2,4,-1
 684 852 l 2,5,6
 684 803 684 803 695 764.5 c 128,-1,7
 706 726 706 726 733.5 699.5 c 128,-1,8
 761 673 761 673 807 659 c 128,-1,9
 853 645 853 645 922 645 c 2,10,-1
 965 645 l 1,11,-1
 965 506 l 1,12,-1
 922 506 l 2,13,14
 849 506 849 506 802.5 494 c 128,-1,15
 756 482 756 482 730 457.5 c 128,-1,16
 704 433 704 433 694 395 c 128,-1,17
 684 357 684 357 684 305 c 2,18,-1
 684 -45 l 2,19,20
 684 -129 684 -129 664 -196.5 c 128,-1,21
 644 -264 644 -264 599 -311.5 c 128,-1,22
 554 -359 554 -359 481 -384.5 c 128,-1,23
 408 -410 408 -410 303 -410 c 2,24,-1
 229 -410 l 1,25,-1
 229 -270 l 1,26,-1
 289 -270 l 2,27,28
 520 -270 520 -270 520 -45 c 2,29,-1
 520 301 l 2,30,31
 520 545 520 545 731 575 c 1,32,33
 518 598 518 598 518 850 c 2,34,-1
 518 1079 l 2,35,36
 518 1308 518 1308 289 1308 c 2,37,-1
 229 1308 l 1,38,-1
 229 1448 l 1,0,-1
EndSplineSet
Substitution2: "'case' Case-Sensitive Forms lookup 0 subtable" braceright.case
EndChar
StartChar: asciitilde
Encoding: 126 126 588
Width: 1126
Flags: W
LayerCount: 2
Back
Fore
SplineSet
1061 696 m 1,0,1
 1062 620 1062 620 1045 555.5 c 128,-1,2
 1028 491 1028 491 992 444 c 128,-1,3
 956 397 956 397 902.5 370.5 c 128,-1,4
 849 344 849 344 778 344 c 0,5,6
 723 344 723 344 679 362.5 c 128,-1,7
 635 381 635 381 597.5 409 c 128,-1,8
 560 437 560 437 528.5 470 c 128,-1,9
 497 503 497 503 466.5 531 c 128,-1,10
 436 559 436 559 406 577.5 c 128,-1,11
 376 596 376 596 342 596 c 0,12,13
 283 596 283 596 254.5 549 c 128,-1,14
 226 502 226 502 226 401 c 1,15,-1
 66 401 l 1,16,17
 64 477 64 477 81.5 541.5 c 128,-1,18
 99 606 99 606 134.5 653.5 c 128,-1,19
 170 701 170 701 223.5 727.5 c 128,-1,20
 277 754 277 754 348 754 c 0,21,22
 403 754 403 754 447 735.5 c 128,-1,23
 491 717 491 717 528.5 689 c 128,-1,24
 566 661 566 661 597.5 628 c 128,-1,25
 629 595 629 595 659.5 567 c 128,-1,26
 690 539 690 539 720 520.5 c 128,-1,27
 750 502 750 502 784 502 c 0,28,29
 847 502 847 502 874 548 c 128,-1,30
 901 594 901 594 901 696 c 1,31,-1
 1061 696 l 1,0,1
EndSplineSet
EndChar
StartChar: exclamdown
Encoding: 161 161 353
Width: 1126
Flags: W
LayerCount: 2
Back
Fore
SplineSet
461 -410 m 1,0,-1
 487 621 l 1,1,-1
 641 621 l 1,2,-1
 672 -410 l 1,3,-1
 461 -410 l 1,0,-1
565 758 m 0,4,5
 538 758 538 758 514.5 768.5 c 128,-1,6
 491 779 491 779 473 797 c 128,-1,7
 455 815 455 815 444.5 839 c 128,-1,8
 434 863 434 863 434 891 c 0,9,10
 434 918 434 918 444.5 942 c 128,-1,11
 455 966 455 966 473 983.5 c 128,-1,12
 491 1001 491 1001 514.5 1011.5 c 128,-1,13
 538 1022 538 1022 565 1022 c 0,14,15
 593 1022 593 1022 617 1011.5 c 128,-1,16
 641 1001 641 1001 659 983.5 c 128,-1,17
 677 966 677 966 687.5 942 c 128,-1,18
 698 918 698 918 698 891 c 0,19,20
 698 863 698 863 687.5 839 c 128,-1,21
 677 815 677 815 659 797 c 128,-1,22
 641 779 641 779 617 768.5 c 128,-1,23
 593 758 593 758 565 758 c 0,4,5
EndSplineSet
Substitution2: "'case' Case-Sensitive Forms lookup 0 subtable" exclamdown.case
EndChar
StartChar: cent
Encoding: 162 162 605
Width: 1126
Flags: W
LayerCount: 2
Back
Fore
SplineSet
641 317 m 1,0,1
 712 317 712 317 778 331.5 c 128,-1,2
 844 346 844 346 907 377 c 1,3,-1
 907 219 l 1,4,5
 773 170 773 170 623 170 c 1,6,-1
 565 -250 l 1,7,-1
 420 -250 l 1,8,-1
 477 182 l 1,9,10
 306 217 306 217 215.5 336 c 128,-1,11
 125 455 125 455 125 657 c 0,12,13
 125 769 125 769 160 860.5 c 128,-1,14
 195 952 195 952 259 1018 c 128,-1,15
 323 1084 323 1084 412 1121.5 c 128,-1,16
 501 1159 501 1159 608 1163 c 1,17,-1
 651 1495 l 1,18,-1
 799 1495 l 1,19,-1
 754 1155 l 1,20,21
 794 1150 794 1150 832 1140.5 c 128,-1,22
 870 1131 870 1131 907 1118 c 1,23,-1
 907 954 l 1,24,25
 865 974 865 974 822 988 c 128,-1,26
 779 1002 779 1002 735 1010 c 1,27,-1
 641 317 l 1,0,1
588 1014 m 1,28,29
 529 1006 529 1006 477.5 979.5 c 128,-1,30
 426 953 426 953 388 908.5 c 128,-1,31
 350 864 350 864 328.5 803 c 128,-1,32
 307 742 307 742 307 666 c 0,33,34
 307 535 307 535 357 453.5 c 128,-1,35
 407 372 407 372 498 338 c 1,36,-1
 588 1014 l 1,28,29
EndSplineSet
EndChar
StartChar: sterling
Encoding: 163 163 606
Width: 1126
Flags: W
LayerCount: 2
Back
Fore
SplineSet
866 722 m 1,0,-1
 866 579 l 1,1,-1
 430 579 l 1,2,-1
 430 148 l 1,3,-1
 997 148 l 1,4,-1
 997 0 l 1,5,-1
 92 0 l 1,6,-1
 92 148 l 1,7,-1
 252 148 l 1,8,-1
 252 579 l 1,9,-1
 92 579 l 1,10,-1
 92 722 l 1,11,-1
 252 722 l 1,12,-1
 252 902 l 2,13,14
 252 1003 252 1003 281.5 1081.5 c 128,-1,15
 311 1160 311 1160 365.5 1214 c 128,-1,16
 420 1268 420 1268 497.5 1296.5 c 128,-1,17
 575 1325 575 1325 672 1325 c 0,18,19
 778 1325 778 1325 862 1287.5 c 128,-1,20
 946 1250 946 1250 1006 1195 c 1,21,-1
 909 1084 l 1,22,23
 883 1106 883 1106 857 1123.5 c 128,-1,24
 831 1141 831 1141 802.5 1153 c 128,-1,25
 774 1165 774 1165 741 1171 c 128,-1,26
 708 1177 708 1177 668 1177 c 0,27,28
 614 1177 614 1177 570 1160 c 128,-1,29
 526 1143 526 1143 495 1110 c 128,-1,30
 464 1077 464 1077 447 1028.5 c 128,-1,31
 430 980 430 980 430 916 c 2,32,-1
 430 722 l 1,33,-1
 866 722 l 1,0,-1
EndSplineSet
EndChar
StartChar: currency
Encoding: 164 164 601
Width: 1126
Flags: W
LayerCount: 2
Back
Fore
SplineSet
739 291 m 1,0,1
 701 269 701 269 655 257.5 c 128,-1,2
 609 246 609 246 555 246 c 0,3,4
 452 246 452 246 377 283 c 1,5,-1
 236 61 l 1,6,-1
 86 152 l 1,7,-1
 260 381 l 1,8,9
 225 432 225 432 205.5 500.5 c 128,-1,10
 186 569 186 569 186 655 c 0,11,12
 186 733 186 733 207 802.5 c 128,-1,13
 228 872 228 872 268 928 c 1,14,-1
 86 1171 l 1,15,-1
 240 1262 l 1,16,-1
 387 1032 l 1,17,18
 425 1054 425 1054 471 1065.5 c 128,-1,19
 517 1077 517 1077 571 1077 c 0,20,21
 673 1077 673 1077 750 1040 c 1,22,-1
 891 1262 l 1,23,-1
 1040 1171 l 1,24,-1
 866 942 l 1,25,26
 901 891 901 891 920.5 822.5 c 128,-1,27
 940 754 940 754 940 668 c 0,28,29
 940 590 940 590 919 520.5 c 128,-1,30
 898 451 898 451 858 395 c 1,31,-1
 1040 152 l 1,32,-1
 887 61 l 1,33,-1
 739 291 l 1,0,1
760 662 m 0,34,35
 760 793 760 793 707 858.5 c 128,-1,36
 654 924 654 924 563 924 c 0,37,38
 511 924 511 924 474 900.5 c 128,-1,39
 437 877 437 877 412.5 839.5 c 128,-1,40
 388 802 388 802 377 755 c 128,-1,41
 366 708 366 708 366 662 c 0,42,43
 366 531 366 531 419 465 c 128,-1,44
 472 399 472 399 563 399 c 0,45,46
 615 399 615 399 652.5 423 c 128,-1,47
 690 447 690 447 714 484.5 c 128,-1,48
 738 522 738 522 749 569 c 128,-1,49
 760 616 760 616 760 662 c 0,34,35
EndSplineSet
EndChar
StartChar: yen
Encoding: 165 165 608
Width: 1126
Flags: W
LayerCount: 2
Back
Fore
SplineSet
1077 1307 m 1,0,-1
 653 602 l 1,1,-1
 653 573 l 1,2,-1
 961 573 l 1,3,-1
 961 438 l 1,4,-1
 653 438 l 1,5,-1
 653 276 l 1,6,-1
 961 276 l 1,7,-1
 961 141 l 1,8,-1
 653 141 l 1,9,-1
 653 0 l 1,10,-1
 473 0 l 1,11,-1
 473 141 l 1,12,-1
 166 141 l 1,13,-1
 166 276 l 1,14,-1
 473 276 l 1,15,-1
 473 438 l 1,16,-1
 164 438 l 1,17,-1
 164 573 l 1,18,-1
 473 573 l 1,19,-1
 473 602 l 1,20,-1
 55 1307 l 1,21,-1
 260 1307 l 1,22,-1
 469 940 l 1,23,-1
 569 752 l 1,24,-1
 676 944 l 1,25,-1
 881 1307 l 1,26,-1
 1077 1307 l 1,0,-1
EndSplineSet
EndChar
StartChar: brokenbar
Encoding: 166 166 589
Width: 1126
Flags: W
LayerCount: 2
Back
Fore
SplineSet
645 -410 m 1,0,-1
 481 -410 l 1,1,-1
 481 426 l 1,2,-1
 645 426 l 1,3,-1
 645 -410 l 1,0,-1
481 827 m 1,4,-1
 481 1638 l 1,5,-1
 645 1638 l 1,6,-1
 645 827 l 1,7,-1
 481 827 l 1,4,-1
EndSplineSet
EndChar
StartChar: section
Encoding: 167 167 398
Width: 1126
Flags: W
LayerCount: 2
Back
Fore
SplineSet
815 238 m 1,0,1
 847 212 847 212 870 171 c 128,-1,2
 893 130 893 130 893 82 c 0,3,4
 893 -1 893 -1 854 -60.5 c 128,-1,5
 815 -120 815 -120 754 -158.5 c 128,-1,6
 693 -197 693 -197 618.5 -215 c 128,-1,7
 544 -233 544 -233 473 -233 c 0,8,9
 422 -233 422 -233 382 -231 c 128,-1,10
 342 -229 342 -229 307 -225 c 128,-1,11
 272 -221 272 -221 240 -214.5 c 128,-1,12
 208 -208 208 -208 174 -199 c 1,13,-1
 174 -39 l 1,14,15
 211 -51 211 -51 245.5 -60 c 128,-1,16
 280 -69 280 -69 315 -75 c 128,-1,17
 350 -81 350 -81 387.5 -83.5 c 128,-1,18
 425 -86 425 -86 467 -86 c 0,19,20
 592 -86 592 -86 652.5 -44.5 c 128,-1,21
 713 -3 713 -3 713 70 c 0,22,23
 713 103 713 103 688.5 132 c 128,-1,24
 664 161 664 161 623.5 189 c 128,-1,25
 583 217 583 217 532 246 c 128,-1,26
 481 275 481 275 427 307.5 c 128,-1,27
 373 340 373 340 322 377 c 128,-1,28
 271 414 271 414 230.5 458.5 c 128,-1,29
 190 503 190 503 165.5 556 c 128,-1,30
 141 609 141 609 141 674 c 0,31,32
 141 713 141 713 152 753 c 128,-1,33
 163 793 163 793 185 830.5 c 128,-1,34
 207 868 207 868 240 901.5 c 128,-1,35
 273 935 273 935 317 961 c 1,36,37
 288 985 288 985 265 1025.5 c 128,-1,38
 242 1066 242 1066 242 1120 c 0,39,40
 242 1168 242 1168 261.5 1221.5 c 128,-1,41
 281 1275 281 1275 328 1320 c 128,-1,42
 375 1365 375 1365 455 1395 c 128,-1,43
 535 1425 535 1425 655 1425 c 0,44,45
 770 1425 770 1425 881 1401 c 1,46,-1
 881 1251 l 1,47,48
 818 1268 818 1268 762.5 1275 c 128,-1,49
 707 1282 707 1282 651 1282 c 0,50,51
 586 1282 586 1282 542.5 1271 c 128,-1,52
 499 1260 499 1260 472 1240.5 c 128,-1,53
 445 1221 445 1221 433.5 1194 c 128,-1,54
 422 1167 422 1167 422 1135 c 0,55,56
 422 1101 422 1101 446.5 1071.5 c 128,-1,57
 471 1042 471 1042 511 1013 c 128,-1,58
 551 984 551 984 602 955 c 128,-1,59
 653 926 653 926 706.5 893.5 c 128,-1,60
 760 861 760 861 811 824 c 128,-1,61
 862 787 862 787 902 742 c 128,-1,62
 942 697 942 697 966.5 643.5 c 128,-1,63
 991 590 991 590 991 524 c 0,64,65
 991 484 991 484 979.5 444 c 128,-1,66
 968 404 968 404 945.5 366.5 c 128,-1,67
 923 329 923 329 890 296 c 128,-1,68
 857 263 857 263 815 238 c 1,0,1
696 328 m 1,69,70
 727 343 727 343 750 365.5 c 128,-1,71
 773 388 773 388 789 413 c 128,-1,72
 805 438 805 438 813 463.5 c 128,-1,73
 821 489 821 489 821 510 c 0,74,75
 821 571 821 571 784 619.5 c 128,-1,76
 747 668 747 668 690 709.5 c 128,-1,77
 633 751 633 751 564.5 789.5 c 128,-1,78
 496 828 496 828 434 870 c 1,79,80
 404 855 404 855 381 833 c 128,-1,81
 358 811 358 811 342.5 786 c 128,-1,82
 327 761 327 761 319 736 c 128,-1,83
 311 711 311 711 311 690 c 0,84,85
 311 629 311 629 347 580.5 c 128,-1,86
 383 532 383 532 439.5 489.5 c 128,-1,87
 496 447 496 447 564 408 c 128,-1,88
 632 369 632 369 696 328 c 1,69,70
EndSplineSet
EndChar
StartChar: dieresis
Encoding: 168 168 327
Width: 1126
Flags: W
LayerCount: 2
Back
Fore
SplineSet
348 1405 m 256,0,1
 371 1405 371 1405 391.5 1396 c 128,-1,2
 412 1387 412 1387 427.5 1371.5 c 128,-1,3
 443 1356 443 1356 452 1335.5 c 128,-1,4
 461 1315 461 1315 461 1292 c 256,5,6
 461 1269 461 1269 452 1248.5 c 128,-1,7
 443 1228 443 1228 427.5 1213 c 128,-1,8
 412 1198 412 1198 391.5 1189 c 128,-1,9
 371 1180 371 1180 348 1180 c 256,10,11
 325 1180 325 1180 304.5 1189 c 128,-1,12
 284 1198 284 1198 269 1213 c 128,-1,13
 254 1228 254 1228 245 1248.5 c 128,-1,14
 236 1269 236 1269 236 1292 c 256,15,16
 236 1315 236 1315 245 1335.5 c 128,-1,17
 254 1356 254 1356 269 1371.5 c 128,-1,18
 284 1387 284 1387 304.5 1396 c 128,-1,19
 325 1405 325 1405 348 1405 c 256,0,1
778 1405 m 256,20,21
 801 1405 801 1405 821.5 1396 c 128,-1,22
 842 1387 842 1387 857.5 1371.5 c 128,-1,23
 873 1356 873 1356 882 1335.5 c 128,-1,24
 891 1315 891 1315 891 1292 c 256,25,26
 891 1269 891 1269 882 1248.5 c 128,-1,27
 873 1228 873 1228 857.5 1213 c 128,-1,28
 842 1198 842 1198 821.5 1189 c 128,-1,29
 801 1180 801 1180 778 1180 c 256,30,31
 755 1180 755 1180 734.5 1189 c 128,-1,32
 714 1198 714 1198 699 1213 c 128,-1,33
 684 1228 684 1228 675 1248.5 c 128,-1,34
 666 1269 666 1269 666 1292 c 256,35,36
 666 1315 666 1315 675 1335.5 c 128,-1,37
 684 1356 684 1356 699 1371.5 c 128,-1,38
 714 1387 714 1387 734.5 1396 c 128,-1,39
 755 1405 755 1405 778 1405 c 256,20,21
0 1004 m 1024,40,-1
EndSplineSet
EndChar
StartChar: copyright
Encoding: 169 169 596
Width: 1126
Flags: W
LayerCount: 2
Back
Fore
SplineSet
565 1323 m 0,0,1
 694 1323 694 1323 796 1271.5 c 128,-1,2
 898 1220 898 1220 968.5 1129.5 c 128,-1,3
 1039 1039 1039 1039 1076.5 916.5 c 128,-1,4
 1114 794 1114 794 1114 653 c 0,5,6
 1114 505 1114 505 1074.5 382 c 128,-1,7
 1035 259 1035 259 962 170.5 c 128,-1,8
 889 82 889 82 787 33 c 128,-1,9
 685 -16 685 -16 561 -16 c 0,10,11
 432 -16 432 -16 330 35.5 c 128,-1,12
 228 87 228 87 157.5 177 c 128,-1,13
 87 267 87 267 49.5 389.5 c 128,-1,14
 12 512 12 512 12 653 c 0,15,16
 12 801 12 801 51.5 924 c 128,-1,17
 91 1047 91 1047 164 1135.5 c 128,-1,18
 237 1224 237 1224 338.5 1273.5 c 128,-1,19
 440 1323 440 1323 565 1323 c 0,0,1
563 1192 m 0,20,21
 473 1192 473 1192 398.5 1153.5 c 128,-1,22
 324 1115 324 1115 271 1044.5 c 128,-1,23
 218 974 218 974 189 874.5 c 128,-1,24
 160 775 160 775 160 653 c 0,25,26
 160 539 160 539 188.5 440.5 c 128,-1,27
 217 342 217 342 269.5 269.5 c 128,-1,28
 322 197 322 197 396.5 156 c 128,-1,29
 471 115 471 115 563 115 c 0,30,31
 654 115 654 115 728.5 153.5 c 128,-1,32
 803 192 803 192 856 262.5 c 128,-1,33
 909 333 909 333 937.5 432 c 128,-1,34
 966 531 966 531 966 653 c 0,35,36
 966 767 966 767 938 865.5 c 128,-1,37
 910 964 910 964 857.5 1036.5 c 128,-1,38
 805 1109 805 1109 730 1150.5 c 128,-1,39
 655 1192 655 1192 563 1192 c 0,20,21
770 352 m 1,40,41
 687 319 687 319 596 319 c 0,42,43
 299 319 299 319 299 647 c 0,44,45
 299 725 299 725 320.5 787.5 c 128,-1,46
 342 850 342 850 381.5 894.5 c 128,-1,47
 421 939 421 939 477 963 c 128,-1,48
 533 987 533 987 602 987 c 0,49,50
 695 987 695 987 770 956 c 1,51,-1
 770 822 l 1,52,53
 735 841 735 841 698 851 c 128,-1,54
 661 861 661 861 623 861 c 0,55,56
 541 861 541 861 496 806.5 c 128,-1,57
 451 752 451 752 451 650 c 0,58,59
 451 544 451 544 495.5 494.5 c 128,-1,60
 540 445 540 445 625 445 c 0,61,62
 701 445 701 445 770 482 c 1,63,-1
 770 352 l 1,40,41
EndSplineSet
EndChar
StartChar: ordfeminine
Encoding: 170 170 609
Width: 1126
Flags: W
LayerCount: 2
Back
Fore
SplineSet
901 358 m 1,0,-1
 225 358 l 1,1,-1
 225 494 l 1,2,-1
 901 494 l 1,3,-1
 901 358 l 1,0,-1
707 631 m 1,4,-1
 696 723 l 1,5,6
 650 675 650 675 593.5 645.5 c 128,-1,7
 537 616 537 616 459 616 c 0,8,9
 360 616 360 616 302 667.5 c 128,-1,10
 244 719 244 719 244 821 c 0,11,12
 244 918 244 918 327 977 c 128,-1,13
 410 1036 410 1036 578 1036 c 2,14,-1
 682 1036 l 1,15,-1
 682 1085 l 2,16,17
 682 1136 682 1136 647.5 1167 c 128,-1,18
 613 1198 613 1198 530 1198 c 0,19,20
 481 1198 481 1198 420 1184 c 128,-1,21
 359 1170 359 1170 297 1145 c 1,22,-1
 297 1278 l 1,23,24
 348 1298 348 1298 414 1309.5 c 128,-1,25
 480 1321 480 1321 549 1321 c 0,26,27
 627 1321 627 1321 682 1305 c 128,-1,28
 737 1289 737 1289 772 1259 c 128,-1,29
 807 1229 807 1229 823.5 1186.5 c 128,-1,30
 840 1144 840 1144 840 1092 c 2,31,-1
 840 631 l 1,32,-1
 707 631 l 1,4,-1
682 928 m 1,33,-1
 563 928 l 2,34,35
 522 928 522 928 493 920 c 128,-1,36
 464 912 464 912 445.5 897.5 c 128,-1,37
 427 883 427 883 418.5 864.5 c 128,-1,38
 410 846 410 846 410 825 c 0,39,40
 410 783 410 783 434 761 c 128,-1,41
 458 739 458 739 506 739 c 0,42,43
 546 739 546 739 590 761.5 c 128,-1,44
 634 784 634 784 682 827 c 1,45,-1
 682 928 l 1,33,-1
EndSplineSet
EndChar
StartChar: guillemotleft
Encoding: 171 171 369
Width: 1126
Flags: W
LayerCount: 2
Back
Fore
SplineSet
539 877 m 1,0,-1
 321 543 l 1,1,-1
 539 207 l 1,2,-1
 401 137 l 1,3,-1
 143 543 l 1,4,-1
 401 946 l 1,5,-1
 539 877 l 1,0,-1
971 870 m 1,6,-1
 737 543 l 1,7,-1
 971 215 l 1,8,-1
 838 143 l 1,9,-1
 563 543 l 1,10,-1
 838 942 l 1,11,-1
 971 870 l 1,6,-1
EndSplineSet
Substitution2: "'case' Case-Sensitive Forms lookup 0 subtable" guillemotleft.case
EndChar
StartChar: logicalnot
Encoding: 172 172 695
Width: 1126
Flags: W
LayerCount: 2
Back
Fore
SplineSet
971 174 m 1,0,-1
 801 174 l 1,1,-1
 801 469 l 1,2,-1
 117 469 l 1,3,-1
 117 621 l 1,4,-1
 971 621 l 1,5,-1
 971 174 l 1,0,-1
EndSplineSet
EndChar
StartChar: registered
Encoding: 174 174 598
Width: 1126
Flags: W
LayerCount: 2
Back
Fore
SplineSet
664 709 m 1,0,-1
 590 877 l 2,1,2
 579 900 579 900 561.5 912 c 128,-1,3
 544 924 544 924 518 924 c 2,4,-1
 498 924 l 1,5,-1
 498 709 l 1,6,-1
 397 709 l 1,7,-1
 397 1229 l 1,8,-1
 553 1229 l 2,9,10
 641 1229 641 1229 693 1197 c 128,-1,11
 745 1165 745 1165 745 1085 c 0,12,13
 745 1028 745 1028 712.5 996 c 128,-1,14
 680 964 680 964 631 956 c 1,15,16
 649 951 649 951 665 934 c 128,-1,17
 681 917 681 917 698 883 c 2,18,-1
 780 709 l 1,19,-1
 664 709 l 1,0,-1
641 1075 m 0,20,21
 641 1113 641 1113 616.5 1130 c 128,-1,22
 592 1147 592 1147 543 1147 c 2,23,-1
 498 1147 l 1,24,-1
 498 1001 l 1,25,-1
 539 1001 l 2,26,27
 585 1001 585 1001 613 1019.5 c 128,-1,28
 641 1038 641 1038 641 1075 c 0,20,21
563 1323 m 0,29,30
 492 1323 492 1323 429.5 1295 c 128,-1,31
 367 1267 367 1267 320.5 1219 c 128,-1,32
 274 1171 274 1171 247.5 1106.5 c 128,-1,33
 221 1042 221 1042 221 969 c 0,34,35
 221 895 221 895 247.5 830.5 c 128,-1,36
 274 766 274 766 320.5 718 c 128,-1,37
 367 670 367 670 429.5 642 c 128,-1,38
 492 614 492 614 563 614 c 0,39,40
 635 614 635 614 697 642 c 128,-1,41
 759 670 759 670 805.5 718 c 128,-1,42
 852 766 852 766 878.5 830.5 c 128,-1,43
 905 895 905 895 905 969 c 0,44,45
 905 1042 905 1042 878.5 1106.5 c 128,-1,46
 852 1171 852 1171 805.5 1219 c 128,-1,47
 759 1267 759 1267 697 1295 c 128,-1,48
 635 1323 635 1323 563 1323 c 0,29,30
563 1425 m 0,49,50
 657 1425 657 1425 740.5 1389 c 128,-1,51
 824 1353 824 1353 886 1291.5 c 128,-1,52
 948 1230 948 1230 984 1146.5 c 128,-1,53
 1020 1063 1020 1063 1020 969 c 0,54,55
 1020 874 1020 874 984 791 c 128,-1,56
 948 708 948 708 886 646 c 128,-1,57
 824 584 824 584 740.5 548 c 128,-1,58
 657 512 657 512 563 512 c 0,59,60
 468 512 468 512 385 548 c 128,-1,61
 302 584 302 584 240 646 c 128,-1,62
 178 708 178 708 142 791 c 128,-1,63
 106 874 106 874 106 969 c 0,64,65
 106 1063 106 1063 142 1146.5 c 128,-1,66
 178 1230 178 1230 240 1291.5 c 128,-1,67
 302 1353 302 1353 385 1389 c 128,-1,68
 468 1425 468 1425 563 1425 c 0,49,50
EndSplineSet
EndChar
StartChar: degree
Encoding: 176 176 696
Width: 1126
Flags: W
LayerCount: 2
Back
Fore
SplineSet
913 1096 m 0,0,1
 913 1024 913 1024 887 961.5 c 128,-1,2
 861 899 861 899 814 853 c 128,-1,3
 767 807 767 807 701.5 780.5 c 128,-1,4
 636 754 636 754 557 754 c 0,5,6
 474 754 474 754 410 778 c 128,-1,7
 346 802 346 802 302 845.5 c 128,-1,8
 258 889 258 889 235.5 949.5 c 128,-1,9
 213 1010 213 1010 213 1083 c 0,10,11
 213 1155 213 1155 239 1217.5 c 128,-1,12
 265 1280 265 1280 312 1326 c 128,-1,13
 359 1372 359 1372 424.5 1398.5 c 128,-1,14
 490 1425 490 1425 569 1425 c 0,15,16
 652 1425 652 1425 716.5 1401 c 128,-1,17
 781 1377 781 1377 824.5 1333.5 c 128,-1,18
 868 1290 868 1290 890.5 1229.5 c 128,-1,19
 913 1169 913 1169 913 1096 c 0,0,1
751 1090 m 0,20,21
 751 1133 751 1133 740 1169.5 c 128,-1,22
 729 1206 729 1206 706.5 1233 c 128,-1,23
 684 1260 684 1260 648.5 1275 c 128,-1,24
 613 1290 613 1290 563 1290 c 0,25,26
 518 1290 518 1290 483 1275.5 c 128,-1,27
 448 1261 448 1261 424 1235 c 128,-1,28
 400 1209 400 1209 387.5 1172 c 128,-1,29
 375 1135 375 1135 375 1090 c 0,30,31
 375 1047 375 1047 385.5 1010 c 128,-1,32
 396 973 396 973 419 946 c 128,-1,33
 442 919 442 919 477.5 904 c 128,-1,34
 513 889 513 889 563 889 c 0,35,36
 653 889 653 889 702 944 c 128,-1,37
 751 999 751 999 751 1090 c 0,20,21
EndSplineSet
EndChar
StartChar: plusminus
Encoding: 177 177 685
Width: 1126
Flags: W
LayerCount: 2
Back
Fore
SplineSet
1022 684 m 1,0,-1
 647 684 l 1,1,-1
 647 295 l 1,2,-1
 479 295 l 1,3,-1
 479 684 l 1,4,-1
 104 684 l 1,5,-1
 104 831 l 1,6,-1
 479 831 l 1,7,-1
 479 1219 l 1,8,-1
 647 1219 l 1,9,-1
 647 831 l 1,10,-1
 1022 831 l 1,11,-1
 1022 684 l 1,0,-1
993 0 m 1,12,-1
 133 0 l 1,13,-1
 133 145 l 1,14,-1
 993 145 l 1,15,-1
 993 0 l 1,12,-1
EndSplineSet
EndChar
StartChar: acute
Encoding: 180 180 318
Width: 1126
Flags: W
LayerCount: 2
Back
Fore
SplineSet
952 1413 m 1,0,-1
 633 1171 l 1,1,-1
 459 1171 l 1,2,-1
 700 1413 l 1,3,-1
 952 1413 l 1,0,-1
0 1004 m 1024,4,-1
EndSplineSet
Substitution2: "'locl' Localized Forms in Greek lookup 36 subtable" uni1FFD
EndChar
StartChar: paragraph
Encoding: 182 182 399
Width: 1126
Flags: W
LayerCount: 2
Back
Fore
SplineSet
655 571 m 1,0,1
 500 571 500 571 395.5 604.5 c 128,-1,2
 291 638 291 638 227 695.5 c 128,-1,3
 163 753 163 753 136 830.5 c 128,-1,4
 109 908 109 908 109 995 c 256,5,6
 109 1082 109 1082 141.5 1158 c 128,-1,7
 174 1234 174 1234 240.5 1291 c 128,-1,8
 307 1348 307 1348 409 1380.5 c 128,-1,9
 511 1413 511 1413 651 1413 c 2,10,-1
 997 1413 l 1,11,-1
 997 205 l 2,12,13
 997 100 997 100 967.5 18 c 128,-1,14
 938 -64 938 -64 882.5 -119.5 c 128,-1,15
 827 -175 827 -175 747.5 -204 c 128,-1,16
 668 -233 668 -233 569 -233 c 256,17,18
 470 -233 470 -233 384 -201 c 128,-1,19
 298 -169 298 -169 225 -111 c 1,20,-1
 315 20 l 1,21,22
 368 -26 368 -26 436.5 -55 c 128,-1,23
 505 -84 505 -84 578 -84 c 0,24,25
 692 -84 692 -84 757.5 -13 c 128,-1,26
 823 58 823 58 823 199 c 2,27,-1
 823 1270 l 1,28,-1
 655 1270 l 1,29,-1
 655 571 l 1,0,1
EndSplineSet
EndChar
StartChar: periodcentered
Encoding: 183 183 381
AltUni2: 002219.ffffffff.0
Width: 1126
Flags: W
LayerCount: 2
Back
Fore
SplineSet
563 733 m 0,0,1
 597 733 597 733 627.5 719.5 c 128,-1,2
 658 706 658 706 680.5 683.5 c 128,-1,3
 703 661 703 661 716 630 c 128,-1,4
 729 599 729 599 729 565 c 256,5,6
 729 531 729 531 716 501 c 128,-1,7
 703 471 703 471 680.5 448.5 c 128,-1,8
 658 426 658 426 627.5 412.5 c 128,-1,9
 597 399 597 399 563 399 c 0,10,11
 528 399 528 399 498 412.5 c 128,-1,12
 468 426 468 426 445.5 448.5 c 128,-1,13
 423 471 423 471 410 501 c 128,-1,14
 397 531 397 531 397 565 c 256,15,16
 397 599 397 599 410 630 c 128,-1,17
 423 661 423 661 445.5 683.5 c 128,-1,18
 468 706 468 706 498 719.5 c 128,-1,19
 528 733 528 733 563 733 c 0,0,1
EndSplineSet
Substitution2: "'case' Case-Sensitive Forms lookup 0 subtable" periodcentered.case
EndChar
StartChar: cedilla
Encoding: 184 184 340
Width: 1126
Flags: W
LayerCount: 2
Back
Fore
SplineSet
674 0 m 1,0,-1
 588 -295 l 1,1,-1
 436 -295 l 1,2,-1
 502 0 l 1,3,-1
 674 0 l 1,0,-1
EndSplineSet
EndChar
StartChar: ordmasculine
Encoding: 186 186 610
Width: 1126
Flags: W
LayerCount: 2
Back
Fore
SplineSet
901 358 m 1,0,-1
 225 358 l 1,1,-1
 225 494 l 1,2,-1
 901 494 l 1,3,-1
 901 358 l 1,0,-1
905 975 m 0,4,5
 905 900 905 900 881.5 834.5 c 128,-1,6
 858 769 858 769 813 720.5 c 128,-1,7
 768 672 768 672 703.5 644 c 128,-1,8
 639 616 639 616 557 616 c 0,9,10
 479 616 479 616 416.5 638 c 128,-1,11
 354 660 354 660 310.5 703.5 c 128,-1,12
 267 747 267 747 244 812.5 c 128,-1,13
 221 878 221 878 221 965 c 0,14,15
 221 1041 221 1041 245 1106 c 128,-1,16
 269 1171 269 1171 314 1219 c 128,-1,17
 359 1267 359 1267 424.5 1294 c 128,-1,18
 490 1321 490 1321 573 1321 c 0,19,20
 651 1321 651 1321 712.5 1299 c 128,-1,21
 774 1277 774 1277 816.5 1233.5 c 128,-1,22
 859 1190 859 1190 882 1125 c 128,-1,23
 905 1060 905 1060 905 975 c 0,4,5
741 971 m 0,24,25
 741 1079 741 1079 695.5 1132 c 128,-1,26
 650 1185 650 1185 563 1185 c 0,27,28
 518 1185 518 1185 485 1168 c 128,-1,29
 452 1151 452 1151 429.5 1121.5 c 128,-1,30
 407 1092 407 1092 396 1052.5 c 128,-1,31
 385 1013 385 1013 385 969 c 0,32,33
 385 860 385 860 433.5 806 c 128,-1,34
 482 752 482 752 563 752 c 0,35,36
 608 752 608 752 641 768.5 c 128,-1,37
 674 785 674 785 696.5 814.5 c 128,-1,38
 719 844 719 844 730 884 c 128,-1,39
 741 924 741 924 741 971 c 0,24,25
EndSplineSet
EndChar
StartChar: guillemotright
Encoding: 187 187 370
Width: 1126
Flags: W
LayerCount: 2
Back
Fore
SplineSet
588 207 m 1,0,-1
 805 543 l 1,1,-1
 588 877 l 1,2,-1
 725 946 l 1,3,-1
 983 543 l 1,4,-1
 725 137 l 1,5,-1
 588 207 l 1,0,-1
156 215 m 1,6,-1
 389 543 l 1,7,-1
 156 870 l 1,8,-1
 289 942 l 1,9,-1
 563 543 l 1,10,-1
 289 143 l 1,11,-1
 156 215 l 1,6,-1
EndSplineSet
Substitution2: "'case' Case-Sensitive Forms lookup 0 subtable" guillemotright.case
EndChar
StartChar: onequarter
Encoding: 188 188 678
Width: 1126
Flags: W
LayerCount: 2
Back
Fore
SplineSet
1106 1413 m 1,0,-1
 184 0 l 1,1,-1
 20 0 l 1,2,-1
 940 1413 l 1,3,-1
 1106 1413 l 1,0,-1
246 844 m 1,4,-1
 246 1270 l 1,5,-1
 80 1180 l 1,6,-1
 25 1296 l 1,7,-1
 264 1425 l 1,8,-1
 403 1425 l 1,9,-1
 403 844 l 1,10,-1
 246 844 l 1,4,-1
1077 109 m 1,11,-1
 987 109 l 1,12,-1
 987 0 l 1,13,-1
 834 0 l 1,14,-1
 834 109 l 1,15,-1
 535 109 l 1,16,-1
 535 231 l 1,17,-1
 754 569 l 1,18,-1
 987 569 l 1,19,-1
 987 231 l 1,20,-1
 1077 231 l 1,21,-1
 1077 109 l 1,11,-1
834 457 m 1,22,-1
 688 231 l 1,23,-1
 834 231 l 1,24,-1
 834 457 l 1,22,-1
EndSplineSet
EndChar
StartChar: onehalf
Encoding: 189 189 679
Width: 1126
Flags: W
LayerCount: 2
Back
Fore
SplineSet
1106 1413 m 1,0,-1
 184 0 l 1,1,-1
 20 0 l 1,2,-1
 940 1413 l 1,3,-1
 1106 1413 l 1,0,-1
1079 0 m 1,4,-1
 639 0 l 1,5,-1
 639 125 l 1,6,-1
 825 272 l 2,7,8
 872 307 872 307 888.5 332.5 c 128,-1,9
 905 358 905 358 905 387 c 0,10,11
 905 402 905 402 901.5 415 c 128,-1,12
 898 428 898 428 889 438.5 c 128,-1,13
 880 449 880 449 864.5 455 c 128,-1,14
 849 461 849 461 825 461 c 0,15,16
 793 461 793 461 765.5 447 c 128,-1,17
 738 433 738 433 700 401 c 1,18,-1
 633 502 l 1,19,20
 655 521 655 521 678 536.5 c 128,-1,21
 701 552 701 552 726.5 562.5 c 128,-1,22
 752 573 752 573 781.5 578.5 c 128,-1,23
 811 584 811 584 846 584 c 0,24,25
 890 584 890 584 929 571.5 c 128,-1,26
 968 559 968 559 997.5 535 c 128,-1,27
 1027 511 1027 511 1044 475.5 c 128,-1,28
 1061 440 1061 440 1061 393 c 0,29,30
 1061 363 1061 363 1051.5 336.5 c 128,-1,31
 1042 310 1042 310 1021.5 283.5 c 128,-1,32
 1001 257 1001 257 968.5 229 c 128,-1,33
 936 201 936 201 889 168 c 2,34,-1
 827 125 l 1,35,-1
 1079 125 l 1,36,-1
 1079 0 l 1,4,-1
246 844 m 1,37,-1
 246 1270 l 1,38,-1
 80 1180 l 1,39,-1
 25 1296 l 1,40,-1
 264 1425 l 1,41,-1
 403 1425 l 1,42,-1
 403 844 l 1,43,-1
 246 844 l 1,37,-1
EndSplineSet
EndChar
StartChar: threequarters
Encoding: 190 190 680
Width: 1126
Flags: W
LayerCount: 2
Back
Fore
SplineSet
1106 1413 m 1,0,-1
 184 0 l 1,1,-1
 20 0 l 1,2,-1
 940 1413 l 1,3,-1
 1106 1413 l 1,0,-1
1077 109 m 1,4,-1
 987 109 l 1,5,-1
 987 0 l 1,6,-1
 834 0 l 1,7,-1
 834 109 l 1,8,-1
 535 109 l 1,9,-1
 535 231 l 1,10,-1
 754 569 l 1,11,-1
 987 569 l 1,12,-1
 987 231 l 1,13,-1
 1077 231 l 1,14,-1
 1077 109 l 1,4,-1
834 457 m 1,15,-1
 688 231 l 1,16,-1
 834 231 l 1,17,-1
 834 457 l 1,15,-1
489 1022 m 0,18,19
 489 980 489 980 471 945 c 128,-1,20
 453 910 453 910 417.5 884 c 128,-1,21
 382 858 382 858 329.5 843.5 c 128,-1,22
 277 829 277 829 207 829 c 0,23,24
 176 829 176 829 144 832.5 c 128,-1,25
 112 836 112 836 86 842 c 1,26,-1
 86 961 l 1,27,28
 109 956 109 956 139.5 953 c 128,-1,29
 170 950 170 950 199 950 c 0,30,31
 262 950 262 950 288.5 968.5 c 128,-1,32
 315 987 315 987 315 1018 c 0,33,34
 315 1052 315 1052 291 1065.5 c 128,-1,35
 267 1079 267 1079 213 1079 c 2,36,-1
 123 1079 l 1,37,-1
 123 1192 l 1,38,-1
 207 1192 l 2,39,40
 254 1192 254 1192 271.5 1209.5 c 128,-1,41
 289 1227 289 1227 289 1253 c 0,42,43
 289 1276 289 1276 270.5 1292.5 c 128,-1,44
 252 1309 252 1309 207 1309 c 0,45,46
 176 1309 176 1309 149 1303.5 c 128,-1,47
 122 1298 122 1298 96 1292 c 1,48,-1
 96 1405 l 1,49,50
 130 1417 130 1417 167.5 1422 c 128,-1,51
 205 1427 205 1427 250 1427 c 0,52,53
 350 1427 350 1427 402.5 1389 c 128,-1,54
 455 1351 455 1351 455 1286 c 0,55,56
 455 1234 455 1234 436 1202 c 128,-1,57
 417 1170 417 1170 375 1153 c 1,58,59
 431 1142 431 1142 460 1109 c 128,-1,60
 489 1076 489 1076 489 1022 c 0,18,19
EndSplineSet
EndChar
StartChar: questiondown
Encoding: 191 191 356
Width: 1126
Flags: W
LayerCount: 2
Back
Fore
SplineSet
203 35 m 0,0,1
 203 196 203 196 293.5 280 c 128,-1,2
 384 364 384 364 553 375 c 1,3,-1
 561 621 l 1,4,-1
 711 621 l 1,5,-1
 723 238 l 1,6,-1
 606 238 l 2,7,8
 545 238 545 238 504 225 c 128,-1,9
 463 212 463 212 438 188 c 128,-1,10
 413 164 413 164 402 129.5 c 128,-1,11
 391 95 391 95 391 51 c 0,12,13
 391 -22 391 -22 421.5 -78.5 c 128,-1,14
 452 -135 452 -135 506 -174 c 128,-1,15
 560 -213 560 -213 634.5 -233.5 c 128,-1,16
 709 -254 709 -254 797 -254 c 2,17,-1
 821 -254 l 1,18,-1
 821 -410 l 1,19,-1
 795 -410 l 2,20,21
 694 -410 694 -410 610.5 -391 c 128,-1,22
 527 -372 527 -372 461 -339.5 c 128,-1,23
 395 -307 395 -307 346.5 -263 c 128,-1,24
 298 -219 298 -219 266 -169.5 c 128,-1,25
 234 -120 234 -120 218.5 -67.5 c 128,-1,26
 203 -15 203 -15 203 35 c 0,0,1
637 758 m 256,27,28
 609 758 609 758 585 768.5 c 128,-1,29
 561 779 561 779 543.5 797 c 128,-1,30
 526 815 526 815 516 839 c 128,-1,31
 506 863 506 863 506 891 c 0,32,33
 506 918 506 918 516 942 c 128,-1,34
 526 966 526 966 543.5 983.5 c 128,-1,35
 561 1001 561 1001 585 1011.5 c 128,-1,36
 609 1022 609 1022 637 1022 c 256,37,38
 665 1022 665 1022 689 1011.5 c 128,-1,39
 713 1001 713 1001 730.5 983.5 c 128,-1,40
 748 966 748 966 758 942 c 128,-1,41
 768 918 768 918 768 891 c 0,42,43
 768 863 768 863 758 839 c 128,-1,44
 748 815 748 815 730.5 797 c 128,-1,45
 713 779 713 779 689 768.5 c 128,-1,46
 665 758 665 758 637 758 c 256,27,28
EndSplineSet
Substitution2: "'case' Case-Sensitive Forms lookup 0 subtable" questiondown.case
EndChar
StartChar: AE
Encoding: 198 198 40
Width: 1126
GlyphClass: 2
Flags: W
AnchorPoint: "Anchor-11" 0 1700 basechar 0
AnchorPoint: "Anchor-10" 1126 1700 basechar 0
AnchorPoint: "Anchor-9" 1020 0 basechar 0
AnchorPoint: "Anchor-6" 1126 -350 basechar 0
AnchorPoint: "Anchor-5" 1126 1700 basechar 0
AnchorPoint: "Anchor-2" 663 -180 basechar 0
AnchorPoint: "Anchor-1" 1151 1390 basechar 0
AnchorPoint: "Anchor-0" 663 1430 basechar 0
LayerCount: 2
Back
Fore
SplineSet
1085 0 m 1,0,-1
 584 0 l 1,1,-1
 584 281 l 1,2,-1
 242 281 l 1,3,-1
 133 0 l 1,4,-1
 -43 0 l 1,5,-1
 489 1307 l 1,6,-1
 1071 1307 l 1,7,-1
 1071 1165 l 1,8,-1
 750 1165 l 1,9,-1
 750 748 l 1,10,-1
 1057 748 l 1,11,-1
 1057 606 l 1,12,-1
 750 606 l 1,13,-1
 750 143 l 1,14,-1
 1085 143 l 1,15,-1
 1085 0 l 1,0,-1
584 424 m 1,16,-1
 584 1167 l 1,17,-1
 297 424 l 1,18,-1
 584 424 l 1,16,-1
EndSplineSet
EndChar
StartChar: Ccedilla
Encoding: 199 199 46
Width: 1126
GlyphClass: 2
Flags: W
AnchorPoint: "Anchor-11" 0 1700 basechar 0
AnchorPoint: "Anchor-10" 1126 1700 basechar 0
AnchorPoint: "Anchor-9" 530 -295 basechar 0
AnchorPoint: "Anchor-6" 1126 -350 basechar 0
AnchorPoint: "Anchor-5" 1126 1700 basechar 0
AnchorPoint: "Anchor-2" 623 -385 basechar 0
AnchorPoint: "Anchor-1" 1045 1390 basechar 0
AnchorPoint: "Anchor-0" 623 1430 basechar 0
LayerCount: 2
Back
Fore
SplineSet
995 49 m 1,0,1
 836 -16 836 -16 676 -16 c 1,2,-1
 594 -295 l 1,3,-1
 442 -295 l 1,4,-1
 508 0 l 1,5,6
 306 41 306 41 199 204.5 c 128,-1,7
 92 368 92 368 92 639 c 0,8,9
 92 796 92 796 133 923 c 128,-1,10
 174 1050 174 1050 250 1138.5 c 128,-1,11
 326 1227 326 1227 434 1275 c 128,-1,12
 542 1323 542 1323 676 1323 c 0,13,14
 767 1323 767 1323 845 1307.5 c 128,-1,15
 923 1292 923 1292 995 1260 c 1,16,-1
 995 1085 l 1,17,18
 924 1124 924 1124 848 1144.5 c 128,-1,19
 772 1165 772 1165 682 1165 c 0,20,21
 590 1165 590 1165 515.5 1130.5 c 128,-1,22
 441 1096 441 1096 389 1030.5 c 128,-1,23
 337 965 337 965 309 870.5 c 128,-1,24
 281 776 281 776 281 655 c 0,25,26
 281 403 281 403 384 273 c 128,-1,27
 487 143 487 143 686 143 c 0,28,29
 770 143 770 143 847 162.5 c 128,-1,30
 924 182 924 182 995 217 c 1,31,-1
 995 49 l 1,0,1
EndSplineSet
EndChar
StartChar: Eth
Encoding: 208 208 48
Width: 1126
GlyphClass: 2
Flags: W
AnchorPoint: "Anchor-11" 0 1700 basechar 0
AnchorPoint: "Anchor-10" 1126 1700 basechar 0
AnchorPoint: "Anchor-9" 570 25 basechar 0
AnchorPoint: "Anchor-6" 1126 -350 basechar 0
AnchorPoint: "Anchor-5" 1126 1700 basechar 0
AnchorPoint: "Anchor-2" 563 -180 basechar 0
AnchorPoint: "Anchor-1" 1003 1390 basechar 0
AnchorPoint: "Anchor-0" 563 1430 basechar 0
LayerCount: 2
Back
Fore
SplineSet
139 1307 m 1,0,-1
 457 1307 l 2,1,2
 762 1307 762 1307 907.5 1149.5 c 128,-1,3
 1053 992 1053 992 1053 668 c 0,4,5
 1053 574 1053 574 1039.5 488 c 128,-1,6
 1026 402 1026 402 995 328 c 128,-1,7
 964 254 964 254 914 193.5 c 128,-1,8
 864 133 864 133 791.5 90 c 128,-1,9
 719 47 719 47 621.5 23.5 c 128,-1,10
 524 0 524 0 399 0 c 2,11,-1
 139 0 l 1,12,-1
 139 602 l 1,13,-1
 0 602 l 1,14,-1
 0 752 l 1,15,-1
 139 752 l 1,16,-1
 139 1307 l 1,0,-1
317 154 m 1,17,-1
 430 154 l 2,18,19
 653 154 653 154 759.5 279.5 c 128,-1,20
 866 405 866 405 866 655 c 0,21,22
 866 794 866 794 841.5 890 c 128,-1,23
 817 986 817 986 766 1045 c 128,-1,24
 715 1104 715 1104 636.5 1130.5 c 128,-1,25
 558 1157 558 1157 451 1157 c 2,26,-1
 317 1157 l 1,27,-1
 317 752 l 1,28,-1
 543 752 l 1,29,-1
 543 602 l 1,30,-1
 317 602 l 1,31,-1
 317 154 l 1,17,-1
EndSplineSet
EndChar
StartChar: multiply
Encoding: 215 215 686
Width: 1126
Flags: W
LayerCount: 2
Back
Fore
SplineSet
975 850 m 1,0,-1
 674 549 l 1,1,-1
 979 246 l 1,2,-1
 862 129 l 1,3,-1
 559 434 l 1,4,-1
 258 133 l 1,5,-1
 152 240 l 1,6,-1
 453 541 l 1,7,-1
 147 844 l 1,8,-1
 264 961 l 1,9,-1
 567 655 l 1,10,-1
 868 956 l 1,11,-1
 975 850 l 1,0,-1
EndSplineSet
EndChar
StartChar: Oslash
Encoding: 216 216 95
Width: 1126
GlyphClass: 2
Flags: W
AnchorPoint: "Anchor-11" 0 1700 basechar 0
AnchorPoint: "Anchor-10" 1126 1700 basechar 0
AnchorPoint: "Anchor-9" 650 0 basechar 0
AnchorPoint: "Anchor-6" 1126 -350 basechar 0
AnchorPoint: "Anchor-5" 1126 1700 basechar 0
AnchorPoint: "Anchor-2" 563 -305 basechar 0
AnchorPoint: "Anchor-1" 1135 1612 basechar 0
AnchorPoint: "Anchor-0" 563 1612 basechar 0
LayerCount: 2
Back
Fore
SplineSet
897 1522 m 1,0,-1
 819 1264 l 1,1,2
 946 1189 946 1189 1007.5 1035.5 c 128,-1,3
 1069 882 1069 882 1069 662 c 0,4,5
 1069 486 1069 486 1028 358 c 128,-1,6
 987 230 987 230 916.5 146.5 c 128,-1,7
 846 63 846 63 752 22.5 c 128,-1,8
 658 -18 658 -18 553 -18 c 0,9,10
 522 -18 522 -18 494 -15.5 c 128,-1,11
 466 -13 466 -13 438 -8 c 1,12,-1
 377 -215 l 1,13,-1
 231 -215 l 1,14,-1
 307 41 l 1,15,16
 181 113 181 113 119 268.5 c 128,-1,17
 57 424 57 424 57 647 c 0,18,19
 57 821 57 821 98 949 c 128,-1,20
 139 1077 139 1077 209.5 1160.5 c 128,-1,21
 280 1244 280 1244 374 1284.5 c 128,-1,22
 468 1325 468 1325 573 1325 c 0,23,24
 635 1325 635 1325 688 1313 c 1,25,-1
 752 1522 l 1,26,-1
 897 1522 l 1,0,-1
242 657 m 0,27,28
 242 511 242 511 269.5 398 c 128,-1,29
 297 285 297 285 360 219 c 1,30,-1
 643 1159 l 1,31,32
 624 1164 624 1164 604.5 1166.5 c 128,-1,33
 585 1169 585 1169 563 1169 c 0,34,35
 479 1169 479 1169 418.5 1128.5 c 128,-1,36
 358 1088 358 1088 319 1018.5 c 128,-1,37
 280 949 280 949 261 855.5 c 128,-1,38
 242 762 242 762 242 657 c 0,27,28
885 649 m 0,39,40
 885 795 885 795 857 906 c 128,-1,41
 829 1017 829 1017 766 1085 c 1,42,-1
 485 145 l 1,43,44
 502 140 502 140 522 138.5 c 128,-1,45
 542 137 542 137 563 137 c 0,46,47
 647 137 647 137 707.5 177.5 c 128,-1,48
 768 218 768 218 807.5 287.5 c 128,-1,49
 847 357 847 357 866 450 c 128,-1,50
 885 543 885 543 885 649 c 0,39,40
EndSplineSet
EndChar
StartChar: Thorn
Encoding: 222 222 98
Width: 1126
GlyphClass: 2
Flags: W
AnchorPoint: "Anchor-11" 0 1700 basechar 0
AnchorPoint: "Anchor-10" 1126 1700 basechar 0
AnchorPoint: "Anchor-9" 270 0 basechar 0
AnchorPoint: "Anchor-6" 1126 -350 basechar 0
AnchorPoint: "Anchor-5" 1126 1700 basechar 0
AnchorPoint: "Anchor-2" 563 -180 basechar 0
AnchorPoint: "Anchor-1" 1016 1307 basechar 0
AnchorPoint: "Anchor-0" 563 1397 basechar 0
LayerCount: 2
Back
Fore
SplineSet
336 1307 m 1,0,-1
 336 1112 l 1,1,-1
 526 1112 l 2,2,3
 623 1112 623 1112 712 1089 c 128,-1,4
 801 1066 801 1066 868.5 1016.5 c 128,-1,5
 936 967 936 967 976 889 c 128,-1,6
 1016 811 1016 811 1016 702 c 0,7,8
 1016 622 1016 622 986 542 c 128,-1,9
 956 462 956 462 893 398 c 128,-1,10
 830 334 830 334 732 294 c 128,-1,11
 634 254 634 254 498 254 c 2,12,-1
 336 254 l 1,13,-1
 336 0 l 1,14,-1
 158 0 l 1,15,-1
 158 1307 l 1,16,-1
 336 1307 l 1,0,-1
831 694 m 0,17,18
 831 757 831 757 810 807 c 128,-1,19
 789 857 789 857 748.5 892.5 c 128,-1,20
 708 928 708 928 650 946.5 c 128,-1,21
 592 965 592 965 518 965 c 2,22,-1
 336 965 l 1,23,-1
 336 406 l 1,24,-1
 502 406 l 2,25,26
 660 406 660 406 745.5 480 c 128,-1,27
 831 554 831 554 831 694 c 0,17,18
EndSplineSet
EndChar
StartChar: germandbls
Encoding: 223 223 239
Width: 1126
GlyphClass: 2
Flags: W
AnchorPoint: "Anchor-11" 0 1700 basechar 0
AnchorPoint: "Anchor-10" 1126 1700 basechar 0
AnchorPoint: "Anchor-9" 740 0 basechar 0
AnchorPoint: "Anchor-6" 1126 -350 basechar 0
AnchorPoint: "Anchor-5" 1126 1700 basechar 0
AnchorPoint: "Anchor-2" 563 -180 basechar 0
AnchorPoint: "Anchor-1" 932 1515 basechar 0
AnchorPoint: "Anchor-0" 563 1515 basechar 0
LayerCount: 2
Back
Fore
SplineSet
1022 279 m 0,0,1
 1022 226 1022 226 1002.5 174 c 128,-1,2
 983 122 983 122 938.5 81 c 128,-1,3
 894 40 894 40 823 14 c 128,-1,4
 752 -12 752 -12 649 -12 c 0,5,6
 598 -12 598 -12 556 -7.5 c 128,-1,7
 514 -3 514 -3 489 0 c 1,8,-1
 489 154 l 1,9,10
 500 150 500 150 518 146 c 128,-1,11
 536 142 536 142 557 139 c 128,-1,12
 578 136 578 136 600 134.5 c 128,-1,13
 622 133 622 133 641 133 c 0,14,15
 694 133 694 133 732.5 143 c 128,-1,16
 771 153 771 153 795.5 170 c 128,-1,17
 820 187 820 187 832 209.5 c 128,-1,18
 844 232 844 232 844 258 c 0,19,20
 844 305 844 305 818 341 c 128,-1,21
 792 377 792 377 753 409 c 128,-1,22
 714 441 714 441 668 473 c 128,-1,23
 622 505 622 505 583 542.5 c 128,-1,24
 544 580 544 580 518 627.5 c 128,-1,25
 492 675 492 675 492 739 c 0,26,27
 492 795 492 795 511.5 835 c 128,-1,28
 531 875 531 875 560 905.5 c 128,-1,29
 589 936 589 936 623 959.5 c 128,-1,30
 657 983 657 983 686 1007.5 c 128,-1,31
 715 1032 715 1032 734.5 1060.5 c 128,-1,32
 754 1089 754 1089 754 1128 c 0,33,34
 754 1210 754 1210 703.5 1247 c 128,-1,35
 653 1284 653 1284 557 1284 c 0,36,37
 503 1284 503 1284 460 1269 c 128,-1,38
 417 1254 417 1254 386 1221.5 c 128,-1,39
 355 1189 355 1189 338.5 1138 c 128,-1,40
 322 1087 322 1087 322 1016 c 2,41,-1
 322 0 l 1,42,-1
 147 0 l 1,43,-1
 147 1010 l 2,44,45
 147 1116 147 1116 179 1194 c 128,-1,46
 211 1272 211 1272 268 1323.5 c 128,-1,47
 325 1375 325 1375 403 1400 c 128,-1,48
 481 1425 481 1425 573 1425 c 0,49,50
 658 1425 658 1425 724.5 1405 c 128,-1,51
 791 1385 791 1385 837 1348 c 128,-1,52
 883 1311 883 1311 906.5 1258.5 c 128,-1,53
 930 1206 930 1206 930 1141 c 0,54,55
 930 1081 930 1081 910.5 1039 c 128,-1,56
 891 997 891 997 862 966 c 128,-1,57
 833 935 833 935 799 911 c 128,-1,58
 765 887 765 887 736 863.5 c 128,-1,59
 707 840 707 840 687.5 813 c 128,-1,60
 668 786 668 786 668 748 c 256,61,62
 668 710 668 710 694 679 c 128,-1,63
 720 648 720 648 759.5 617 c 128,-1,64
 799 586 799 586 845 554 c 128,-1,65
 891 522 891 522 930.5 482 c 128,-1,66
 970 442 970 442 996 392.5 c 128,-1,67
 1022 343 1022 343 1022 279 c 0,0,1
EndSplineSet
EndChar
StartChar: ae
Encoding: 230 230 167
Width: 1126
GlyphClass: 2
Flags: W
AnchorPoint: "Anchor-11" 0 1700 basechar 0
AnchorPoint: "Anchor-10" 1126 1700 basechar 0
AnchorPoint: "Anchor-9" 900 0 basechar 0
AnchorPoint: "Anchor-6" 1126 -350 basechar 0
AnchorPoint: "Anchor-5" 1126 1700 basechar 0
AnchorPoint: "Anchor-4" 960 930 basechar 0
AnchorPoint: "Anchor-2" 563 -180 basechar 0
AnchorPoint: "Anchor-1" 1113 1160 basechar 0
AnchorPoint: "Anchor-0" 563 1200 basechar 0
LayerCount: 2
Back
Fore
SplineSet
530 208 m 1,0,1
 484 94 484 94 424 38 c 128,-1,2
 364 -18 364 -18 308 -18 c 0,3,4
 209 -18 209 -18 136.5 109 c 128,-1,5
 64 236 64 236 64 435 c 0,6,7
 64 612 64 612 113 744 c 128,-1,8
 162 876 162 876 243.5 949 c 128,-1,9
 325 1022 325 1022 419 1022 c 0,10,11
 450 1022 450 1022 484.5 1015.5 c 128,-1,12
 519 1009 519 1009 547 999 c 128,-1,13
 575 989 575 989 617 959 c 1,14,15
 682 1007 682 1007 717 1014.5 c 128,-1,16
 752 1022 752 1022 780 1022 c 0,17,18
 892 1022 892 1022 964 922 c 128,-1,19
 1036 822 1036 822 1036 525 c 2,20,-1
 1036 481 l 1,21,-1
 680 481 l 1,22,-1
 680 408 l 2,23,24
 680 277 680 277 700 224 c 128,-1,25
 720 171 720 171 757 144.5 c 128,-1,26
 794 118 794 118 840 118 c 0,27,28
 929 118 929 118 1036 188 c 1,29,-1
 1036 38 l 1,30,31
 912 -18 912 -18 812 -18 c 0,32,33
 747 -18 747 -18 692.5 4.5 c 128,-1,34
 638 27 638 27 597.5 72 c 128,-1,35
 557 117 557 117 530 208 c 1,0,1
516 424 m 1,36,-1
 516 855 l 1,37,38
 495 870 495 870 474.5 877.5 c 128,-1,39
 454 885 454 885 435 885 c 0,40,41
 331 885 331 885 279.5 739.5 c 128,-1,42
 228 594 228 594 228 418 c 0,43,44
 228 313 228 313 257 238 c 256,45,46
 286 163 286 163 331 166 c 0,47,48
 424 172 424 172 516 424 c 1,36,-1
680 598 m 1,49,-1
 871 598 l 1,50,-1
 871 626 l 2,51,52
 871 781 871 781 847.5 833 c 128,-1,53
 824 885 824 885 778 885 c 0,54,55
 729 885 729 885 704.5 820.5 c 128,-1,56
 680 756 680 756 680 626 c 2,57,-1
 680 598 l 1,49,-1
EndSplineSet
EndChar
StartChar: ccedilla
Encoding: 231 231 173
Width: 1126
GlyphClass: 2
Flags: W
AnchorPoint: "Anchor-11" 0 1700 basechar 0
AnchorPoint: "Anchor-10" 1126 1700 basechar 0
AnchorPoint: "Anchor-9" 530 -295 basechar 0
AnchorPoint: "Anchor-6" 1126 -350 basechar 0
AnchorPoint: "Anchor-5" 1126 1700 basechar 0
AnchorPoint: "Anchor-2" 623 -385 basechar 0
AnchorPoint: "Anchor-1" 990 1160 basechar 0
AnchorPoint: "Anchor-0" 623 1200 basechar 0
LayerCount: 2
Back
Fore
SplineSet
677 -14 m 1,0,-1
 595 -295 l 1,1,-1
 443 -295 l 1,2,-1
 509 0 l 1,3,4
 335 38 335 38 246.5 163.5 c 128,-1,5
 158 289 158 289 158 492 c 0,6,7
 158 611 158 611 195 708 c 128,-1,8
 232 805 232 805 299 874 c 128,-1,9
 366 943 366 943 459 980.5 c 128,-1,10
 552 1018 552 1018 664 1018 c 0,11,12
 742 1018 742 1018 810 1007 c 128,-1,13
 878 996 878 996 940 971 c 1,14,-1
 940 805 l 1,15,16
 875 839 875 839 807.5 854.5 c 128,-1,17
 740 870 740 870 668 870 c 0,18,19
 601 870 601 870 541.5 844.5 c 128,-1,20
 482 819 482 819 437 771 c 128,-1,21
 392 723 392 723 366 654 c 128,-1,22
 340 585 340 585 340 498 c 0,23,24
 340 316 340 316 428.5 225.5 c 128,-1,25
 517 135 517 135 674 135 c 0,26,27
 745 135 745 135 811.5 151 c 128,-1,28
 878 167 878 167 940 199 c 1,29,-1
 940 37 l 1,30,31
 872 11 872 11 805 -1 c 128,-1,32
 738 -13 738 -13 677 -14 c 1,0,-1
EndSplineSet
EndChar
StartChar: eth
Encoding: 240 240 175
Width: 1126
GlyphClass: 2
Flags: W
AnchorPoint: "Anchor-11" 0 1700 basechar 0
AnchorPoint: "Anchor-10" 1126 1700 basechar 0
AnchorPoint: "Anchor-9" 700 20 basechar 0
AnchorPoint: "Anchor-6" 1126 -350 basechar 0
AnchorPoint: "Anchor-5" 1126 1700 basechar 0
AnchorPoint: "Anchor-2" 563 -180 basechar 0
AnchorPoint: "Anchor-1" 1072 1503 basechar 0
AnchorPoint: "Anchor-0" 563 1503 basechar 0
LayerCount: 2
Back
Fore
SplineSet
717 852 m 1,0,1
 675 861 675 861 643 864.5 c 128,-1,2
 611 868 611 868 582 868 c 0,3,4
 498 868 498 868 440 837 c 128,-1,5
 382 806 382 806 346.5 753.5 c 128,-1,6
 311 701 311 701 295 632 c 128,-1,7
 279 563 279 563 279 487 c 0,8,9
 279 400 279 400 299.5 333 c 128,-1,10
 320 266 320 266 356.5 220.5 c 128,-1,11
 393 175 393 175 443.5 152 c 128,-1,12
 494 129 494 129 553 129 c 0,13,14
 622 129 622 129 673.5 155.5 c 128,-1,15
 725 182 725 182 759 229.5 c 128,-1,16
 793 277 793 277 810 344 c 128,-1,17
 827 411 827 411 827 492 c 0,18,19
 827 578 827 578 800.5 665 c 128,-1,20
 774 752 774 752 717 852 c 1,0,1
616 1010 m 1,21,22
 596 1039 596 1039 572 1073.5 c 128,-1,23
 548 1108 548 1108 522 1143 c 1,24,-1
 242 1083 l 1,25,-1
 242 1229 l 1,26,-1
 428 1268 l 1,27,-1
 313 1413 l 1,28,-1
 530 1413 l 1,29,-1
 612 1309 l 1,30,-1
 909 1370 l 1,31,-1
 909 1225 l 1,32,-1
 705 1184 l 1,33,34
 778 1083 778 1083 834 991.5 c 128,-1,35
 890 900 890 900 928 816 c 128,-1,36
 966 732 966 732 986 654 c 128,-1,37
 1006 576 1006 576 1006 502 c 0,38,39
 1006 449 1006 449 997.5 389.5 c 128,-1,40
 989 330 989 330 969 272.5 c 128,-1,41
 949 215 949 215 914.5 162.5 c 128,-1,42
 880 110 880 110 828.5 69.5 c 128,-1,43
 777 29 777 29 705.5 5.5 c 128,-1,44
 634 -18 634 -18 539 -18 c 0,45,46
 433 -18 433 -18 351 17.5 c 128,-1,47
 269 53 269 53 213.5 118 c 128,-1,48
 158 183 158 183 129 274.5 c 128,-1,49
 100 366 100 366 100 477 c 0,50,51
 100 586 100 586 131 683.5 c 128,-1,52
 162 781 162 781 222 854.5 c 128,-1,53
 282 928 282 928 369.5 971 c 128,-1,54
 457 1014 457 1014 571 1014 c 0,55,56
 578 1014 578 1014 591 1013 c 128,-1,57
 604 1012 604 1012 616 1010 c 1,21,22
EndSplineSet
EndChar
StartChar: divide
Encoding: 247 247 687
Width: 1126
Flags: W
LayerCount: 2
Back
Fore
SplineSet
1042 469 m 1,0,-1
 84 469 l 1,1,-1
 84 621 l 1,2,-1
 1042 621 l 1,3,-1
 1042 469 l 1,0,-1
561 287 m 0,4,5
 588 287 588 287 612 276.5 c 128,-1,6
 636 266 636 266 653.5 248 c 128,-1,7
 671 230 671 230 681.5 205.5 c 128,-1,8
 692 181 692 181 692 154 c 256,9,10
 692 127 692 127 681.5 103 c 128,-1,11
 671 79 671 79 653.5 61.5 c 128,-1,12
 636 44 636 44 612 33.5 c 128,-1,13
 588 23 588 23 561 23 c 0,14,15
 533 23 533 23 509 33.5 c 128,-1,16
 485 44 485 44 467 61.5 c 128,-1,17
 449 79 449 79 438.5 103 c 128,-1,18
 428 127 428 127 428 154 c 256,19,20
 428 181 428 181 438.5 205.5 c 128,-1,21
 449 230 449 230 467 248 c 128,-1,22
 485 266 485 266 509 276.5 c 128,-1,23
 533 287 533 287 561 287 c 0,4,5
561 803 m 0,24,25
 533 803 533 803 509 813.5 c 128,-1,26
 485 824 485 824 467 842 c 128,-1,27
 449 860 449 860 438.5 884 c 128,-1,28
 428 908 428 908 428 936 c 0,29,30
 428 963 428 963 438.5 987 c 128,-1,31
 449 1011 449 1011 467 1028.5 c 128,-1,32
 485 1046 485 1046 509 1056.5 c 128,-1,33
 533 1067 533 1067 561 1067 c 0,34,35
 588 1067 588 1067 612 1056.5 c 128,-1,36
 636 1046 636 1046 653.5 1028.5 c 128,-1,37
 671 1011 671 1011 681.5 987 c 128,-1,38
 692 963 692 963 692 936 c 0,39,40
 692 908 692 908 681.5 884 c 128,-1,41
 671 860 671 860 653.5 842 c 128,-1,42
 636 824 636 824 612 813.5 c 128,-1,43
 588 803 588 803 561 803 c 0,24,25
EndSplineSet
EndChar
StartChar: oslash
Encoding: 248 248 227
Width: 1126
GlyphClass: 2
Flags: W
AnchorPoint: "Anchor-11" 0 1700 basechar 0
AnchorPoint: "Anchor-10" 1126 1700 basechar 0
AnchorPoint: "Anchor-9" 660 0 basechar 0
AnchorPoint: "Anchor-6" 1126 -350 basechar 0
AnchorPoint: "Anchor-5" 1126 1700 basechar 0
AnchorPoint: "Anchor-4" 870 930 basechar 0
AnchorPoint: "Anchor-2" 563 -305 basechar 0
AnchorPoint: "Anchor-1" 1030 1309 basechar 0
AnchorPoint: "Anchor-0" 563 1309 basechar 0
LayerCount: 2
Back
Fore
SplineSet
731 1219 m 1,0,-1
 877 1219 l 1,1,-1
 795 975 l 1,2,3
 908 921 908 921 971 804.5 c 128,-1,4
 1034 688 1034 688 1034 510 c 0,5,6
 1034 388 1034 388 1001.5 290 c 128,-1,7
 969 192 969 192 907 123.5 c 128,-1,8
 845 55 845 55 756 18.5 c 128,-1,9
 667 -18 667 -18 553 -18 c 0,10,11
 508 -18 508 -18 465 -12 c 1,12,-1
 397 -215 l 1,13,-1
 252 -215 l 1,14,-1
 334 29 l 1,15,16
 220 84 220 84 156 200.5 c 128,-1,17
 92 317 92 317 92 496 c 0,18,19
 92 617 92 617 124.5 714.5 c 128,-1,20
 157 812 157 812 219 880 c 128,-1,21
 281 948 281 948 370 985 c 128,-1,22
 459 1022 459 1022 573 1022 c 0,23,24
 617 1022 617 1022 664 1016 c 1,25,-1
 731 1219 l 1,0,-1
514 131 m 1,26,27
 526 129 526 129 541.5 128 c 128,-1,28
 557 127 557 127 569 127 c 0,29,30
 647 127 647 127 702 157 c 128,-1,31
 757 187 757 187 792 238.5 c 128,-1,32
 827 290 827 290 843.5 358 c 128,-1,33
 860 426 860 426 860 502 c 0,34,35
 860 614 860 614 829.5 694 c 128,-1,36
 799 774 799 774 743 819 c 1,37,-1
 514 131 l 1,26,27
614 872 m 1,38,39
 602 874 602 874 586.5 875.5 c 128,-1,40
 571 877 571 877 557 877 c 0,41,42
 479 877 479 877 424 847 c 128,-1,43
 369 817 369 817 334 765.5 c 128,-1,44
 299 714 299 714 282.5 646 c 128,-1,45
 266 578 266 578 266 502 c 0,46,47
 266 389 266 389 296 309 c 128,-1,48
 326 229 326 229 385 184 c 1,49,-1
 614 872 l 1,38,39
EndSplineSet
EndChar
StartChar: thorn
Encoding: 254 254 230
Width: 1126
GlyphClass: 2
Flags: W
AnchorPoint: "Anchor-11" 0 1700 basechar 0
AnchorPoint: "Anchor-10" 1126 1700 basechar 0
AnchorPoint: "Anchor-9" 260 -410 basechar 0
AnchorPoint: "Anchor-6" 1126 -350 basechar 0
AnchorPoint: "Anchor-5" 1126 1700 basechar 0
AnchorPoint: "Anchor-2" 563 -500 basechar 0
AnchorPoint: "Anchor-1" 978 1413 basechar 0
AnchorPoint: "Anchor-0" 563 1503 basechar 0
LayerCount: 2
Back
Fore
SplineSet
1018 520 m 0,0,1
 1018 395 1018 395 983.5 296.5 c 128,-1,2
 949 198 949 198 885.5 129.5 c 128,-1,3
 822 61 822 61 731 24.5 c 128,-1,4
 640 -12 640 -12 526 -12 c 0,5,6
 478 -12 478 -12 430.5 -7 c 128,-1,7
 383 -2 383 -2 334 10 c 1,8,-1
 334 -410 l 1,9,-1
 160 -410 l 1,10,-1
 160 1413 l 1,11,-1
 334 1413 l 1,12,-1
 334 1024 l 1,13,-1
 326 838 l 1,14,15
 401 939 401 939 486.5 980.5 c 128,-1,16
 572 1022 572 1022 670 1022 c 0,17,18
 756 1022 756 1022 821 986 c 128,-1,19
 886 950 886 950 930 884.5 c 128,-1,20
 974 819 974 819 996 726.5 c 128,-1,21
 1018 634 1018 634 1018 520 c 0,0,1
840 512 m 0,22,23
 840 591 840 591 828.5 657 c 128,-1,24
 817 723 817 723 792 770 c 128,-1,25
 767 817 767 817 728 843.5 c 128,-1,26
 689 870 689 870 635 870 c 0,27,28
 602 870 602 870 568 859.5 c 128,-1,29
 534 849 534 849 497.5 824.5 c 128,-1,30
 461 800 461 800 420.5 759.5 c 128,-1,31
 380 719 380 719 334 659 c 1,32,-1
 334 172 l 1,33,34
 385 152 385 152 438 140.5 c 128,-1,35
 491 129 491 129 539 129 c 0,36,37
 599 129 599 129 653.5 148 c 128,-1,38
 708 167 708 167 749.5 211.5 c 128,-1,39
 791 256 791 256 815.5 329.5 c 128,-1,40
 840 403 840 403 840 512 c 0,22,23
EndSplineSet
EndChar
StartChar: Aogonek
Encoding: 260 260 39
Width: 1126
GlyphClass: 2
Flags: W
AnchorPoint: "Anchor-11" 0 1700 basechar 0
AnchorPoint: "Anchor-10" 1126 1700 basechar 0
AnchorPoint: "Anchor-9" 1050 -385 basechar 0
AnchorPoint: "Anchor-6" 1126 -350 basechar 0
AnchorPoint: "Anchor-5" 1126 1700 basechar 0
AnchorPoint: "Anchor-2" 563 -475 basechar 0
AnchorPoint: "Anchor-1" 916 1390 basechar 0
AnchorPoint: "Anchor-0" 563 1430 basechar 0
LayerCount: 2
Back
Fore
SplineSet
1131 -375 m 1,0,1
 1106 -380 1106 -380 1075.5 -382.5 c 128,-1,2
 1045 -385 1045 -385 1020 -385 c 0,3,4
 912 -385 912 -385 856.5 -339 c 128,-1,5
 801 -293 801 -293 801 -221 c 0,6,7
 801 -198 801 -198 805.5 -175 c 128,-1,8
 810 -152 810 -152 823 -126 c 128,-1,9
 836 -100 836 -100 859.5 -69 c 128,-1,10
 883 -38 883 -38 922 0 c 1,11,-1
 831 285 l 1,12,-1
 287 285 l 1,13,-1
 195 0 l 1,14,-1
 10 0 l 1,15,-1
 444 1307 l 1,16,-1
 688 1307 l 1,17,-1
 1116 0 l 1,18,-1
 1078 0 l 1,19,20
 1042 -36 1042 -36 1020 -63.5 c 128,-1,21
 998 -91 998 -91 986 -113 c 128,-1,22
 974 -135 974 -135 969.5 -154.5 c 128,-1,23
 965 -174 965 -174 965 -193 c 0,24,25
 965 -225 965 -225 986.5 -245.5 c 128,-1,26
 1008 -266 1008 -266 1061 -266 c 0,27,28
 1075 -266 1075 -266 1094.5 -265 c 128,-1,29
 1114 -264 1114 -264 1131 -262 c 1,30,-1
 1131 -375 l 1,0,1
780 444 m 1,31,-1
 559 1143 l 1,32,-1
 338 444 l 1,33,-1
 780 444 l 1,31,-1
EndSplineSet
EndChar
StartChar: aogonek
Encoding: 261 261 166
Width: 1126
GlyphClass: 2
Flags: W
AnchorPoint: "Anchor-11" 0 1700 basechar 0
AnchorPoint: "Anchor-10" 1126 1700 basechar 0
AnchorPoint: "Anchor-9" 940 -385 basechar 0
AnchorPoint: "Anchor-6" 1126 -350 basechar 0
AnchorPoint: "Anchor-5" 1126 1700 basechar 0
AnchorPoint: "Anchor-2" 563 -475 basechar 0
AnchorPoint: "Anchor-1" 961 1160 basechar 0
AnchorPoint: "Anchor-0" 563 1200 basechar 0
LayerCount: 2
Back
Fore
SplineSet
296 477 m 0,0,1
 281 384 281 384 296.5 329 c 128,-1,2
 312 274 312 274 337.5 227.5 c 128,-1,3
 363 181 363 181 401.5 156 c 128,-1,4
 440 131 440 131 492 131 c 0,5,6
 558 131 558 131 631.5 190 c 128,-1,7
 705 249 705 249 786 365 c 1,8,-1
 786 831 l 1,9,10
 746 850 746 850 697 865 c 128,-1,11
 648 880 648 880 569 866 c 1,12,13
 463 826 463 826 393 736.5 c 128,-1,14
 323 647 323 647 296 477 c 0,0,1
961 0 m 1,15,16
 925 -36 925 -36 903 -63.5 c 128,-1,17
 881 -91 881 -91 869 -113 c 128,-1,18
 857 -135 857 -135 852.5 -154.5 c 128,-1,19
 848 -174 848 -174 848 -193 c 0,20,21
 848 -225 848 -225 869.5 -245.5 c 128,-1,22
 891 -266 891 -266 944 -266 c 0,23,24
 958 -266 958 -266 977.5 -265 c 128,-1,25
 997 -264 997 -264 1014 -262 c 1,26,-1
 1014 -375 l 1,27,28
 989 -380 989 -380 958.5 -382.5 c 128,-1,29
 928 -385 928 -385 903 -385 c 0,30,31
 795 -385 795 -385 739.5 -339 c 128,-1,32
 684 -293 684 -293 684 -221 c 0,33,34
 684 -198 684 -198 688.5 -175 c 128,-1,35
 693 -152 693 -152 706 -126 c 128,-1,36
 719 -100 719 -100 742.5 -69 c 128,-1,37
 766 -38 766 -38 805 0 c 1,38,-1
 801 135 l 1,39,-1
 798 184 l 1,40,41
 778 148 778 148 724 83 c 1,42,43
 653 -18 653 -18 457 -18 c 0,44,45
 369 -18 369 -18 304 18 c 128,-1,46
 239 54 239 54 195.5 120 c 128,-1,47
 152 186 152 186 136 262.5 c 128,-1,48
 120 339 120 339 118 412 c 1,49,50
 126 553 126 553 170 659 c 128,-1,51
 214 765 214 765 265.5 827.5 c 128,-1,52
 317 890 317 890 395.5 950 c 128,-1,53
 474 1010 474 1010 614 1024 c 1,54,55
 681 1022 681 1022 716 1011 c 128,-1,56
 751 1000 751 1000 807 983 c 1,57,-1
 961 1022 l 1,58,-1
 961 0 l 1,15,16
EndSplineSet
EndChar
StartChar: Eogonek
Encoding: 280 280 58
Width: 1126
GlyphClass: 2
Flags: W
AnchorPoint: "Anchor-11" 0 1700 basechar 0
AnchorPoint: "Anchor-10" 1126 1700 basechar 0
AnchorPoint: "Anchor-9" 920 -385 basechar 0
AnchorPoint: "Anchor-6" 1126 -350 basechar 0
AnchorPoint: "Anchor-5" 1126 1700 basechar 0
AnchorPoint: "Anchor-2" 563 -475 basechar 0
AnchorPoint: "Anchor-1" 994 1390 basechar 0
AnchorPoint: "Anchor-0" 563 1430 basechar 0
LayerCount: 2
Back
Fore
SplineSet
998 -375 m 1,0,1
 973 -380 973 -380 942.5 -382.5 c 128,-1,2
 912 -385 912 -385 887 -385 c 0,3,4
 779 -385 779 -385 723.5 -339 c 128,-1,5
 668 -293 668 -293 668 -221 c 0,6,7
 668 -198 668 -198 672.5 -175 c 128,-1,8
 677 -152 677 -152 690 -126 c 128,-1,9
 703 -100 703 -100 726.5 -69 c 128,-1,10
 750 -38 750 -38 789 0 c 1,11,-1
 201 0 l 1,12,-1
 201 1307 l 1,13,-1
 944 1307 l 1,14,-1
 944 1157 l 1,15,-1
 379 1157 l 1,16,-1
 379 752 l 1,17,-1
 922 752 l 1,18,-1
 922 602 l 1,19,-1
 379 602 l 1,20,-1
 379 152 l 1,21,-1
 944 152 l 1,22,-1
 944 0 l 1,23,-1
 945 0 l 1,24,25
 909 -36 909 -36 887 -63.5 c 128,-1,26
 865 -91 865 -91 853 -113 c 128,-1,27
 841 -135 841 -135 836.5 -154.5 c 128,-1,28
 832 -174 832 -174 832 -193 c 0,29,30
 832 -225 832 -225 853.5 -245.5 c 128,-1,31
 875 -266 875 -266 928 -266 c 0,32,33
 942 -266 942 -266 961.5 -265 c 128,-1,34
 981 -264 981 -264 998 -262 c 1,35,-1
 998 -375 l 1,0,1
EndSplineSet
EndChar
StartChar: eogonek
Encoding: 281 281 185
Width: 1126
GlyphClass: 2
Flags: W
AnchorPoint: "Anchor-11" 0 1700 basechar 0
AnchorPoint: "Anchor-10" 1126 1700 basechar 0
AnchorPoint: "Anchor-9" 810 -385 basechar 0
AnchorPoint: "Anchor-6" 1126 -350 basechar 0
AnchorPoint: "Anchor-5" 1126 1700 basechar 0
AnchorPoint: "Anchor-2" 563 -475 basechar 0
AnchorPoint: "Anchor-1" 1008 1160 basechar 0
AnchorPoint: "Anchor-0" 563 1200 basechar 0
LayerCount: 2
Back
Fore
SplineSet
883 -375 m 1,0,1
 858 -380 858 -380 827.5 -382.5 c 128,-1,2
 797 -385 797 -385 772 -385 c 0,3,4
 664 -385 664 -385 608.5 -339 c 128,-1,5
 553 -293 553 -293 553 -221 c 0,6,7
 553 -199 553 -199 557 -177.5 c 128,-1,8
 561 -156 561 -156 572 -131.5 c 128,-1,9
 583 -107 583 -107 603.5 -79 c 128,-1,10
 624 -51 624 -51 657 -17 c 1,11,12
 645 -17 645 -17 632.5 -17.5 c 128,-1,13
 620 -18 620 -18 608 -18 c 0,14,15
 479 -18 479 -18 386 17 c 128,-1,16
 293 52 293 52 233.5 118.5 c 128,-1,17
 174 185 174 185 145.5 281.5 c 128,-1,18
 117 378 117 378 117 500 c 0,19,20
 117 606 117 606 147.5 700.5 c 128,-1,21
 178 795 178 795 236.5 866.5 c 128,-1,22
 295 938 295 938 380 980 c 128,-1,23
 465 1022 465 1022 573 1022 c 0,24,25
 678 1022 678 1022 759 989 c 128,-1,26
 840 956 840 956 895.5 895.5 c 128,-1,27
 951 835 951 835 979.5 748.5 c 128,-1,28
 1008 662 1008 662 1008 555 c 0,29,30
 1008 518 1008 518 1007 493 c 128,-1,31
 1006 468 1006 468 1004 446 c 1,32,-1
 299 446 l 1,33,34
 299 292 299 292 385 209.5 c 128,-1,35
 471 127 471 127 633 127 c 0,36,37
 677 127 677 127 721 130.5 c 128,-1,38
 765 134 765 134 806 140 c 128,-1,39
 847 146 847 146 884.5 153.5 c 128,-1,40
 922 161 922 161 954 170 c 1,41,-1
 954 27 l 1,42,43
 897 10 897 10 828 0 c 1,44,45
 793 -36 793 -36 771.5 -63.5 c 128,-1,46
 750 -91 750 -91 738 -113 c 128,-1,47
 726 -135 726 -135 721.5 -154.5 c 128,-1,48
 717 -174 717 -174 717 -193 c 0,49,50
 717 -225 717 -225 738.5 -245.5 c 128,-1,51
 760 -266 760 -266 813 -266 c 0,52,53
 827 -266 827 -266 846.5 -265 c 128,-1,54
 866 -264 866 -264 883 -262 c 1,55,-1
 883 -375 l 1,0,1
827 580 m 1,56,57
 830 647 830 647 814 702.5 c 128,-1,58
 798 758 798 758 764.5 798 c 128,-1,59
 731 838 731 838 681 860.5 c 128,-1,60
 631 883 631 883 565 883 c 0,61,62
 508 883 508 883 461 861 c 128,-1,63
 414 839 414 839 380 799 c 128,-1,64
 346 759 346 759 325 703 c 128,-1,65
 304 647 304 647 299 580 c 1,66,-1
 827 580 l 1,56,57
EndSplineSet
EndChar
StartChar: Hbar
Encoding: 294 294 64
Width: 1126
GlyphClass: 2
Flags: W
AnchorPoint: "Anchor-11" 0 1700 basechar 0
AnchorPoint: "Anchor-10" 1126 1700 basechar 0
AnchorPoint: "Anchor-9" 920 0 basechar 0
AnchorPoint: "Anchor-6" 1126 -350 basechar 0
AnchorPoint: "Anchor-5" 1126 1700 basechar 0
AnchorPoint: "Anchor-2" 563 -180 basechar 0
AnchorPoint: "Anchor-1" 1162 1397 basechar 0
AnchorPoint: "Anchor-0" 563 1397 basechar 0
LayerCount: 2
Back
Fore
SplineSet
985 940 m 1,0,-1
 985 0 l 1,1,-1
 807 0 l 1,2,-1
 807 571 l 1,3,-1
 319 571 l 1,4,-1
 319 0 l 1,5,-1
 141 0 l 1,6,-1
 141 940 l 1,7,-1
 31 940 l 1,8,-1
 31 1090 l 1,9,-1
 141 1090 l 1,10,-1
 141 1307 l 1,11,-1
 319 1307 l 1,12,-1
 319 1090 l 1,13,-1
 807 1090 l 1,14,-1
 807 1307 l 1,15,-1
 985 1307 l 1,16,-1
 985 1090 l 1,17,-1
 1096 1090 l 1,18,-1
 1096 940 l 1,19,-1
 985 940 l 1,0,-1
807 721 m 1,20,-1
 807 940 l 1,21,-1
 319 940 l 1,22,-1
 319 721 l 1,23,-1
 807 721 l 1,20,-1
EndSplineSet
EndChar
StartChar: hbar
Encoding: 295 295 193
Width: 1126
GlyphClass: 2
Flags: W
AnchorPoint: "Anchor-11" 0 1700 basechar 0
AnchorPoint: "Anchor-10" 1126 1700 basechar 0
AnchorPoint: "Anchor-9" 900 0 basechar 0
AnchorPoint: "Anchor-6" 1126 -350 basechar 0
AnchorPoint: "Anchor-5" 1126 1700 basechar 0
AnchorPoint: "Anchor-2" 563 -180 basechar 0
AnchorPoint: "Anchor-1" 967 1413 basechar 0
AnchorPoint: "Anchor-0" 563 1503 basechar 0
LayerCount: 2
Back
Fore
SplineSet
334 963 m 1,0,-1
 328 797 l 1,1,2
 369 846 369 846 408.5 879.5 c 128,-1,3
 448 913 448 913 487.5 934 c 128,-1,4
 527 955 527 955 568 964 c 128,-1,5
 609 973 609 973 653 973 c 0,6,7
 803 973 803 973 885 881.5 c 128,-1,8
 967 790 967 790 967 606 c 2,9,-1
 967 0 l 1,10,-1
 793 0 l 1,11,-1
 793 592 l 2,12,13
 793 707 793 707 749.5 765 c 128,-1,14
 706 823 706 823 625 823 c 0,15,16
 590 823 590 823 559.5 813.5 c 128,-1,17
 529 804 529 804 496 780.5 c 128,-1,18
 463 757 463 757 424 717 c 128,-1,19
 385 677 385 677 334 616 c 1,20,-1
 334 0 l 1,21,-1
 160 0 l 1,22,-1
 160 1139 l 1,23,-1
 0 1139 l 1,24,-1
 0 1280 l 1,25,-1
 160 1280 l 1,26,-1
 160 1413 l 1,27,-1
 334 1413 l 1,28,-1
 334 1280 l 1,29,-1
 649 1280 l 1,30,-1
 649 1139 l 1,31,-1
 334 1139 l 1,32,-1
 334 963 l 1,0,-1
0 1004 m 1024,33,-1
EndSplineSet
EndChar
StartChar: Iogonek
Encoding: 302 302 73
Width: 1126
GlyphClass: 2
Flags: W
AnchorPoint: "Anchor-11" 0 1700 basechar 0
AnchorPoint: "Anchor-10" 1126 1700 basechar 0
AnchorPoint: "Anchor-9" 930 -385 basechar 0
AnchorPoint: "Anchor-6" 1126 -350 basechar 0
AnchorPoint: "Anchor-5" 1126 1700 basechar 0
AnchorPoint: "Anchor-2" 563 -475 basechar 0
AnchorPoint: "Anchor-1" 1004 1390 basechar 0
AnchorPoint: "Anchor-0" 563 1430 basechar 0
LayerCount: 2
Back
Fore
SplineSet
1008 -375 m 1,0,1
 983 -380 983 -380 952.5 -382.5 c 128,-1,2
 922 -385 922 -385 897 -385 c 0,3,4
 789 -385 789 -385 733.5 -339 c 128,-1,5
 678 -293 678 -293 678 -221 c 0,6,7
 678 -198 678 -198 682.5 -175 c 128,-1,8
 687 -152 687 -152 700 -126 c 128,-1,9
 713 -100 713 -100 736.5 -69 c 128,-1,10
 760 -38 760 -38 799 0 c 1,11,-1
 172 0 l 1,12,-1
 172 152 l 1,13,-1
 473 152 l 1,14,-1
 473 1157 l 1,15,-1
 172 1157 l 1,16,-1
 172 1307 l 1,17,-1
 954 1307 l 1,18,-1
 954 1157 l 1,19,-1
 653 1157 l 1,20,-1
 653 152 l 1,21,-1
 954 152 l 1,22,-1
 954 0 l 1,23,-1
 955 0 l 1,24,25
 919 -36 919 -36 897 -63.5 c 128,-1,26
 875 -91 875 -91 863 -113 c 128,-1,27
 851 -135 851 -135 846.5 -154.5 c 128,-1,28
 842 -174 842 -174 842 -193 c 0,29,30
 842 -225 842 -225 863.5 -245.5 c 128,-1,31
 885 -266 885 -266 938 -266 c 0,32,33
 952 -266 952 -266 971.5 -265 c 128,-1,34
 991 -264 991 -264 1008 -262 c 1,35,-1
 1008 -375 l 1,0,1
EndSplineSet
EndChar
StartChar: iogonek
Encoding: 303 303 201
Width: 1126
GlyphClass: 2
Flags: W
AnchorPoint: "Anchor-11" 0 1700 basechar 0
AnchorPoint: "Anchor-10" 1126 1700 basechar 0
AnchorPoint: "Anchor-9" 960 -385 basechar 0
AnchorPoint: "Anchor-6" 1126 -350 basechar 0
AnchorPoint: "Anchor-5" 1126 1700 basechar 0
AnchorPoint: "Anchor-2" 563 -475 basechar 0
AnchorPoint: "Anchor-1" 777 1500 basechar 0
AnchorPoint: "Anchor-0" 563 1500 basechar 0
LayerCount: 2
Back
Fore
SplineSet
563 1425 m 256,0,1
 592 1425 592 1425 617 1414.5 c 128,-1,2
 642 1404 642 1404 660.5 1385 c 128,-1,3
 679 1366 679 1366 689.5 1341.5 c 128,-1,4
 700 1317 700 1317 700 1288 c 0,5,6
 700 1260 700 1260 689.5 1235 c 128,-1,7
 679 1210 679 1210 660.5 1191 c 128,-1,8
 642 1172 642 1172 617 1161.5 c 128,-1,9
 592 1151 592 1151 563 1151 c 256,10,11
 534 1151 534 1151 509 1161.5 c 128,-1,12
 484 1172 484 1172 465.5 1191 c 128,-1,13
 447 1210 447 1210 436.5 1235 c 128,-1,14
 426 1260 426 1260 426 1288 c 0,15,16
 426 1317 426 1317 436.5 1341.5 c 128,-1,17
 447 1366 447 1366 465.5 1385 c 128,-1,18
 484 1404 484 1404 509 1414.5 c 128,-1,19
 534 1425 534 1425 563 1425 c 256,0,1
829 140 m 1,20,-1
 1036 140 l 1,21,-1
 1036 -6 l 1,22,-1
 971 -6 l 1,23,24
 939 -38 939 -38 919 -63 c 0,25,26
 897 -91 897 -91 885 -113 c 128,-1,27
 873 -135 873 -135 868.5 -154.5 c 128,-1,28
 864 -174 864 -174 864 -193 c 0,29,30
 864 -225 864 -225 885.5 -245.5 c 128,-1,31
 907 -266 907 -266 960 -266 c 0,32,33
 974 -266 974 -266 993.5 -265 c 128,-1,34
 1013 -264 1013 -264 1030 -262 c 1,35,-1
 1030 -375 l 1,36,37
 1005 -380 1005 -380 974.5 -382.5 c 128,-1,38
 944 -385 944 -385 919 -385 c 0,39,40
 811 -385 811 -385 755.5 -339 c 128,-1,41
 700 -293 700 -293 700 -221 c 0,42,43
 700 -198 700 -198 704.5 -175 c 128,-1,44
 709 -152 709 -152 722 -126 c 128,-1,45
 735 -100 735 -100 759 -69 c 0,46,47
 780 -40 780 -40 815 -6 c 1,48,49
 664 -4 664 -4 582 94 c 0,50,51
 506 182 506 182 497 334 c 1,52,-1
 497 858 l 1,53,-1
 216 858 l 1,54,-1
 216 1004 l 1,55,-1
 671 1004 l 1,56,-1
 671 348 l 1,57,58
 675 252 675 252 712 201 c 0,59,60
 751 144 751 144 829 140 c 1,20,-1
EndSplineSet
AlternateSubs2: "'ss06' Style Set 6 lookup 31 subtable" glyph285
Substitution2: "'ss05' Style Set 5 lookup 30 subtable" iogonek.ss05
AlternateSubs2: "'salt' Stylistic Alternatives lookup 23 subtable" iogonek.ss05 glyph285
Substitution2: "Single Substitution lookup 15 subtable" glyph927
EndChar
StartChar: dotlessi
Encoding: 305 305 202
Width: 1126
GlyphClass: 2
Flags: W
AnchorPoint: "Anchor-11" 0 1700 basechar 0
AnchorPoint: "Anchor-10" 1126 1700 basechar 0
AnchorPoint: "Anchor-9" 910 0 basechar 0
AnchorPoint: "Anchor-6" 1126 -350 basechar 0
AnchorPoint: "Anchor-5" 1126 1700 basechar 0
AnchorPoint: "Anchor-4" 580 1000 basechar 0
AnchorPoint: "Anchor-2" 563 -180 basechar 0
AnchorPoint: "Anchor-1" 777 1184 basechar 0
AnchorPoint: "Anchor-0" 563 1184 basechar 0
LayerCount: 2
Back
Fore
SplineSet
712 201 m 0,1,2
 754 140 754 140 839 140 c 2,3,-1
 1036 140 l 1,4,-1
 1036 -6 l 1,5,-1
 822 -6 l 2,6,7
 666 -6 666 -6 582 94 c 0,8,9
 506 182 506 182 497 334 c 1,10,-1
 497 858 l 1,11,-1
 216 858 l 1,12,-1
 216 1004 l 1,13,-1
 671 1004 l 1,14,-1
 671 348 l 1,15,0
 675 252 675 252 712 201 c 0,1,2
EndSplineSet
AlternateSubs2: "'ss06' Style Set 6 lookup 31 subtable" glyph286
Substitution2: "'ss05' Style Set 5 lookup 30 subtable" dotlessi.ss05
AlternateSubs2: "'salt' Stylistic Alternatives lookup 23 subtable" dotlessi.ss05 glyph286
EndChar
StartChar: IJ
Encoding: 306 306 74
Width: 1126
GlyphClass: 2
Flags: W
AnchorPoint: "Anchor-11" 0 1700 basechar 0
AnchorPoint: "Anchor-10" 1126 1700 basechar 0
AnchorPoint: "Anchor-9" 730 0 basechar 0
AnchorPoint: "Anchor-6" 1126 -350 basechar 0
AnchorPoint: "Anchor-5" 1126 1700 basechar 0
AnchorPoint: "Anchor-2" 563 -180 basechar 0
AnchorPoint: "Anchor-1" 1082 1397 basechar 0
AnchorPoint: "Anchor-0" 563 1397 basechar 0
LayerCount: 2
Back
Fore
SplineSet
475 176 m 1,0,1
 491 169 491 169 512.5 161.5 c 128,-1,2
 534 154 534 154 557 148 c 128,-1,3
 580 142 580 142 603 138.5 c 128,-1,4
 626 135 626 135 645 135 c 0,5,6
 737 135 737 135 787.5 189 c 128,-1,7
 838 243 838 243 838 369 c 2,8,-1
 838 1307 l 1,9,-1
 1016 1307 l 1,10,-1
 1016 354 l 2,11,12
 1016 272 1016 272 993.5 204.5 c 128,-1,13
 971 137 971 137 926 89 c 128,-1,14
 881 41 881 41 813.5 14.5 c 128,-1,15
 746 -12 746 -12 655 -12 c 0,16,17
 554 -12 554 -12 475 16 c 1,18,-1
 475 176 l 1,0,1
289 0 m 1,19,-1
 111 0 l 1,20,-1
 111 1307 l 1,21,-1
 289 1307 l 1,22,-1
 289 0 l 1,19,-1
EndSplineSet
EndChar
StartChar: ij
Encoding: 307 307 203
Width: 1126
GlyphClass: 2
Flags: W
AnchorPoint: "Anchor-11" 0 1700 basechar 0
AnchorPoint: "Anchor-10" 1126 1700 basechar 0
AnchorPoint: "Anchor-9" 755 -350 basechar 0
AnchorPoint: "Anchor-6" 1126 -350 basechar 0
AnchorPoint: "Anchor-5" 1126 1700 basechar 0
AnchorPoint: "Anchor-2" 563 -550 basechar 0
AnchorPoint: "Anchor-1" 1086 1513 basechar 0
AnchorPoint: "Anchor-0" 563 1500 basechar 0
LayerCount: 2
Back
Fore
SplineSet
342 -227 m 1,0,1
 364 -237 364 -237 392.5 -245 c 128,-1,2
 421 -253 421 -253 451.5 -258.5 c 128,-1,3
 482 -264 482 -264 512.5 -267 c 128,-1,4
 543 -270 543 -270 569 -270 c 0,5,6
 675 -270 675 -270 734 -199 c 128,-1,7
 793 -128 793 -128 793 12 c 2,8,-1
 793 1004 l 1,9,-1
 967 1004 l 1,10,-1
 967 18 l 2,11,12
 967 -87 967 -87 939 -168.5 c 128,-1,13
 911 -250 911 -250 858.5 -306 c 128,-1,14
 806 -362 806 -362 731.5 -391 c 128,-1,15
 657 -420 657 -420 563 -420 c 0,16,17
 495 -420 495 -420 437.5 -408 c 128,-1,18
 380 -396 380 -396 342 -381 c 1,19,-1
 342 -227 l 1,0,1
334 1004 m 1,20,-1
 334 0 l 1,21,-1
 160 0 l 1,22,-1
 160 1004 l 1,23,-1
 334 1004 l 1,20,-1
106 1282 m 256,24,25
 106 1311 106 1311 116.5 1337 c 128,-1,26
 127 1363 127 1363 146 1382 c 128,-1,27
 165 1401 165 1401 190.5 1412 c 128,-1,28
 216 1423 216 1423 246 1423 c 0,29,30
 277 1423 277 1423 302.5 1412 c 128,-1,31
 328 1401 328 1401 347 1382 c 128,-1,32
 366 1363 366 1363 376.5 1337 c 128,-1,33
 387 1311 387 1311 387 1282 c 256,34,35
 387 1253 387 1253 376.5 1227 c 128,-1,36
 366 1201 366 1201 347 1182 c 128,-1,37
 328 1163 328 1163 302.5 1152 c 128,-1,38
 277 1141 277 1141 246 1141 c 0,39,40
 216 1141 216 1141 190.5 1152 c 128,-1,41
 165 1163 165 1163 146 1182 c 128,-1,42
 127 1201 127 1201 116.5 1227 c 128,-1,43
 106 1253 106 1253 106 1282 c 256,24,25
739 1282 m 256,44,45
 739 1311 739 1311 749.5 1337 c 128,-1,46
 760 1363 760 1363 779 1382 c 128,-1,47
 798 1401 798 1401 823.5 1412 c 128,-1,48
 849 1423 849 1423 879 1423 c 0,49,50
 910 1423 910 1423 935.5 1412 c 128,-1,51
 961 1401 961 1401 980 1382 c 128,-1,52
 999 1363 999 1363 1009.5 1337 c 128,-1,53
 1020 1311 1020 1311 1020 1282 c 256,54,55
 1020 1253 1020 1253 1009.5 1227 c 128,-1,56
 999 1201 999 1201 980 1182 c 128,-1,57
 961 1163 961 1163 935.5 1152 c 128,-1,58
 910 1141 910 1141 879 1141 c 0,59,60
 849 1141 849 1141 823.5 1152 c 128,-1,61
 798 1163 798 1163 779 1182 c 128,-1,62
 760 1201 760 1201 749.5 1227 c 128,-1,63
 739 1253 739 1253 739 1282 c 256,44,45
EndSplineSet
EndChar
StartChar: Lslash
Encoding: 321 321 80
Width: 1126
GlyphClass: 2
Flags: W
AnchorPoint: "Anchor-11" 0 1700 basechar 0
AnchorPoint: "Anchor-10" 1126 1700 basechar 0
AnchorPoint: "Anchor-9" 920 0 basechar 0
AnchorPoint: "Anchor-6" 1126 -350 basechar 0
AnchorPoint: "Anchor-5" 1126 1700 basechar 0
AnchorPoint: "Anchor-2" 583 -180 basechar 0
AnchorPoint: "Anchor-1" 985 1390 basechar 0
AnchorPoint: "Anchor-0" 583 1430 basechar 0
LayerCount: 2
Back
Fore
SplineSet
434 152 m 1,0,-1
 985 152 l 1,1,-1
 985 0 l 1,2,-1
 254 0 l 1,3,-1
 254 602 l 1,4,-1
 45 496 l 1,5,-1
 45 653 l 1,6,-1
 254 760 l 1,7,-1
 254 1307 l 1,8,-1
 434 1307 l 1,9,-1
 434 850 l 1,10,-1
 795 1032 l 1,11,-1
 795 874 l 1,12,-1
 434 692 l 1,13,-1
 434 152 l 1,0,-1
EndSplineSet
EndChar
StartChar: lslash
Encoding: 322 322 211
Width: 1126
GlyphClass: 2
Flags: W
AnchorPoint: "Anchor-11" 0 1700 basechar 0
AnchorPoint: "Anchor-10" 1126 1700 basechar 0
AnchorPoint: "Anchor-9" 910 0 basechar 0
AnchorPoint: "Anchor-6" 1126 -350 basechar 0
AnchorPoint: "Anchor-5" 1126 1700 basechar 0
AnchorPoint: "Anchor-2" 563 -180 basechar 0
AnchorPoint: "Anchor-1" 773 1500 basechar 0
AnchorPoint: "Anchor-0" 563 1500 basechar 0
LayerCount: 2
Back
Fore
SplineSet
670 903 m 1,0,-1
 678 907 l 1,1,-1
 965 1053 l 1,2,-1
 965 895 l 1,3,-1
 678 750 l 1,4,-1
 671 746 l 1,5,-1
 671 348 l 1,6,7
 675 252 675 252 712 201 c 0,8,9
 754 140 754 140 839 140 c 2,10,-1
 1036 140 l 1,11,-1
 1036 -6 l 1,12,-1
 822 -6 l 2,13,14
 666 -6 666 -6 582 94 c 0,15,16
 506 182 506 182 497 334 c 1,17,-1
 497 659 l 1,18,-1
 215 516 l 1,19,-1
 215 674 l 1,20,-1
 496 816 l 1,21,-1
 496 1268 l 1,22,-1
 215 1268 l 1,23,-1
 215 1414 l 1,24,-1
 670 1414 l 1,25,-1
 670 903 l 1,0,-1
EndSplineSet
AlternateSubs2: "'ss06' Style Set 6 lookup 31 subtable" glyph300
Substitution2: "'ss05' Style Set 5 lookup 30 subtable" lslash.ss05
AlternateSubs2: "'salt' Stylistic Alternatives lookup 23 subtable" lslash.ss05 glyph300
EndChar
StartChar: Eng
Encoding: 330 330 86
Width: 1126
GlyphClass: 2
Flags: W
AnchorPoint: "Anchor-11" 0 1700 basechar 0
AnchorPoint: "Anchor-10" 1126 1700 basechar 0
AnchorPoint: "Anchor-9" 795 -350 basechar 0
AnchorPoint: "Anchor-6" 1126 -350 basechar 0
AnchorPoint: "Anchor-5" 1126 1700 basechar 0
AnchorPoint: "Anchor-2" 563 -510 basechar 0
AnchorPoint: "Anchor-1" 1058 1390 basechar 0
AnchorPoint: "Anchor-0" 563 1430 basechar 0
LayerCount: 2
Back
Fore
SplineSet
408 821 m 1,0,-1
 285 1077 l 1,1,-1
 285 0 l 1,2,-1
 119 0 l 1,3,-1
 119 1307 l 1,4,-1
 338 1307 l 1,5,-1
 735 555 l 1,6,-1
 842 338 l 1,7,-1
 842 1307 l 1,8,-1
 1008 1307 l 1,9,-1
 1008 18 l 2,10,11
 1008 -87 1008 -87 980 -168.5 c 128,-1,12
 952 -250 952 -250 899.5 -306 c 128,-1,13
 847 -362 847 -362 772.5 -391 c 128,-1,14
 698 -420 698 -420 604 -420 c 1,15,-1
 606 -270 l 1,16,17
 715 -270 715 -270 774.5 -199 c 128,-1,18
 834 -128 834 -128 834 12 c 1,19,-1
 408 821 l 1,0,-1
EndSplineSet
Substitution2: "'ss03' Style Set 3 lookup 28 subtable" Eng.ss03
Substitution2: "'ss02' Style Set 2 lookup 26 subtable" Eng.ss02
Substitution2: "'ss01' Style Set 1 lookup 24 subtable" Eng.ss01
EndChar
StartChar: eng
Encoding: 331 331 218
Width: 1126
GlyphClass: 2
Flags: W
AnchorPoint: "Anchor-11" 0 1700 basechar 0
AnchorPoint: "Anchor-10" 1126 1700 basechar 0
AnchorPoint: "Anchor-9" 755 -350 basechar 0
AnchorPoint: "Anchor-6" 1126 -350 basechar 0
AnchorPoint: "Anchor-5" 1126 1700 basechar 0
AnchorPoint: "Anchor-2" 563 -510 basechar 0
AnchorPoint: "Anchor-1" 1017 1160 basechar 0
AnchorPoint: "Anchor-0" 563 1200 basechar 0
LayerCount: 2
Back
Fore
SplineSet
565 -270 m 1,0,1
 674 -270 674 -270 733.5 -199 c 128,-1,2
 793 -128 793 -128 793 12 c 2,3,-1
 793 641 l 2,4,5
 793 759 793 759 749 815.5 c 128,-1,6
 705 872 705 872 618 872 c 0,7,8
 586 872 586 872 555.5 862.5 c 128,-1,9
 525 853 525 853 492 829.5 c 128,-1,10
 459 806 459 806 420.5 766 c 128,-1,11
 382 726 382 726 334 666 c 1,12,-1
 334 0 l 1,13,-1
 160 0 l 1,14,-1
 160 1004 l 1,15,-1
 315 1004 l 1,16,-1
 322 842 l 1,17,18
 366 894 366 894 407 928.5 c 128,-1,19
 448 963 448 963 487.5 984 c 128,-1,20
 527 1005 527 1005 568 1013.5 c 128,-1,21
 609 1022 609 1022 653 1022 c 0,22,23
 808 1022 808 1022 887.5 930.5 c 128,-1,24
 967 839 967 839 967 655 c 2,25,-1
 967 18 l 2,26,27
 967 -87 967 -87 939 -168.5 c 128,-1,28
 911 -250 911 -250 858.5 -306 c 128,-1,29
 806 -362 806 -362 731.5 -391 c 128,-1,30
 657 -420 657 -420 563 -420 c 1,31,-1
 565 -270 l 1,0,1
EndSplineSet
EndChar
StartChar: OE
Encoding: 338 338 97
Width: 1126
GlyphClass: 2
Flags: W
AnchorPoint: "Anchor-11" 0 1700 basechar 0
AnchorPoint: "Anchor-10" 1126 1700 basechar 0
AnchorPoint: "Anchor-9" 1020 0 basechar 0
AnchorPoint: "Anchor-6" 1126 -350 basechar 0
AnchorPoint: "Anchor-5" 1126 1700 basechar 0
AnchorPoint: "Anchor-2" 683 -180 basechar 0
AnchorPoint: "Anchor-1" 1160 1390 basechar 0
AnchorPoint: "Anchor-0" 683 1430 basechar 0
LayerCount: 2
Back
Fore
SplineSet
1094 0 m 1,0,-1
 729 0 l 2,1,2
 655 0 655 0 602 -7 c 128,-1,3
 549 -14 549 -14 506 -14 c 0,4,5
 384 -14 384 -14 294.5 29.5 c 128,-1,6
 205 73 205 73 146.5 157 c 128,-1,7
 88 241 88 241 59.5 364 c 128,-1,8
 31 487 31 487 31 647 c 0,9,10
 31 821 31 821 69.5 948 c 128,-1,11
 108 1075 108 1075 173 1158 c 128,-1,12
 238 1241 238 1241 325 1281 c 128,-1,13
 412 1321 412 1321 510 1321 c 0,14,15
 534 1321 534 1321 565 1319 c 128,-1,16
 596 1317 596 1317 626.5 1314 c 128,-1,17
 657 1311 657 1311 683.5 1309 c 128,-1,18
 710 1307 710 1307 725 1307 c 2,19,-1
 1094 1307 l 1,20,-1
 1094 1161 l 1,21,-1
 764 1161 l 1,22,-1
 764 750 l 1,23,-1
 1073 750 l 1,24,-1
 1073 604 l 1,25,-1
 764 604 l 1,26,-1
 764 147 l 1,27,-1
 1094 147 l 1,28,-1
 1094 0 l 1,0,-1
592 1165 m 1,29,30
 578 1168 578 1168 556.5 1171 c 128,-1,31
 535 1174 535 1174 510 1174 c 0,32,33
 430 1174 430 1174 373 1133.5 c 128,-1,34
 316 1093 316 1093 279.5 1022.5 c 128,-1,35
 243 952 243 952 226 857 c 128,-1,36
 209 762 209 762 209 653 c 0,37,38
 209 401 209 401 286.5 267 c 128,-1,39
 364 133 364 133 516 133 c 0,40,41
 536 133 536 133 554 135.5 c 128,-1,42
 572 138 572 138 592 143 c 1,43,-1
 592 1165 l 1,29,30
EndSplineSet
EndChar
StartChar: oe
Encoding: 339 339 229
Width: 1126
GlyphClass: 2
Flags: W
AnchorPoint: "Anchor-11" 0 1700 basechar 0
AnchorPoint: "Anchor-10" 1126 1700 basechar 0
AnchorPoint: "Anchor-9" 900 0 basechar 0
AnchorPoint: "Anchor-6" 1126 -350 basechar 0
AnchorPoint: "Anchor-5" 1126 1700 basechar 0
AnchorPoint: "Anchor-4" 960 930 basechar 0
AnchorPoint: "Anchor-2" 563 -180 basechar 0
AnchorPoint: "Anchor-1" 1106 1160 basechar 0
AnchorPoint: "Anchor-0" 563 1200 basechar 0
LayerCount: 2
Back
Fore
SplineSet
571 158 m 1,0,1
 536 73 536 73 478.5 27.5 c 128,-1,2
 421 -18 421 -18 344 -18 c 0,3,4
 266 -18 266 -18 209 11 c 128,-1,5
 152 40 152 40 114 102.5 c 128,-1,6
 76 165 76 165 57.5 262 c 128,-1,7
 39 359 39 359 39 494 c 0,8,9
 39 616 39 616 59 713.5 c 128,-1,10
 79 811 79 811 118.5 879.5 c 128,-1,11
 158 948 158 948 218 985 c 128,-1,12
 278 1022 278 1022 358 1022 c 0,13,14
 436 1022 436 1022 489.5 980 c 128,-1,15
 543 938 543 938 584 848 c 1,16,17
 602 889 602 889 623 921.5 c 128,-1,18
 644 954 644 954 671 976.5 c 128,-1,19
 698 999 698 999 732.5 1010.5 c 128,-1,20
 767 1022 767 1022 811 1022 c 0,21,22
 877 1022 877 1022 929 991 c 128,-1,23
 981 960 981 960 1016.5 900 c 128,-1,24
 1052 840 1052 840 1071 753 c 128,-1,25
 1090 666 1090 666 1090 555 c 0,26,27
 1090 518 1090 518 1089.5 494.5 c 128,-1,28
 1089 471 1089 471 1087 459 c 1,29,-1
 664 459 l 1,30,31
 664 298 664 298 710 214.5 c 128,-1,32
 756 131 756 131 850 131 c 0,33,34
 907 131 907 131 960.5 143 c 128,-1,35
 1014 155 1014 155 1055 172 c 1,36,-1
 1055 27 l 1,37,38
 1010 7 1010 7 952.5 -5.5 c 128,-1,39
 895 -18 895 -18 834 -18 c 0,40,41
 743 -18 743 -18 673 25.5 c 128,-1,42
 603 69 603 69 571 158 c 1,0,1
489 500 m 0,43,44
 489 603 489 603 479.5 674.5 c 128,-1,45
 470 746 470 746 452 791 c 128,-1,46
 434 836 434 836 408 856.5 c 128,-1,47
 382 877 382 877 350 877 c 0,48,49
 315 877 315 877 287.5 855.5 c 128,-1,50
 260 834 260 834 241 788 c 128,-1,51
 222 742 222 742 212.5 671 c 128,-1,52
 203 600 203 600 203 500 c 0,53,54
 203 399 203 399 211.5 328 c 128,-1,55
 220 257 220 257 238 212.5 c 128,-1,56
 256 168 256 168 284 147.5 c 128,-1,57
 312 127 312 127 350 127 c 0,58,59
 489 127 489 127 489 500 c 0,43,44
928 588 m 1,60,61
 929 666 929 666 919 721 c 128,-1,62
 909 776 909 776 892 810.5 c 128,-1,63
 875 845 875 845 851.5 861 c 128,-1,64
 828 877 828 877 801 877 c 0,65,66
 732 877 732 877 699 801 c 128,-1,67
 666 725 666 725 664 588 c 1,68,-1
 928 588 l 1,60,61
EndSplineSet
EndChar
StartChar: Scedilla
Encoding: 350 350 105
Width: 1126
GlyphClass: 2
Flags: W
AnchorPoint: "Anchor-11" 0 1700 basechar 0
AnchorPoint: "Anchor-10" 1126 1700 basechar 0
AnchorPoint: "Anchor-9" 480 -295 basechar 0
AnchorPoint: "Anchor-6" 1126 -350 basechar 0
AnchorPoint: "Anchor-5" 1126 1700 basechar 0
AnchorPoint: "Anchor-2" 563 -385 basechar 0
AnchorPoint: "Anchor-1" 967 1390 basechar 0
AnchorPoint: "Anchor-0" 563 1430 basechar 0
LayerCount: 2
Back
Fore
SplineSet
631 -6 m 1,0,-1
 547 -295 l 1,1,-1
 395 -295 l 1,2,-1
 457 -18 l 1,3,4
 416 -17 416 -17 370 -13.5 c 128,-1,5
 324 -10 324 -10 276.5 -4 c 128,-1,6
 229 2 229 2 187 10 c 128,-1,7
 145 18 145 18 111 27 c 1,8,-1
 111 199 l 1,9,10
 186 171 186 171 279.5 155 c 128,-1,11
 373 139 373 139 492 139 c 0,12,13
 578 139 578 139 638.5 152.5 c 128,-1,14
 699 166 699 166 737.5 192.5 c 128,-1,15
 776 219 776 219 793.5 257 c 128,-1,16
 811 295 811 295 811 344 c 0,17,18
 811 397 811 397 781.5 434.5 c 128,-1,19
 752 472 752 472 704 501.5 c 128,-1,20
 656 531 656 531 594.5 555.5 c 128,-1,21
 533 580 533 580 469 606 c 128,-1,22
 405 632 405 632 343.5 662.5 c 128,-1,23
 282 693 282 693 234 734.5 c 128,-1,24
 186 776 186 776 156.5 832 c 128,-1,25
 127 888 127 888 127 965 c 0,26,27
 127 1032 127 1032 155 1097 c 128,-1,28
 183 1162 183 1162 242 1212.5 c 128,-1,29
 301 1263 301 1263 393.5 1294 c 128,-1,30
 486 1325 486 1325 614 1325 c 0,31,32
 647 1325 647 1325 685.5 1322 c 128,-1,33
 724 1319 724 1319 763.5 1313.5 c 128,-1,34
 803 1308 803 1308 841.5 1301 c 128,-1,35
 880 1294 880 1294 913 1286 c 1,36,-1
 913 1126 l 1,37,38
 836 1148 836 1148 759 1159.5 c 128,-1,39
 682 1171 682 1171 610 1171 c 0,40,41
 457 1171 457 1171 385 1120 c 128,-1,42
 313 1069 313 1069 313 983 c 0,43,44
 313 930 313 930 342.5 892 c 128,-1,45
 372 854 372 854 420 824 c 128,-1,46
 468 794 468 794 529.5 769.5 c 128,-1,47
 591 745 591 745 655 719 c 128,-1,48
 719 693 719 693 780.5 662 c 128,-1,49
 842 631 842 631 890 588.5 c 128,-1,50
 938 546 938 546 967.5 489 c 128,-1,51
 997 432 997 432 997 354 c 0,52,53
 997 261 997 261 959 191 c 128,-1,54
 921 121 921 121 843.5 68.5 c 128,-1,55
 766 16 766 16 631 -6 c 1,0,-1
EndSplineSet
Substitution2: "'salt' Stylistic Alternatives in Latin lookup 39 subtable" uni0218
EndChar
StartChar: scedilla
Encoding: 351 351 237
Width: 1126
GlyphClass: 2
Flags: W
AnchorPoint: "Anchor-11" 0 1700 basechar 0
AnchorPoint: "Anchor-10" 1126 1700 basechar 0
AnchorPoint: "Anchor-9" 505 -295 basechar 0
AnchorPoint: "Anchor-6" 1126 -350 basechar 0
AnchorPoint: "Anchor-5" 1126 1700 basechar 0
AnchorPoint: "Anchor-2" 563 -385 basechar 0
AnchorPoint: "Anchor-1" 935 1160 basechar 0
AnchorPoint: "Anchor-0" 563 1200 basechar 0
LayerCount: 2
Back
Fore
SplineSet
955 274 m 0,0,1
 955 211 955 211 929.5 163 c 128,-1,2
 904 115 904 115 862.5 80.5 c 128,-1,3
 821 46 821 46 767 24.5 c 128,-1,4
 713 3 713 3 655 -7 c 1,5,-1
 571 -295 l 1,6,-1
 420 -295 l 1,7,-1
 481 -17 l 1,8,9
 397 -15 397 -15 324.5 -6 c 128,-1,10
 252 3 252 3 182 20 c 1,11,-1
 182 180 l 1,12,13
 270 155 270 155 357 142 c 128,-1,14
 444 129 444 129 530 129 c 0,15,16
 655 129 655 129 715 163 c 128,-1,17
 775 197 775 197 775 260 c 0,18,19
 775 287 775 287 765.5 308.5 c 128,-1,20
 756 330 756 330 731 349.5 c 128,-1,21
 706 369 706 369 653.5 390 c 128,-1,22
 601 411 601 411 510 438 c 0,23,24
 442 458 442 458 384.5 483.5 c 128,-1,25
 327 509 327 509 285 544 c 128,-1,26
 243 579 243 579 219 626 c 128,-1,27
 195 673 195 673 195 737 c 0,28,29
 195 779 195 779 214.5 829 c 128,-1,30
 234 879 234 879 281 922 c 128,-1,31
 328 965 328 965 408 993.5 c 128,-1,32
 488 1022 488 1022 608 1022 c 0,33,34
 667 1022 667 1022 739 1015.5 c 128,-1,35
 811 1009 811 1009 889 993 c 1,36,-1
 889 838 l 1,37,38
 807 858 807 858 733.5 867.5 c 128,-1,39
 660 877 660 877 606 877 c 0,40,41
 541 877 541 877 496.5 867 c 128,-1,42
 452 857 452 857 424.5 839.5 c 128,-1,43
 397 822 397 822 385 798.5 c 128,-1,44
 373 775 373 775 373 748 c 256,45,46
 373 721 373 721 383.5 699 c 128,-1,47
 394 677 394 677 422.5 656.5 c 128,-1,48
 451 636 451 636 502 615.5 c 128,-1,49
 553 595 553 595 635 571 c 0,50,51
 724 545 724 545 785 516.5 c 128,-1,52
 846 488 846 488 884 453 c 128,-1,53
 922 418 922 418 938.5 374 c 128,-1,54
 955 330 955 330 955 274 c 0,0,1
EndSplineSet
Substitution2: "'salt' Stylistic Alternatives in Latin lookup 39 subtable" uni0219
EndChar
StartChar: Tbar
Encoding: 358 358 109
Width: 1126
GlyphClass: 2
Flags: W
AnchorPoint: "Anchor-11" 0 1700 basechar 0
AnchorPoint: "Anchor-10" 1126 1700 basechar 0
AnchorPoint: "Anchor-9" 580 0 basechar 0
AnchorPoint: "Anchor-6" 1126 -350 basechar 0
AnchorPoint: "Anchor-5" 1126 1700 basechar 0
AnchorPoint: "Anchor-2" 563 -180 basechar 0
AnchorPoint: "Anchor-1" 1106 1397 basechar 0
AnchorPoint: "Anchor-0" 563 1430 basechar 0
LayerCount: 2
Back
Fore
SplineSet
653 582 m 1,0,-1
 653 0 l 1,1,-1
 473 0 l 1,2,-1
 473 582 l 1,3,-1
 207 582 l 1,4,-1
 207 731 l 1,5,-1
 473 731 l 1,6,-1
 473 1155 l 1,7,-1
 86 1155 l 1,8,-1
 86 1307 l 1,9,-1
 1040 1307 l 1,10,-1
 1040 1155 l 1,11,-1
 653 1155 l 1,12,-1
 653 731 l 1,13,-1
 920 731 l 1,14,-1
 920 582 l 1,15,-1
 653 582 l 1,0,-1
EndSplineSet
EndChar
StartChar: tbar
Encoding: 359 359 243
Width: 1126
GlyphClass: 2
Flags: W
AnchorPoint: "Anchor-11" 0 1700 basechar 0
AnchorPoint: "Anchor-10" 1126 1700 basechar 0
AnchorPoint: "Anchor-9" 780 0 basechar 0
AnchorPoint: "Anchor-6" 1126 -350 basechar 0
AnchorPoint: "Anchor-5" 1126 1700 basechar 0
AnchorPoint: "Anchor-2" 563 -180 basechar 0
AnchorPoint: "Anchor-1" 969 1415 basechar 0
AnchorPoint: "Anchor-0" 433 1450 basechar 0
LayerCount: 2
Back
Fore
SplineSet
969 14 m 1,0,1
 910 -1 910 -1 847 -7.5 c 128,-1,2
 784 -14 784 -14 719 -14 c 0,3,4
 530 -14 530 -14 437 71.5 c 128,-1,5
 344 157 344 157 344 334 c 2,6,-1
 344 449 l 1,7,-1
 104 449 l 1,8,-1
 104 594 l 1,9,-1
 344 594 l 1,10,-1
 344 858 l 1,11,-1
 63 858 l 1,12,-1
 63 1004 l 1,13,-1
 344 1004 l 1,14,-1
 344 1280 l 1,15,-1
 518 1325 l 1,16,-1
 518 1004 l 1,17,-1
 969 1004 l 1,18,-1
 969 858 l 1,19,-1
 518 858 l 1,20,-1
 518 594 l 1,21,-1
 907 594 l 1,22,-1
 907 449 l 1,23,-1
 518 449 l 1,24,-1
 518 348 l 2,25,26
 518 240 518 240 575.5 186.5 c 128,-1,27
 633 133 633 133 745 133 c 0,28,29
 793 133 793 133 850 140.5 c 128,-1,30
 907 148 907 148 969 164 c 1,31,-1
 969 14 l 1,0,1
EndSplineSet
EndChar
StartChar: Uogonek
Encoding: 370 370 119
Width: 1126
GlyphClass: 2
Flags: W
AnchorPoint: "Anchor-11" 0 1700 basechar 0
AnchorPoint: "Anchor-10" 1126 1700 basechar 0
AnchorPoint: "Anchor-9" 680 -385 basechar 0
AnchorPoint: "Anchor-6" 1126 -350 basechar 0
AnchorPoint: "Anchor-5" 1126 1700 basechar 0
AnchorPoint: "Anchor-2" 563 -475 basechar 0
AnchorPoint: "Anchor-1" 1068 1390 basechar 0
AnchorPoint: "Anchor-0" 563 1430 basechar 0
LayerCount: 2
Back
Fore
SplineSet
758 -375 m 1,0,1
 733 -380 733 -380 702.5 -382.5 c 128,-1,2
 672 -385 672 -385 647 -385 c 0,3,4
 539 -385 539 -385 483.5 -339 c 128,-1,5
 428 -293 428 -293 428 -221 c 0,6,7
 428 -199 428 -199 432 -177.5 c 128,-1,8
 436 -156 436 -156 447.5 -131.5 c 128,-1,9
 459 -107 459 -107 479 -79 c 128,-1,10
 499 -51 499 -51 532 -17 c 1,11,12
 417 -14 417 -14 336.5 19.5 c 128,-1,13
 256 53 256 53 205.5 111 c 128,-1,14
 155 169 155 169 132 249.5 c 128,-1,15
 109 330 109 330 109 428 c 2,16,-1
 109 1307 l 1,17,-1
 287 1307 l 1,18,-1
 287 442 l 2,19,20
 287 365 287 365 301.5 307 c 128,-1,21
 316 249 316 249 349 210 c 128,-1,22
 382 171 382 171 434.5 151 c 128,-1,23
 487 131 487 131 563 131 c 0,24,25
 705 131 705 131 772.5 213 c 128,-1,26
 840 295 840 295 840 444 c 2,27,-1
 840 1307 l 1,28,-1
 1018 1307 l 1,29,-1
 1018 455 l 2,30,31
 1018 366 1018 366 997.5 291 c 128,-1,32
 977 216 977 216 937 158 c 128,-1,33
 897 100 897 100 839 59.5 c 128,-1,34
 781 19 781 19 705 0 c 1,35,36
 669 -36 669 -36 647 -63.5 c 128,-1,37
 625 -91 625 -91 613 -113 c 128,-1,38
 601 -135 601 -135 596.5 -154.5 c 128,-1,39
 592 -174 592 -174 592 -193 c 0,40,41
 592 -225 592 -225 614 -245.5 c 128,-1,42
 636 -266 636 -266 688 -266 c 0,43,44
 702 -266 702 -266 721.5 -265 c 128,-1,45
 741 -264 741 -264 758 -262 c 1,46,-1
 758 -375 l 1,0,1
EndSplineSet
EndChar
StartChar: uogonek
Encoding: 371 371 253
Width: 1126
GlyphClass: 2
Flags: W
AnchorPoint: "Anchor-11" 0 1700 basechar 0
AnchorPoint: "Anchor-10" 1126 1700 basechar 0
AnchorPoint: "Anchor-9" 950 -385 basechar 0
AnchorPoint: "Anchor-6" 1126 -350 basechar 0
AnchorPoint: "Anchor-5" 1126 1700 basechar 0
AnchorPoint: "Anchor-2" 563 -475 basechar 0
AnchorPoint: "Anchor-1" 1017 1160 basechar 0
AnchorPoint: "Anchor-0" 563 1200 basechar 0
LayerCount: 2
Back
Fore
SplineSet
1020 -375 m 1,0,1
 995 -380 995 -380 964.5 -382.5 c 128,-1,2
 934 -385 934 -385 909 -385 c 0,3,4
 801 -385 801 -385 745.5 -339 c 128,-1,5
 690 -293 690 -293 690 -221 c 0,6,7
 690 -198 690 -198 694.5 -175 c 128,-1,8
 699 -152 699 -152 712 -126 c 128,-1,9
 725 -100 725 -100 748.5 -69 c 128,-1,10
 772 -38 772 -38 811 0 c 1,11,-1
 805 162 l 1,12,13
 760 110 760 110 719.5 75.5 c 128,-1,14
 679 41 679 41 639 20 c 128,-1,15
 599 -1 599 -1 558.5 -9.5 c 128,-1,16
 518 -18 518 -18 473 -18 c 0,17,18
 318 -18 318 -18 239 73 c 128,-1,19
 160 164 160 164 160 348 c 2,20,-1
 160 1004 l 1,21,-1
 334 1004 l 1,22,-1
 334 362 l 2,23,24
 334 131 334 131 508 131 c 0,25,26
 540 131 540 131 570.5 140.5 c 128,-1,27
 601 150 601 150 634.5 173.5 c 128,-1,28
 668 197 668 197 706.5 237 c 128,-1,29
 745 277 745 277 793 338 c 1,30,-1
 793 1004 l 1,31,-1
 967 1004 l 1,32,-1
 967 0 l 1,33,34
 931 -36 931 -36 909 -63.5 c 128,-1,35
 887 -91 887 -91 875 -113 c 128,-1,36
 863 -135 863 -135 858.5 -154.5 c 128,-1,37
 854 -174 854 -174 854 -193 c 0,38,39
 854 -225 854 -225 875.5 -245.5 c 128,-1,40
 897 -266 897 -266 950 -266 c 0,41,42
 964 -266 964 -266 983.5 -265 c 128,-1,43
 1003 -264 1003 -264 1020 -262 c 1,44,-1
 1020 -375 l 1,0,1
EndSplineSet
EndChar
StartChar: longs
Encoding: 383 383 240
Width: 1126
GlyphClass: 2
Flags: W
AnchorPoint: "Anchor-11" 0 1700 basechar 0
AnchorPoint: "Anchor-10" 1126 1700 basechar 0
AnchorPoint: "Anchor-9" 400 0 basechar 0
AnchorPoint: "Anchor-6" 1126 -350 basechar 0
AnchorPoint: "Anchor-5" 1126 1700 basechar 0
AnchorPoint: "Anchor-2" 563 -180 basechar 0
AnchorPoint: "Anchor-1" 1096 1517 basechar 0
AnchorPoint: "Anchor-0" 698 1517 basechar 0
LayerCount: 2
Back
Fore
SplineSet
1030 1401 m 1,0,-1
 1030 1255 l 1,1,2
 999 1262 999 1262 965 1267 c 128,-1,3
 931 1272 931 1272 896.5 1275.5 c 128,-1,4
 862 1279 862 1279 829.5 1280.5 c 128,-1,5
 797 1282 797 1282 770 1282 c 0,6,7
 619 1282 619 1282 543 1209 c 128,-1,8
 467 1136 467 1136 467 979 c 2,9,-1
 467 0 l 1,10,-1
 289 0 l 1,11,-1
 289 961 l 2,12,13
 289 1079 289 1079 323.5 1166.5 c 128,-1,14
 358 1254 358 1254 420 1312 c 128,-1,15
 482 1370 482 1370 568.5 1398.5 c 128,-1,16
 655 1427 655 1427 760 1427 c 0,17,18
 826 1427 826 1427 898 1420 c 128,-1,19
 970 1413 970 1413 1030 1401 c 1,0,-1
EndSplineSet
EndChar
StartChar: uni0180
Encoding: 384 384 1295
Width: 1126
GlyphClass: 2
Flags: W
AnchorPoint: "Anchor-11" 0 1700 basechar 0
AnchorPoint: "Anchor-10" 1126 1700 basechar 0
AnchorPoint: "Anchor-9" 620 0 basechar 0
AnchorPoint: "Anchor-6" 1126 -350 basechar 0
AnchorPoint: "Anchor-5" 1126 1700 basechar 0
AnchorPoint: "Anchor-2" 563 -180 basechar 0
AnchorPoint: "Anchor-1" 938 1503 basechar 0
AnchorPoint: "Anchor-0" 563 1503 basechar 0
LayerCount: 2
Back
Fore
SplineSet
0 1282 m 1,0,-1
 160 1282 l 1,1,-1
 160 1413 l 1,2,-1
 334 1413 l 1,3,-1
 334 1282 l 1,4,-1
 623 1282 l 1,5,-1
 623 1137 l 1,6,-1
 334 1137 l 1,7,-1
 334 1024 l 1,8,-1
 326 838 l 1,9,10
 401 939 401 939 486.5 980.5 c 128,-1,11
 572 1022 572 1022 670 1022 c 0,12,13
 756 1022 756 1022 821 986 c 128,-1,14
 886 950 886 950 930 884.5 c 128,-1,15
 974 819 974 819 996 726.5 c 128,-1,16
 1018 634 1018 634 1018 520 c 0,17,18
 1018 395 1018 395 983.5 296.5 c 128,-1,19
 949 198 949 198 885.5 129.5 c 128,-1,20
 822 61 822 61 731 24.5 c 128,-1,21
 640 -12 640 -12 526 -12 c 0,22,23
 437 -12 437 -12 344 5 c 128,-1,24
 251 22 251 22 160 59 c 1,25,-1
 160 1137 l 1,26,-1
 0 1137 l 1,27,-1
 0 1282 l 1,0,-1
840 512 m 0,28,29
 840 591 840 591 828.5 657 c 128,-1,30
 817 723 817 723 792 770 c 128,-1,31
 767 817 767 817 728 843.5 c 128,-1,32
 689 870 689 870 635 870 c 0,33,34
 602 870 602 870 568 859.5 c 128,-1,35
 534 849 534 849 497.5 824.5 c 128,-1,36
 461 800 461 800 420.5 759.5 c 128,-1,37
 380 719 380 719 334 659 c 1,38,-1
 334 172 l 1,39,40
 385 152 385 152 438 140.5 c 128,-1,41
 491 129 491 129 539 129 c 0,42,43
 599 129 599 129 653.5 148 c 128,-1,44
 708 167 708 167 749.5 211.5 c 128,-1,45
 791 256 791 256 815.5 329.5 c 128,-1,46
 840 403 840 403 840 512 c 0,28,29
EndSplineSet
EndChar
StartChar: uni0181
Encoding: 385 385 1113
Width: 1126
GlyphClass: 2
Flags: W
AnchorPoint: "Anchor-11" 0 1700 basechar 0
AnchorPoint: "Anchor-10" 1126 1700 basechar 0
AnchorPoint: "Anchor-9" 670 25 basechar 0
AnchorPoint: "Anchor-6" 1126 -350 basechar 0
AnchorPoint: "Anchor-5" 1126 1700 basechar 0
AnchorPoint: "Anchor-2" 563 -180 basechar 0
AnchorPoint: "Anchor-1" 1006 1397 basechar 0
AnchorPoint: "Anchor-0" 563 1397 basechar 0
LayerCount: 2
Back
Fore
SplineSet
1016 391 m 0,0,1
 1016 297 1016 297 979.5 224.5 c 128,-1,2
 943 152 943 152 875.5 102 c 128,-1,3
 808 52 808 52 712.5 26 c 128,-1,4
 617 0 617 0 500 0 c 2,5,-1
 268 0 l 1,6,-1
 268 1152 l 1,7,8
 228 1146 228 1146 203 1133.5 c 128,-1,9
 178 1121 178 1121 164.5 1104.5 c 128,-1,10
 151 1088 151 1088 146.5 1067.5 c 128,-1,11
 142 1047 142 1047 142 1026 c 0,12,13
 142 988 142 988 150 957.5 c 128,-1,14
 158 927 158 927 161 917 c 1,15,-1
 17 917 l 1,16,17
 12 934 12 934 6 967 c 128,-1,18
 0 1000 0 1000 0 1032 c 0,19,20
 0 1167 0 1167 82 1237 c 128,-1,21
 164 1307 164 1307 321 1307 c 2,22,-1
 532 1307 l 2,23,24
 969 1307 969 1307 969 989 c 0,25,26
 969 883 969 883 918.5 807 c 128,-1,27
 868 731 868 731 754 694 c 1,28,29
 807 684 807 684 854.5 660 c 128,-1,30
 902 636 902 636 938 598 c 128,-1,31
 974 560 974 560 995 508 c 128,-1,32
 1016 456 1016 456 1016 391 c 0,0,1
827 385 m 0,33,34
 827 435 827 435 806 475 c 128,-1,35
 785 515 785 515 745 542.5 c 128,-1,36
 705 570 705 570 647.5 585 c 128,-1,37
 590 600 590 600 518 600 c 2,38,-1
 446 600 l 1,39,-1
 446 150 l 1,40,-1
 524 150 l 2,41,42
 677 150 677 150 752 207 c 128,-1,43
 827 264 827 264 827 385 c 0,33,34
784 965 m 0,44,45
 784 1005 784 1005 772 1040.5 c 128,-1,46
 760 1076 760 1076 730 1101.5 c 128,-1,47
 700 1127 700 1127 649 1142 c 128,-1,48
 598 1157 598 1157 520 1157 c 2,49,-1
 446 1157 l 1,50,-1
 446 748 l 1,51,-1
 514 748 l 2,52,53
 575 748 575 748 624.5 761 c 128,-1,54
 674 774 674 774 709.5 801 c 128,-1,55
 745 828 745 828 764.5 868.5 c 128,-1,56
 784 909 784 909 784 965 c 0,44,45
EndSplineSet
EndChar
